Padauk-Regular.ufo
<glyph name="exclam" format="2">
  <advance width="229"/>
  <unicode hex="0021"/>
  <outline>
    <contour>
      <point x="115" y="813" type="curve" smooth="yes"/>
      <point x="133" y="813"/>
      <point x="148" y="799"/>
      <point x="150" y="757" type="curve" smooth="yes"/>
      <point x="151" y="743"/>
      <point x="151" y="725"/>
      <point x="151" y="706" type="curve" smooth="yes"/>
      <point x="151" y="548"/>
      <point x="146" y="406"/>
      <point x="131" y="268" type="curve" smooth="yes"/>
      <point x="122" y="187"/>
      <point x="121" y="180"/>
      <point x="115" y="180" type="curve" smooth="yes"/>
      <point x="109" y="180"/>
      <point x="108" y="187"/>
      <point x="99" y="269" type="curve" smooth="yes"/>
      <point x="84" y="406"/>
      <point x="80" y="548"/>
      <point x="80" y="706" type="curve" smooth="yes"/>
      <point x="80" y="725"/>
      <point x="80" y="743"/>
      <point x="81" y="757" type="curve" smooth="yes"/>
      <point x="83" y="799"/>
      <point x="97" y="813"/>
    </contour>
    <contour>
      <point x="174" y="42" type="curve" smooth="yes"/>
      <point x="174" y="11"/>
      <point x="146" y="-15"/>
      <point x="115" y="-15" type="curve" smooth="yes"/>
      <point x="84" y="-15"/>
      <point x="56" y="11"/>
      <point x="56" y="42" type="curve" smooth="yes"/>
      <point x="56" y="73"/>
      <point x="84" y="99"/>
      <point x="115" y="99" type="curve" smooth="yes"/>
      <point x="146" y="99"/>
      <point x="174" y="73"/>
    </contour>
  </outline>
</glyph>
<glyph name="quotedbl" format="2">
  <advance width="806"/>
  <unicode hex="0022"/>
  <outline>
    <contour>
      <point x="312" y="1286" type="line"/>
      <point x="270" y="774" type="line"/>
      <point x="164" y="774" type="line"/>
      <point x="122" y="1286" type="line"/>
    </contour>
    <contour>
      <point x="680" y="1286" type="line"/>
      <point x="638" y="774" type="line"/>
      <point x="530" y="774" type="line"/>
      <point x="492" y="1286" type="line"/>
    </contour>
  </outline>
</glyph>
<glyph name="numbersign" format="2">
  <advance width="1032"/>
  <unicode hex="0023"/>
  <outline>
    <contour>
      <point x="648" y="564" type="line"/>
      <point x="408" y="564" type="line"/>
      <point x="378" y="324" type="line"/>
      <point x="618" y="324" type="line"/>
    </contour>
    <contour>
      <point x="920" y="222" type="line"/>
      <point x="708" y="222" type="line"/>
      <point x="672" y="-60" type="line"/>
      <point x="570" y="-60" type="line"/>
      <point x="606" y="222" type="line"/>
      <point x="366" y="222" type="line"/>
      <point x="330" y="-60" type="line"/>
      <point x="228" y="-60" type="line"/>
      <point x="264" y="222" type="line"/>
      <point x="110" y="222" type="line"/>
      <point x="110" y="324" type="line"/>
      <point x="276" y="324" type="line"/>
      <point x="306" y="564" type="line"/>
      <point x="110" y="564" type="line"/>
      <point x="110" y="666" type="line"/>
      <point x="320" y="666" type="line"/>
      <point x="360" y="978" type="line"/>
      <point x="462" y="978" type="line"/>
      <point x="422" y="666" type="line"/>
      <point x="662" y="666" type="line"/>
      <point x="702" y="978" type="line"/>
      <point x="804" y="978" type="line"/>
      <point x="764" y="666" type="line"/>
      <point x="920" y="666" type="line"/>
      <point x="920" y="564" type="line"/>
      <point x="750" y="564" type="line"/>
      <point x="720" y="324" type="line"/>
      <point x="920" y="324" type="line"/>
    </contour>
  </outline>
</glyph>
<glyph name="dollar" format="2">
  <advance width="996"/>
  <unicode hex="0024"/>
  <outline>
    <contour>
      <point x="752" y="332" type="curve" smooth="yes"/>
      <point x="752" y="524"/>
      <point x="666" y="534"/>
      <point x="546" y="564" type="curve"/>
      <point x="546" y="132" type="line"/>
      <point x="686" y="134"/>
      <point x="752" y="180"/>
    </contour>
    <contour>
      <point x="456" y="746" type="curve"/>
      <point x="456" y="1116" type="line"/>
      <point x="266" y="1116"/>
      <point x="258" y="1026"/>
      <point x="258" y="924" type="curve" smooth="yes"/>
      <point x="258" y="776"/>
      <point x="330" y="782"/>
    </contour>
    <contour>
      <point x="932" y="344" type="curve" smooth="yes"/>
      <point x="932" y="74"/>
      <point x="746" y="-12"/>
      <point x="546" y="-24" type="curve"/>
      <point x="546" y="-186" type="line"/>
      <point x="456" y="-186" type="line"/>
      <point x="456" y="-28" type="line"/>
      <point x="188" y="-28"/>
      <point x="62" y="134"/>
      <point x="62" y="372" type="curve"/>
      <point x="242" y="372" type="line"/>
      <point x="242" y="242"/>
      <point x="288" y="128"/>
      <point x="456" y="128" type="curve"/>
      <point x="456" y="572" type="line"/>
      <point x="252" y="624"/>
      <point x="78" y="666"/>
      <point x="78" y="930" type="curve" smooth="yes"/>
      <point x="78" y="1124"/>
      <point x="210" y="1272"/>
      <point x="456" y="1272" type="curve"/>
      <point x="456" y="1416" type="line"/>
      <point x="546" y="1416" type="line"/>
      <point x="546" y="1274" type="line"/>
      <point x="786" y="1274"/>
      <point x="882" y="1110"/>
      <point x="882" y="932" type="curve"/>
      <point x="702" y="932" type="line"/>
      <point x="702" y="1074"/>
      <point x="666" y="1116"/>
      <point x="546" y="1116" type="curve"/>
      <point x="546" y="726" type="line"/>
      <point x="668" y="698"/>
      <point x="932" y="678"/>
    </contour>
  </outline>
</glyph>
<glyph name="percent" format="2">
  <advance width="1248"/>
  <unicode hex="0025"/>
  <outline>
    <contour>
      <point x="1092" y="188" type="curve" smooth="yes"/>
      <point x="1092" y="270"/>
      <point x="1022" y="338"/>
      <point x="944" y="338" type="curve" smooth="yes"/>
      <point x="858" y="338"/>
      <point x="794" y="270"/>
      <point x="794" y="188" type="curve" smooth="yes"/>
      <point x="794" y="108"/>
      <point x="860" y="38"/>
      <point x="944" y="38" type="curve" smooth="yes"/>
      <point x="1022" y="38"/>
      <point x="1092" y="108"/>
    </contour>
    <contour>
      <point x="452" y="668" type="curve" smooth="yes"/>
      <point x="452" y="750"/>
      <point x="384" y="818"/>
      <point x="306" y="818" type="curve" smooth="yes"/>
      <point x="220" y="818"/>
      <point x="156" y="750"/>
      <point x="156" y="668" type="curve" smooth="yes"/>
      <point x="156" y="588"/>
      <point x="222" y="518"/>
      <point x="306" y="518" type="curve" smooth="yes"/>
      <point x="384" y="518"/>
      <point x="452" y="588"/>
    </contour>
    <contour>
      <point x="1190" y="188" type="curve" smooth="yes"/>
      <point x="1190" y="60"/>
      <point x="1076" y="-60"/>
      <point x="944" y="-60" type="curve" smooth="yes"/>
      <point x="810" y="-60"/>
      <point x="696" y="60"/>
      <point x="696" y="188" type="curve" smooth="yes"/>
      <point x="696" y="324"/>
      <point x="810" y="438"/>
      <point x="944" y="438" type="curve" smooth="yes"/>
      <point x="1076" y="438"/>
      <point x="1190" y="324"/>
    </contour>
    <contour>
      <point x="552" y="668" type="curve" smooth="yes"/>
      <point x="552" y="540"/>
      <point x="438" y="420"/>
      <point x="306" y="420" type="curve" smooth="yes"/>
      <point x="170" y="420"/>
      <point x="56" y="540"/>
      <point x="56" y="668" type="curve" smooth="yes"/>
      <point x="56" y="804"/>
      <point x="170" y="918"/>
      <point x="306" y="918" type="curve" smooth="yes"/>
      <point x="438" y="918"/>
      <point x="552" y="804"/>
    </contour>
    <contour>
      <point x="1038" y="926" type="line"/>
      <point x="288" y="-136" type="line"/>
      <point x="210" y="-70" type="line"/>
      <point x="954" y="990" type="line"/>
    </contour>
  </outline>
</glyph>
<glyph name="ampersand" format="2">
  <advance width="682"/>
  <unicode hex="0026"/>
  <outline>
    <contour>
      <point x="432" y="116" type="curve"/>
      <point x="363" y="178"/>
      <point x="295" y="253"/>
      <point x="235" y="324" type="curve"/>
      <point x="186" y="312"/>
      <point x="142" y="246"/>
      <point x="142" y="187" type="curve" smooth="yes"/>
      <point x="142" y="141"/>
      <point x="196" y="63"/>
      <point x="274" y="63" type="curve" smooth="yes"/>
      <point x="328" y="63"/>
      <point x="384" y="74"/>
    </contour>
    <contour>
      <point x="373" y="524" type="curve" smooth="yes"/>
      <point x="373" y="560"/>
      <point x="336" y="589"/>
      <point x="295" y="589" type="curve" smooth="yes"/>
      <point x="234" y="589"/>
      <point x="211" y="556"/>
      <point x="211" y="520" type="curve" smooth="yes"/>
      <point x="211" y="486"/>
      <point x="231" y="453"/>
      <point x="264" y="412" type="curve"/>
      <point x="325" y="437"/>
      <point x="373" y="482"/>
    </contour>
    <contour>
      <point x="675" y="0" type="curve"/>
      <point x="550" y="0" type="line"/>
      <point x="480" y="63" type="line"/>
      <point x="432" y="24"/>
      <point x="357" y="-12"/>
      <point x="271" y="-12" type="curve" smooth="yes"/>
      <point x="153" y="-12"/>
      <point x="52" y="66"/>
      <point x="52" y="184" type="curve" smooth="yes"/>
      <point x="52" y="293"/>
      <point x="118" y="341"/>
      <point x="193" y="375" type="curve"/>
      <point x="156" y="415"/>
      <point x="124" y="465"/>
      <point x="124" y="513" type="curve" smooth="yes"/>
      <point x="124" y="596"/>
      <point x="193" y="655"/>
      <point x="283" y="655" type="curve" smooth="yes"/>
      <point x="378" y="655"/>
      <point x="447" y="607"/>
      <point x="447" y="532" type="curve" smooth="yes"/>
      <point x="447" y="441"/>
      <point x="364" y="397"/>
      <point x="307" y="366" type="curve"/>
      <point x="360" y="300"/>
      <point x="416" y="243"/>
      <point x="475" y="184" type="curve"/>
      <point x="487" y="219"/>
      <point x="492" y="252"/>
      <point x="492" y="287" type="curve" smooth="yes"/>
      <point x="492" y="312"/>
      <point x="489" y="338"/>
      <point x="486" y="366" type="curve"/>
      <point x="579" y="366" type="line"/>
      <point x="579" y="276"/>
      <point x="570" y="204"/>
      <point x="531" y="129" type="curve"/>
      <point x="553" y="101"/>
      <point x="634" y="30"/>
    </contour>
  </outline>
</glyph>
<glyph name="quotesingle" format="2">
  <advance width="656"/>
  <unicode hex="0027"/>
  <outline>
    <contour>
      <point x="420" y="1286" type="line"/>
      <point x="380" y="774" type="line"/>
      <point x="272" y="774" type="line"/>
      <point x="234" y="1286" type="line"/>
    </contour>
  </outline>
</glyph>
<glyph name="parenleft" format="2">
  <advance width="792"/>
  <unicode hex="0028"/>
  <outline>
    <contour>
      <point x="680" y="-900" type="curve"/>
      <point x="578" y="-900" type="line"/>
      <point x="264" y="-512"/>
      <point x="150" y="-98"/>
      <point x="150" y="420" type="curve" smooth="yes"/>
      <point x="150" y="964"/>
      <point x="274" y="1384"/>
      <point x="578" y="1806" type="curve"/>
      <point x="680" y="1806" type="line"/>
      <point x="386" y="1406"/>
      <point x="252" y="1000"/>
      <point x="252" y="420" type="curve" smooth="yes"/>
      <point x="252" y="-82"/>
      <point x="376" y="-524"/>
    </contour>
  </outline>
</glyph>
<glyph name="parenright" format="2">
  <advance width="396"/>
  <unicode hex="0029"/>
  <outline>
    <contour>
      <point x="55" y="-438" type="curve"/>
      <point x="106" y="-438" type="line"/>
      <point x="264" y="-243"/>
      <point x="321" y="-38"/>
      <point x="321" y="222" type="curve" smooth="yes"/>
      <point x="321" y="494"/>
      <point x="258" y="704"/>
      <point x="106" y="915" type="curve"/>
      <point x="55" y="915" type="line"/>
      <point x="202" y="715"/>
      <point x="270" y="512"/>
      <point x="270" y="222" type="curve" smooth="yes"/>
      <point x="270" y="-27"/>
      <point x="207" y="-251"/>
    </contour>
  </outline>
</glyph>
<glyph name="asterisk" format="2">
  <advance width="1128"/>
  <unicode hex="002A"/>
  <outline>
    <contour>
      <point x="1018" y="716" type="line"/>
      <point x="958" y="616" type="line"/>
      <point x="622" y="814" type="line"/>
      <point x="622" y="422" type="line"/>
      <point x="510" y="422" type="line"/>
      <point x="510" y="814" type="line"/>
      <point x="168" y="616" type="line"/>
      <point x="110" y="716" type="line"/>
      <point x="452" y="912" type="line"/>
      <point x="110" y="1110" type="line"/>
      <point x="168" y="1204" type="line"/>
      <point x="504" y="1010" type="line"/>
      <point x="504" y="1402" type="line"/>
      <point x="622" y="1402" type="line"/>
      <point x="622" y="1012" type="line"/>
      <point x="958" y="1204" type="line"/>
      <point x="1018" y="1110" type="line"/>
      <point x="674" y="912" type="line"/>
    </contour>
  </outline>
</glyph>
<glyph name="plus" format="2">
  <advance width="1140"/>
  <unicode hex="002B"/>
  <outline>
    <contour>
      <point x="954" y="494" type="line"/>
      <point x="954" y="392" type="line"/>
      <point x="620" y="392" type="line"/>
      <point x="620" y="62" type="line"/>
      <point x="518" y="62" type="line"/>
      <point x="518" y="392" type="line"/>
      <point x="186" y="392" type="line"/>
      <point x="186" y="494" type="line"/>
      <point x="518" y="494" type="line"/>
      <point x="518" y="830" type="line"/>
      <point x="620" y="830" type="line"/>
      <point x="620" y="494" type="line"/>
    </contour>
  </outline>
</glyph>
<glyph name="comma" format="2">
  <advance width="231"/>
  <unicode hex="002C"/>
  <outline>
    <contour>
      <point x="88" y="-151" type="line"/>
      <point x="134" y="-134"/>
      <point x="191" y="-49"/>
      <point x="191" y="53" type="curve" smooth="yes"/>
      <point x="191" y="105"/>
      <point x="154" y="133"/>
      <point x="116" y="133" type="curve" smooth="yes"/>
      <point x="79" y="133"/>
      <point x="40" y="101"/>
      <point x="40" y="53" type="curve" smooth="yes"/>
      <point x="40" y="33"/>
      <point x="43" y="0"/>
      <point x="65" y="0" type="curve" smooth="yes"/>
      <point x="86" y="0"/>
      <point x="128" y="19"/>
      <point x="137" y="27" type="curve"/>
      <point x="139" y="21"/>
      <point x="140" y="16"/>
      <point x="140" y="-4" type="curve" smooth="yes"/>
      <point x="140" y="-63"/>
      <point x="114" y="-114"/>
      <point x="74" y="-142" type="curve"/>
    </contour>
  </outline>
</glyph>
<glyph name="hyphen" format="2">
  <advance width="495"/>
  <unicode hex="002D"/>
  <outline>
    <contour>
      <point x="439" y="247" type="line"/>
      <point x="439" y="196" type="line"/>
      <point x="55" y="196" type="line"/>
      <point x="55" y="247" type="line"/>
    </contour>
  </outline>
</glyph>
<glyph name="period" format="2">
  <advance width="199"/>
  <unicode hex="002E"/>
  <outline>
    <contour>
      <point x="159" y="42" type="curve" smooth="yes"/>
      <point x="159" y="10"/>
      <point x="131" y="-15"/>
      <point x="100" y="-15" type="curve" smooth="yes"/>
      <point x="69" y="-15"/>
      <point x="40" y="10"/>
      <point x="40" y="42" type="curve" smooth="yes"/>
      <point x="40" y="73"/>
      <point x="69" y="99"/>
      <point x="100" y="99" type="curve" smooth="yes"/>
      <point x="131" y="99"/>
      <point x="159" y="73"/>
    </contour>
  </outline>
</glyph>
<glyph name="slash" format="2">
  <advance width="990"/>
  <unicode hex="002F"/>
  <outline>
    <contour>
      <point x="878" y="1550" type="line"/>
      <point x="186" y="-424" type="line"/>
      <point x="110" y="-348" type="line"/>
      <point x="804" y="1626" type="line"/>
    </contour>
  </outline>
</glyph>
<glyph name="zero" format="2">
  <advance width="996"/>
  <unicode hex="0030"/>
  <outline>
    <contour>
      <point x="734" y="668" type="curve" smooth="yes"/>
      <point x="734" y="944"/>
      <point x="704" y="1160"/>
      <point x="498" y="1160" type="curve" smooth="yes"/>
      <point x="288" y="1160"/>
      <point x="260" y="944"/>
      <point x="260" y="668" type="curve" smooth="yes"/>
      <point x="260" y="390"/>
      <point x="288" y="122"/>
      <point x="498" y="122" type="curve" smooth="yes"/>
      <point x="704" y="122"/>
      <point x="734" y="390"/>
    </contour>
    <contour>
      <point x="906" y="668" type="curve" smooth="yes"/>
      <point x="906" y="366"/>
      <point x="864" y="-28"/>
      <point x="498" y="-28" type="curve" smooth="yes"/>
      <point x="132" y="-28"/>
      <point x="90" y="366"/>
      <point x="90" y="668" type="curve" smooth="yes"/>
      <point x="90" y="972"/>
      <point x="132" y="1310"/>
      <point x="498" y="1310" type="curve" smooth="yes"/>
      <point x="864" y="1310"/>
      <point x="906" y="972"/>
    </contour>
  </outline>
</glyph>
<glyph name="one" format="2">
  <advance width="996"/>
  <unicode hex="0031"/>
  <outline>
    <contour>
      <point x="674" y="0" type="line"/>
      <point x="510" y="0" type="line"/>
      <point x="510" y="1070" type="line"/>
      <point x="430" y="1000"/>
      <point x="332" y="948"/>
      <point x="230" y="924" type="curve"/>
      <point x="230" y="1070" type="line"/>
      <point x="342" y="1106"/>
      <point x="432" y="1188"/>
      <point x="494" y="1286" type="curve"/>
      <point x="674" y="1286" type="line"/>
    </contour>
  </outline>
</glyph>
<glyph name="two" format="2">
  <advance width="498"/>
  <unicode hex="0032"/>
  <outline>
    <contour>
      <point x="55" y="0" type="line"/>
      <point x="442" y="0" type="line"/>
      <point x="442" y="69" type="line"/>
      <point x="153" y="69" type="line"/>
      <point x="432" y="292"/>
      <point x="442" y="384"/>
      <point x="442" y="481" type="curve" smooth="yes"/>
      <point x="442" y="562"/>
      <point x="382" y="655"/>
      <point x="256" y="655" type="curve" smooth="yes"/>
      <point x="123" y="655"/>
      <point x="72" y="574"/>
      <point x="63" y="468" type="curve"/>
      <point x="154" y="468" type="line"/>
      <point x="163" y="546"/>
      <point x="193" y="580"/>
      <point x="256" y="580" type="curve" smooth="yes"/>
      <point x="328" y="580"/>
      <point x="352" y="543"/>
      <point x="352" y="468" type="curve" smooth="yes"/>
      <point x="352" y="406"/>
      <point x="352" y="309"/>
      <point x="55" y="82" type="curve"/>
    </contour>
  </outline>
</glyph>
<glyph name="three" format="2">
  <advance width="498"/>
  <unicode hex="0033"/>
  <outline>
    <contour>
      <point x="246" y="-14" type="curve" smooth="yes"/>
      <point x="369" y="-14"/>
      <point x="456" y="67"/>
      <point x="456" y="171" type="curve" smooth="yes"/>
      <point x="456" y="275"/>
      <point x="425" y="308"/>
      <point x="379" y="337" type="curve"/>
      <point x="417" y="363"/>
      <point x="447" y="399"/>
      <point x="447" y="486" type="curve" smooth="yes"/>
      <point x="447" y="580"/>
      <point x="366" y="655"/>
      <point x="243" y="655" type="curve" smooth="yes"/>
      <point x="133" y="655"/>
      <point x="69" y="591"/>
      <point x="54" y="475" type="curve"/>
      <point x="144" y="475" type="line"/>
      <point x="156" y="547"/>
      <point x="189" y="586"/>
      <point x="246" y="586" type="curve" smooth="yes"/>
      <point x="289" y="586"/>
      <point x="357" y="567"/>
      <point x="357" y="492" type="curve" smooth="yes"/>
      <point x="357" y="403"/>
      <point x="327" y="370"/>
      <point x="237" y="370" type="curve"/>
      <point x="237" y="300" type="line"/>
      <point x="330" y="300"/>
      <point x="367" y="265"/>
      <point x="367" y="165" type="curve" smooth="yes"/>
      <point x="367" y="106"/>
      <point x="307" y="55"/>
      <point x="247" y="55" type="curve" smooth="yes"/>
      <point x="165" y="55"/>
      <point x="141" y="115"/>
      <point x="135" y="169" type="curve"/>
      <point x="40" y="169" type="line"/>
      <point x="40" y="81"/>
      <point x="100" y="-14"/>
    </contour>
  </outline>
</glyph>
<glyph name="four" format="2">
  <advance width="498"/>
  <unicode hex="0034"/>
  <outline>
    <contour>
      <point x="309" y="231" type="line"/>
      <point x="309" y="544" type="line"/>
      <point x="97" y="231" type="line"/>
    </contour>
    <contour>
      <point x="471" y="156" type="line"/>
      <point x="391" y="156" type="line"/>
      <point x="391" y="0" type="line"/>
      <point x="309" y="0" type="line"/>
      <point x="309" y="156" type="line"/>
      <point x="25" y="156" type="line"/>
      <point x="25" y="249" type="line"/>
      <point x="294" y="643" type="line"/>
      <point x="391" y="643" type="line"/>
      <point x="391" y="231" type="line"/>
      <point x="471" y="231" type="line"/>
    </contour>
  </outline>
</glyph>
<glyph name="five" format="2">
  <advance width="996"/>
  <unicode hex="0035"/>
  <outline>
    <contour>
      <point x="900" y="420" type="curve" smooth="yes"/>
      <point x="900" y="216"/>
      <point x="734" y="-24"/>
      <point x="516" y="-24" type="curve" smooth="yes"/>
      <point x="252" y="-24"/>
      <point x="92" y="102"/>
      <point x="92" y="312" type="curve"/>
      <point x="282" y="312" type="line"/>
      <point x="282" y="180"/>
      <point x="372" y="116"/>
      <point x="494" y="116" type="curve" smooth="yes"/>
      <point x="606" y="116"/>
      <point x="720" y="218"/>
      <point x="720" y="416" type="curve" smooth="yes"/>
      <point x="720" y="600"/>
      <point x="668" y="722"/>
      <point x="512" y="722" type="curve" smooth="yes"/>
      <point x="392" y="722"/>
      <point x="320" y="638"/>
      <point x="272" y="536" type="curve"/>
      <point x="114" y="536" type="line"/>
      <point x="138" y="1286" type="line"/>
      <point x="818" y="1286" type="line"/>
      <point x="818" y="1136" type="line"/>
      <point x="312" y="1136" type="line"/>
      <point x="290" y="734" type="line"/>
      <point x="354" y="812"/>
      <point x="414" y="854"/>
      <point x="548" y="854" type="curve" smooth="yes"/>
      <point x="776" y="854"/>
      <point x="900" y="650"/>
    </contour>
  </outline>
</glyph>
<glyph name="six" format="2">
  <advance width="996"/>
  <unicode hex="0036"/>
  <outline>
    <contour>
      <point x="732" y="384" type="curve" smooth="yes"/>
      <point x="732" y="558"/>
      <point x="668" y="656"/>
      <point x="506" y="656" type="curve" smooth="yes"/>
      <point x="342" y="656"/>
      <point x="278" y="558"/>
      <point x="278" y="384" type="curve" smooth="yes"/>
      <point x="278" y="210"/>
      <point x="342" y="110"/>
      <point x="506" y="110" type="curve" smooth="yes"/>
      <point x="668" y="110"/>
      <point x="732" y="210"/>
    </contour>
    <contour>
      <point x="912" y="384" type="curve" smooth="yes"/>
      <point x="912" y="228"/>
      <point x="840" y="-28"/>
      <point x="512" y="-28" type="curve" smooth="yes"/>
      <point x="120" y="-28"/>
      <point x="84" y="198"/>
      <point x="84" y="612" type="curve" smooth="yes"/>
      <point x="84" y="942"/>
      <point x="146" y="1310"/>
      <point x="518" y="1310" type="curve" smooth="yes"/>
      <point x="752" y="1310"/>
      <point x="846" y="1200"/>
      <point x="876" y="980" type="curve"/>
      <point x="704" y="980" type="line"/>
      <point x="692" y="1128"/>
      <point x="624" y="1172"/>
      <point x="516" y="1172" type="curve" smooth="yes"/>
      <point x="272" y="1172"/>
      <point x="258" y="798"/>
      <point x="258" y="630" type="curve"/>
      <point x="310" y="720"/>
      <point x="382" y="792"/>
      <point x="530" y="792" type="curve" smooth="yes"/>
      <point x="864" y="792"/>
      <point x="912" y="530"/>
    </contour>
  </outline>
</glyph>
<glyph name="seven" format="2">
  <advance width="498"/>
  <unicode hex="0037"/>
  <outline>
    <contour>
      <point x="447" y="553" type="line"/>
      <point x="237" y="0" type="line"/>
      <point x="139" y="0" type="line"/>
      <point x="367" y="571" type="line"/>
      <point x="51" y="571" type="line"/>
      <point x="51" y="643" type="line"/>
      <point x="447" y="643" type="line"/>
    </contour>
  </outline>
</glyph>
<glyph name="eight" format="2">
  <advance width="996"/>
  <unicode hex="0038"/>
  <outline>
    <contour>
      <point x="746" y="366" type="curve" smooth="yes"/>
      <point x="746" y="510"/>
      <point x="660" y="612"/>
      <point x="498" y="612" type="curve" smooth="yes"/>
      <point x="342" y="612"/>
      <point x="246" y="510"/>
      <point x="246" y="366" type="curve" smooth="yes"/>
      <point x="246" y="222"/>
      <point x="320" y="114"/>
      <point x="498" y="114" type="curve" smooth="yes"/>
      <point x="680" y="114"/>
      <point x="746" y="222"/>
    </contour>
    <contour>
      <point x="720" y="960" type="curve" smooth="yes"/>
      <point x="720" y="1092"/>
      <point x="638" y="1172"/>
      <point x="498" y="1172" type="curve" smooth="yes"/>
      <point x="360" y="1172"/>
      <point x="278" y="1092"/>
      <point x="278" y="960" type="curve" smooth="yes"/>
      <point x="278" y="830"/>
      <point x="380" y="746"/>
      <point x="498" y="746" type="curve" smooth="yes"/>
      <point x="618" y="746"/>
      <point x="720" y="830"/>
    </contour>
    <contour>
      <point x="920" y="330" type="curve" smooth="yes"/>
      <point x="920" y="66"/>
      <point x="686" y="-24"/>
      <point x="498" y="-24" type="curve" smooth="yes"/>
      <point x="314" y="-24"/>
      <point x="78" y="66"/>
      <point x="78" y="330" type="curve" smooth="yes"/>
      <point x="78" y="530"/>
      <point x="212" y="632"/>
      <point x="320" y="680" type="curve"/>
      <point x="226" y="726"/>
      <point x="114" y="822"/>
      <point x="114" y="996" type="curve" smooth="yes"/>
      <point x="114" y="1212"/>
      <point x="320" y="1310"/>
      <point x="498" y="1310" type="curve" smooth="yes"/>
      <point x="680" y="1310"/>
      <point x="884" y="1212"/>
      <point x="884" y="996" type="curve" smooth="yes"/>
      <point x="884" y="836"/>
      <point x="774" y="722"/>
      <point x="672" y="680" type="curve"/>
      <point x="768" y="644"/>
      <point x="920" y="530"/>
    </contour>
  </outline>
</glyph>
<glyph name="nine" format="2">
  <advance width="498"/>
  <unicode hex="0039"/>
  <outline>
    <contour>
      <point x="238" y="-14" type="curve" smooth="yes"/>
      <point x="423" y="-14"/>
      <point x="456" y="171"/>
      <point x="456" y="337" type="curve" smooth="yes"/>
      <point x="456" y="543"/>
      <point x="438" y="655"/>
      <point x="241" y="655" type="curve" smooth="yes"/>
      <point x="78" y="655"/>
      <point x="42" y="529"/>
      <point x="42" y="450" type="curve" smooth="yes"/>
      <point x="42" y="376"/>
      <point x="64" y="246"/>
      <point x="231" y="246" type="curve" smooth="yes"/>
      <point x="300" y="246"/>
      <point x="336" y="274"/>
      <point x="369" y="328" type="curve"/>
      <point x="369" y="236"/>
      <point x="357" y="55"/>
      <point x="240" y="55" type="curve" smooth="yes"/>
      <point x="186" y="55"/>
      <point x="150" y="78"/>
      <point x="145" y="153" type="curve"/>
      <point x="58" y="153" type="line"/>
      <point x="73" y="43"/>
      <point x="121" y="-14"/>
    </contour>
    <contour>
      <point x="244" y="313" type="curve" smooth="yes"/>
      <point x="162" y="313"/>
      <point x="132" y="363"/>
      <point x="132" y="450" type="curve" smooth="yes"/>
      <point x="132" y="537"/>
      <point x="162" y="586"/>
      <point x="244" y="586" type="curve" smooth="yes"/>
      <point x="327" y="586"/>
      <point x="357" y="537"/>
      <point x="357" y="450" type="curve" smooth="yes"/>
      <point x="357" y="363"/>
      <point x="327" y="313"/>
    </contour>
  </outline>
</glyph>
<glyph name="colon" format="2">
  <advance width="398"/>
  <unicode hex="003A"/>
  <outline>
    <contour>
      <point x="318" y="86" type="curve" smooth="yes"/>
      <point x="318" y="24"/>
      <point x="262" y="-30"/>
      <point x="200" y="-30" type="curve" smooth="yes"/>
      <point x="138" y="-30"/>
      <point x="80" y="24"/>
      <point x="80" y="86" type="curve" smooth="yes"/>
      <point x="80" y="150"/>
      <point x="138" y="200"/>
      <point x="200" y="200" type="curve" smooth="yes"/>
      <point x="262" y="200"/>
      <point x="318" y="150"/>
    </contour>
    <contour>
      <point x="318" y="800" type="curve" smooth="yes"/>
      <point x="318" y="738"/>
      <point x="262" y="686"/>
      <point x="200" y="686" type="curve" smooth="yes"/>
      <point x="138" y="686"/>
      <point x="80" y="738"/>
      <point x="80" y="800" type="curve" smooth="yes"/>
      <point x="80" y="864"/>
      <point x="138" y="918"/>
      <point x="200" y="918" type="curve" smooth="yes"/>
      <point x="262" y="918"/>
      <point x="318" y="864"/>
    </contour>
  </outline>
</glyph>
<glyph name="semicolon" format="2">
  <advance width="414"/>
  <unicode hex="003B"/>
  <outline>
    <contour>
      <point x="320" y="66" type="curve" smooth="yes"/>
      <point x="320" y="-66"/>
      <point x="234" y="-170"/>
      <point x="180" y="-202" type="curve"/>
      <point x="164" y="-190" type="line"/>
      <point x="218" y="-152"/>
      <point x="248" y="-88"/>
      <point x="248" y="12" type="curve" smooth="yes"/>
      <point x="248" y="20"/>
      <point x="248" y="28"/>
      <point x="246" y="36" type="curve"/>
      <point x="204" y="14"/>
      <point x="146" y="-4"/>
      <point x="122" y="-4" type="curve" smooth="yes"/>
      <point x="96" y="-4"/>
      <point x="80" y="38"/>
      <point x="80" y="80" type="curve" smooth="yes"/>
      <point x="80" y="144"/>
      <point x="138" y="198"/>
      <point x="194" y="198" type="curve" smooth="yes"/>
      <point x="258" y="198"/>
      <point x="320" y="144"/>
    </contour>
    <contour>
      <point x="318" y="804" type="curve" smooth="yes"/>
      <point x="318" y="740"/>
      <point x="262" y="686"/>
      <point x="200" y="686" type="curve" smooth="yes"/>
      <point x="138" y="686"/>
      <point x="80" y="740"/>
      <point x="80" y="804" type="curve" smooth="yes"/>
      <point x="80" y="866"/>
      <point x="138" y="918"/>
      <point x="200" y="918" type="curve" smooth="yes"/>
      <point x="262" y="918"/>
      <point x="318" y="866"/>
    </contour>
  </outline>
</glyph>
<glyph name="less" format="2">
  <advance width="1782"/>
  <unicode hex="003C"/>
  <outline>
    <contour>
      <point x="1424" y="180" type="line"/>
      <point x="1424" y="68" type="line"/>
      <point x="356" y="476" type="line"/>
      <point x="356" y="590" type="line"/>
      <point x="1424" y="998" type="line"/>
      <point x="1424" y="888" type="line"/>
      <point x="470" y="534" type="line"/>
    </contour>
  </outline>
</glyph>
<glyph name="equal" format="2">
  <advance width="1152"/>
  <unicode hex="003D"/>
  <outline>
    <contour>
      <point x="1040" y="666" type="line"/>
      <point x="1040" y="564" type="line"/>
      <point x="110" y="564" type="line"/>
      <point x="110" y="666" type="line"/>
    </contour>
    <contour>
      <point x="1040" y="324" type="line"/>
      <point x="1040" y="222" type="line"/>
      <point x="110" y="222" type="line"/>
      <point x="110" y="324" type="line"/>
    </contour>
  </outline>
</glyph>
<glyph name="greater" format="2">
  <advance width="891"/>
  <unicode hex="003E"/>
  <outline>
    <contour>
      <point x="178" y="34" type="line"/>
      <point x="712" y="238" type="line"/>
      <point x="712" y="295" type="line"/>
      <point x="178" y="499" type="line"/>
      <point x="178" y="444" type="line"/>
      <point x="655" y="267" type="line"/>
      <point x="178" y="90" type="line"/>
    </contour>
  </outline>
</glyph>
<glyph name="question" format="2">
  <advance width="446"/>
  <unicode hex="003F"/>
  <outline>
    <contour>
      <point x="187" y="200" type="line"/>
      <point x="238" y="200" type="line"/>
      <point x="238" y="345" type="line" smooth="yes"/>
      <point x="238" y="458"/>
      <point x="391" y="440"/>
      <point x="391" y="590" type="curve" smooth="yes"/>
      <point x="391" y="685"/>
      <point x="321" y="773"/>
      <point x="213" y="773" type="curve" smooth="yes"/>
      <point x="78" y="773"/>
      <point x="35" y="637"/>
      <point x="35" y="600" type="curve" smooth="yes"/>
      <point x="35" y="548" type="line"/>
      <point x="86" y="548" type="line"/>
      <point x="86" y="600" type="line" smooth="yes"/>
      <point x="86" y="629"/>
      <point x="129" y="722"/>
      <point x="213" y="722" type="curve" smooth="yes"/>
      <point x="282" y="722"/>
      <point x="340" y="654"/>
      <point x="340" y="590" type="curve" smooth="yes"/>
      <point x="340" y="483"/>
      <point x="187" y="489"/>
      <point x="187" y="359" type="curve" smooth="yes"/>
    </contour>
    <contour>
      <point x="213" y="0" type="curve" smooth="yes"/>
      <point x="238" y="0"/>
      <point x="268" y="19"/>
      <point x="268" y="55" type="curve" smooth="yes"/>
      <point x="268" y="93"/>
      <point x="238" y="111"/>
      <point x="213" y="111" type="curve" smooth="yes"/>
      <point x="187" y="111"/>
      <point x="158" y="93"/>
      <point x="158" y="55" type="curve" smooth="yes"/>
      <point x="158" y="19"/>
      <point x="187" y="0"/>
    </contour>
  </outline>
</glyph>
<glyph name="at" format="2">
  <advance width="891"/>
  <unicode hex="0040"/>
  <outline>
    <contour>
      <point x="462" y="-159" type="curve" smooth="yes"/>
      <point x="519" y="-159"/>
      <point x="541" y="-158"/>
      <point x="606" y="-135" type="curve"/>
      <point x="606" y="-62" type="line"/>
      <point x="546" y="-78"/>
      <point x="523" y="-78"/>
      <point x="454" y="-78" type="curve" smooth="yes"/>
      <point x="243" y="-78"/>
      <point x="138" y="51"/>
      <point x="138" y="259" type="curve" smooth="yes"/>
      <point x="138" y="487"/>
      <point x="309" y="558"/>
      <point x="444" y="558" type="curve" smooth="yes"/>
      <point x="628" y="558"/>
      <point x="751" y="483"/>
      <point x="751" y="265" type="curve" smooth="yes"/>
      <point x="751" y="134"/>
      <point x="696" y="96"/>
      <point x="664" y="96" type="curve" smooth="yes"/>
      <point x="645" y="96"/>
      <point x="612" y="98"/>
      <point x="612" y="132" type="curve" smooth="yes"/>
      <point x="612" y="432" type="line"/>
      <point x="531" y="432" type="line"/>
      <point x="531" y="379" type="line"/>
      <point x="494" y="426"/>
      <point x="462" y="438"/>
      <point x="406" y="438" type="curve" smooth="yes"/>
      <point x="316" y="438"/>
      <point x="247" y="360"/>
      <point x="247" y="231" type="curve" smooth="yes"/>
      <point x="247" y="112"/>
      <point x="316" y="22"/>
      <point x="406" y="22" type="curve" smooth="yes"/>
      <point x="475" y="22"/>
      <point x="511" y="51"/>
      <point x="540" y="103" type="curve"/>
      <point x="564" y="49"/>
      <point x="601" y="18"/>
      <point x="657" y="18" type="curve" smooth="yes"/>
      <point x="760" y="18"/>
      <point x="837" y="135"/>
      <point x="837" y="265" type="curve" smooth="yes"/>
      <point x="837" y="510"/>
      <point x="678" y="637"/>
      <point x="438" y="637" type="curve" smooth="yes"/>
      <point x="243" y="637"/>
      <point x="52" y="499"/>
      <point x="52" y="258" type="curve" smooth="yes"/>
      <point x="52" y="-68"/>
      <point x="262" y="-159"/>
    </contour>
    <contour>
      <point x="430" y="84" type="curve" smooth="yes"/>
      <point x="351" y="84"/>
      <point x="333" y="162"/>
      <point x="333" y="237" type="curve" smooth="yes"/>
      <point x="333" y="309"/>
      <point x="360" y="376"/>
      <point x="430" y="376" type="curve" smooth="yes"/>
      <point x="498" y="376"/>
      <point x="528" y="312"/>
      <point x="528" y="237" type="curve" smooth="yes"/>
      <point x="528" y="160"/>
      <point x="496" y="84"/>
    </contour>
  </outline>
</glyph>
<glyph name="A" format="2">
  <advance width="1334"/>
  <unicode hex="0041"/>
  <outline>
    <contour>
      <point x="906" y="494" type="line"/>
      <point x="660" y="1086" type="line"/>
      <point x="420" y="494" type="line"/>
    </contour>
    <contour>
      <point x="1308" y="0" type="line"/>
      <point x="1122" y="0" type="line"/>
      <point x="980" y="342" type="line"/>
      <point x="350" y="342" type="line"/>
      <point x="210" y="0" type="line"/>
      <point x="26" y="0" type="line"/>
      <point x="564" y="1286" type="line"/>
      <point x="762" y="1286" type="line"/>
    </contour>
  </outline>
</glyph>
<glyph name="B" format="2">
  <advance width="600"/>
  <unicode hex="0042"/>
  <outline>
    <contour>
      <point x="72" y="0" type="line"/>
      <point x="352" y="0" type="line" smooth="yes"/>
      <point x="454" y="0"/>
      <point x="546" y="75"/>
      <point x="546" y="178" type="curve" smooth="yes"/>
      <point x="546" y="263"/>
      <point x="482" y="324"/>
      <point x="412" y="343" type="curve"/>
      <point x="467" y="358"/>
      <point x="523" y="412"/>
      <point x="523" y="484" type="curve" smooth="yes"/>
      <point x="523" y="594"/>
      <point x="433" y="643"/>
      <point x="330" y="643" type="curve" smooth="yes"/>
      <point x="72" y="643" type="line"/>
    </contour>
    <contour>
      <point x="160" y="78" type="line"/>
      <point x="160" y="300" type="line"/>
      <point x="297" y="300" type="line" smooth="yes"/>
      <point x="403" y="300"/>
      <point x="459" y="259"/>
      <point x="459" y="189" type="curve" smooth="yes"/>
      <point x="459" y="123"/>
      <point x="394" y="78"/>
      <point x="301" y="78" type="curve" smooth="yes"/>
    </contour>
    <contour>
      <point x="160" y="373" type="line"/>
      <point x="160" y="565" type="line"/>
      <point x="303" y="565" type="line" smooth="yes"/>
      <point x="409" y="565"/>
      <point x="439" y="525"/>
      <point x="439" y="471" type="curve" smooth="yes"/>
      <point x="439" y="417"/>
      <point x="408" y="373"/>
      <point x="301" y="373" type="curve" smooth="yes"/>
    </contour>
  </outline>
</glyph>
<glyph name="C" format="2">
  <advance width="606"/>
  <unicode hex="0043"/>
  <outline>
    <contour>
      <point x="552" y="171" type="line"/>
      <point x="552" y="69"/>
      <point x="466" y="-14"/>
      <point x="318" y="-14" type="curve" smooth="yes"/>
      <point x="118" y="-14"/>
      <point x="52" y="142"/>
      <point x="52" y="316" type="curve" smooth="yes"/>
      <point x="52" y="490"/>
      <point x="117" y="655"/>
      <point x="319" y="655" type="curve" smooth="yes"/>
      <point x="481" y="655"/>
      <point x="549" y="571"/>
      <point x="549" y="471" type="curve"/>
      <point x="459" y="471" type="line"/>
      <point x="459" y="546"/>
      <point x="420" y="585"/>
      <point x="319" y="585" type="curve" smooth="yes"/>
      <point x="204" y="585"/>
      <point x="144" y="499"/>
      <point x="144" y="316" type="curve" smooth="yes"/>
      <point x="144" y="123"/>
      <point x="208" y="58"/>
      <point x="316" y="58" type="curve" smooth="yes"/>
      <point x="399" y="58"/>
      <point x="462" y="88"/>
      <point x="462" y="171" type="curve"/>
    </contour>
  </outline>
</glyph>
<glyph name="D" format="2">
  <advance width="640"/>
  <unicode hex="0044"/>
  <outline>
    <contour>
      <point x="499" y="322" type="curve" smooth="yes"/>
      <point x="499" y="480"/>
      <point x="412" y="565"/>
      <point x="273" y="565" type="curve" smooth="yes"/>
      <point x="160" y="565" type="line"/>
      <point x="160" y="78" type="line"/>
      <point x="273" y="78" type="line" smooth="yes"/>
      <point x="412" y="78"/>
      <point x="499" y="166"/>
    </contour>
    <contour>
      <point x="588" y="322" type="curve" smooth="yes"/>
      <point x="588" y="166"/>
      <point x="514" y="0"/>
      <point x="271" y="0" type="curve" smooth="yes"/>
      <point x="72" y="0" type="line"/>
      <point x="72" y="643" type="line"/>
      <point x="271" y="643" type="line" smooth="yes"/>
      <point x="514" y="643"/>
      <point x="588" y="486"/>
    </contour>
  </outline>
</glyph>
<glyph name="E" format="2">
  <advance width="1080"/>
  <unicode hex="0045"/>
  <outline>
    <contour>
      <point x="956" y="0" type="line"/>
      <point x="144" y="0" type="line"/>
      <point x="144" y="1286" type="line"/>
      <point x="938" y="1286" type="line"/>
      <point x="938" y="1130" type="line"/>
      <point x="320" y="1130" type="line"/>
      <point x="320" y="734" type="line"/>
      <point x="920" y="734" type="line"/>
      <point x="920" y="582" type="line"/>
      <point x="320" y="582" type="line"/>
      <point x="320" y="156" type="line"/>
      <point x="956" y="156" type="line"/>
    </contour>
  </outline>
</glyph>
<glyph name="F" format="2">
  <advance width="1014"/>
  <unicode hex="0046"/>
  <outline>
    <contour>
      <point x="854" y="582" type="line"/>
      <point x="320" y="582" type="line"/>
      <point x="320" y="0" type="line"/>
      <point x="144" y="0" type="line"/>
      <point x="144" y="1286" type="line"/>
      <point x="890" y="1286" type="line"/>
      <point x="890" y="1130" type="line"/>
      <point x="320" y="1130" type="line"/>
      <point x="320" y="734" type="line"/>
      <point x="854" y="734" type="line"/>
    </contour>
  </outline>
</glyph>
<glyph name="G" format="2">
  <advance width="1356"/>
  <unicode hex="0047"/>
  <outline>
    <contour>
      <point x="1212" y="62" type="line"/>
      <point x="1052" y="6"/>
      <point x="852" y="-28"/>
      <point x="744" y="-28" type="curve" smooth="yes"/>
      <point x="198" y="-28"/>
      <point x="104" y="368"/>
      <point x="104" y="692" type="curve" smooth="yes"/>
      <point x="104" y="1038"/>
      <point x="342" y="1310"/>
      <point x="728" y="1310" type="curve" smooth="yes"/>
      <point x="1068" y="1310"/>
      <point x="1220" y="1104"/>
      <point x="1220" y="966" type="curve"/>
      <point x="1040" y="966" type="line"/>
      <point x="1040" y="1040"/>
      <point x="924" y="1154"/>
      <point x="744" y="1154" type="curve" smooth="yes"/>
      <point x="420" y="1154"/>
      <point x="290" y="954"/>
      <point x="290" y="690" type="curve" smooth="yes"/>
      <point x="290" y="402"/>
      <point x="396" y="132"/>
      <point x="722" y="132" type="curve" smooth="yes"/>
      <point x="828" y="132"/>
      <point x="942" y="146"/>
      <point x="1034" y="174" type="curve"/>
      <point x="1034" y="530" type="line"/>
      <point x="740" y="530" type="line"/>
      <point x="740" y="686" type="line"/>
      <point x="1212" y="686" type="line"/>
    </contour>
  </outline>
</glyph>
<glyph name="H" format="2">
  <advance width="631"/>
  <unicode hex="0048"/>
  <outline>
    <contour>
      <point x="72" y="0" type="line"/>
      <point x="160" y="0" type="line"/>
      <point x="160" y="291" type="line"/>
      <point x="469" y="291" type="line"/>
      <point x="469" y="0" type="line"/>
      <point x="561" y="0" type="line"/>
      <point x="561" y="643" type="line"/>
      <point x="469" y="643" type="line"/>
      <point x="469" y="367" type="line"/>
      <point x="160" y="367" type="line"/>
      <point x="160" y="643" type="line"/>
      <point x="72" y="643" type="line"/>
    </contour>
  </outline>
</glyph>
<glyph name="I" format="2">
  <advance width="464"/>
  <unicode hex="0049"/>
  <outline>
    <contour>
      <point x="320" y="0" type="line"/>
      <point x="144" y="0" type="line"/>
      <point x="144" y="1286" type="line"/>
      <point x="320" y="1286" type="line"/>
    </contour>
  </outline>
</glyph>
<glyph name="J" format="2">
  <advance width="1014"/>
  <unicode hex="004A"/>
  <outline>
    <contour>
      <point x="870" y="384" type="line" smooth="yes"/>
      <point x="870" y="138"/>
      <point x="708" y="-28"/>
      <point x="476" y="-28" type="curve" smooth="yes"/>
      <point x="252" y="-28"/>
      <point x="104" y="128"/>
      <point x="104" y="344" type="curve"/>
      <point x="282" y="344" type="line"/>
      <point x="284" y="176"/>
      <point x="378" y="132"/>
      <point x="486" y="132" type="curve" smooth="yes"/>
      <point x="594" y="132"/>
      <point x="690" y="212"/>
      <point x="690" y="384" type="curve" smooth="yes"/>
      <point x="690" y="1286" type="line"/>
      <point x="870" y="1286" type="line"/>
    </contour>
  </outline>
</glyph>
<glyph name="K" format="2">
  <advance width="1184"/>
  <unicode hex="004B"/>
  <outline>
    <contour>
      <point x="1140" y="0" type="line"/>
      <point x="900" y="0" type="line"/>
      <point x="320" y="678" type="line"/>
      <point x="320" y="0" type="line"/>
      <point x="144" y="0" type="line"/>
      <point x="144" y="1286" type="line"/>
      <point x="320" y="1286" type="line"/>
      <point x="320" y="738" type="line"/>
      <point x="852" y="1286" type="line"/>
      <point x="1074" y="1286" type="line"/>
      <point x="528" y="732" type="line"/>
    </contour>
  </outline>
</glyph>
<glyph name="L" format="2">
  <advance width="942"/>
  <unicode hex="004C"/>
  <outline>
    <contour>
      <point x="890" y="0" type="line"/>
      <point x="144" y="0" type="line"/>
      <point x="144" y="1286" type="line"/>
      <point x="320" y="1286" type="line"/>
      <point x="320" y="156" type="line"/>
      <point x="890" y="156" type="line"/>
    </contour>
  </outline>
</glyph>
<glyph name="M" format="2">
  <advance width="1598"/>
  <unicode hex="004D"/>
  <outline>
    <contour>
      <point x="1454" y="0" type="line"/>
      <point x="1278" y="0" type="line"/>
      <point x="1278" y="1116" type="line"/>
      <point x="866" y="0" type="line"/>
      <point x="726" y="0" type="line"/>
      <point x="320" y="1106" type="line"/>
      <point x="320" y="0" type="line"/>
      <point x="144" y="0" type="line"/>
      <point x="144" y="1286" type="line"/>
      <point x="426" y="1286" type="line"/>
      <point x="798" y="248" type="line"/>
      <point x="1172" y="1286" type="line"/>
      <point x="1454" y="1286" type="line"/>
    </contour>
  </outline>
</glyph>
<glyph name="N" format="2">
  <advance width="1286"/>
  <unicode hex="004E"/>
  <outline>
    <contour>
      <point x="1146" y="0" type="line"/>
      <point x="888" y="0" type="line"/>
      <point x="320" y="1052" type="line"/>
      <point x="320" y="0" type="line"/>
      <point x="144" y="0" type="line"/>
      <point x="144" y="1286" type="line"/>
      <point x="396" y="1286" type="line"/>
      <point x="966" y="230" type="line"/>
      <point x="966" y="1286" type="line"/>
      <point x="1146" y="1286" type="line"/>
    </contour>
  </outline>
</glyph>
<glyph name="O" format="2">
  <advance width="1376"/>
  <unicode hex="004F"/>
  <outline>
    <contour>
      <point x="1086" y="668" type="curve" smooth="yes"/>
      <point x="1086" y="938"/>
      <point x="1002" y="1154"/>
      <point x="690" y="1154" type="curve" smooth="yes"/>
      <point x="378" y="1154"/>
      <point x="290" y="938"/>
      <point x="290" y="668" type="curve" smooth="yes"/>
      <point x="290" y="398"/>
      <point x="378" y="132"/>
      <point x="690" y="132" type="curve" smooth="yes"/>
      <point x="1002" y="132"/>
      <point x="1086" y="398"/>
    </contour>
    <contour>
      <point x="1272" y="668" type="curve" smooth="yes"/>
      <point x="1272" y="300"/>
      <point x="1086" y="-28"/>
      <point x="690" y="-28" type="curve" smooth="yes"/>
      <point x="296" y="-28"/>
      <point x="104" y="300"/>
      <point x="104" y="668" type="curve" smooth="yes"/>
      <point x="104" y="1034"/>
      <point x="296" y="1310"/>
      <point x="690" y="1310" type="curve" smooth="yes"/>
      <point x="1086" y="1310"/>
      <point x="1272" y="1034"/>
    </contour>
  </outline>
</glyph>
<glyph name="P" format="2">
  <advance width="555"/>
  <unicode hex="0050"/>
  <outline>
    <contour>
      <point x="72" y="0" type="line"/>
      <point x="160" y="0" type="line"/>
      <point x="160" y="273" type="line"/>
      <point x="253" y="273" type="line" smooth="yes"/>
      <point x="376" y="273"/>
      <point x="501" y="295"/>
      <point x="501" y="457" type="curve" smooth="yes"/>
      <point x="501" y="619"/>
      <point x="376" y="643"/>
      <point x="253" y="643" type="curve" smooth="yes"/>
      <point x="72" y="643" type="line"/>
    </contour>
    <contour>
      <point x="160" y="351" type="line"/>
      <point x="160" y="565" type="line"/>
      <point x="256" y="565" type="line" smooth="yes"/>
      <point x="363" y="565"/>
      <point x="415" y="537"/>
      <point x="415" y="457" type="curve" smooth="yes"/>
      <point x="415" y="378"/>
      <point x="363" y="351"/>
      <point x="256" y="351" type="curve" smooth="yes"/>
    </contour>
  </outline>
</glyph>
<glyph name="Q" format="2">
  <advance width="1398"/>
  <unicode hex="0051"/>
  <outline>
    <contour>
      <point x="1086" y="668" type="curve" smooth="yes"/>
      <point x="1086" y="938"/>
      <point x="1002" y="1154"/>
      <point x="690" y="1154" type="curve" smooth="yes"/>
      <point x="378" y="1154"/>
      <point x="290" y="938"/>
      <point x="290" y="668" type="curve" smooth="yes"/>
      <point x="290" y="398"/>
      <point x="378" y="132"/>
      <point x="690" y="132" type="curve" smooth="yes"/>
      <point x="1002" y="132"/>
      <point x="1086" y="398"/>
    </contour>
    <contour>
      <point x="1344" y="0" type="line"/>
      <point x="860" y="0" type="line"/>
      <point x="792" y="-18"/>
      <point x="744" y="-28"/>
      <point x="690" y="-28" type="curve" smooth="yes"/>
      <point x="294" y="-28"/>
      <point x="104" y="302"/>
      <point x="104" y="668" type="curve" smooth="yes"/>
      <point x="104" y="1034"/>
      <point x="294" y="1310"/>
      <point x="690" y="1310" type="curve" smooth="yes"/>
      <point x="1086" y="1310"/>
      <point x="1272" y="1034"/>
      <point x="1272" y="668" type="curve" smooth="yes"/>
      <point x="1272" y="446"/>
      <point x="1206" y="236"/>
      <point x="1080" y="122" type="curve"/>
      <point x="1344" y="122" type="line"/>
    </contour>
  </outline>
</glyph>
<glyph name="R" format="2">
  <advance width="561"/>
  <unicode hex="0052"/>
  <outline>
    <contour>
      <point x="417" y="466" type="curve" smooth="yes"/>
      <point x="417" y="543"/>
      <point x="360" y="565"/>
      <point x="273" y="565" type="curve" smooth="yes"/>
      <point x="160" y="565" type="line"/>
      <point x="160" y="369" type="line"/>
      <point x="273" y="369" type="line" smooth="yes"/>
      <point x="360" y="369"/>
      <point x="417" y="393"/>
    </contour>
    <contour>
      <point x="523" y="0" type="curve"/>
      <point x="432" y="0" type="line"/>
      <point x="412" y="88"/>
      <point x="415" y="94"/>
      <point x="402" y="154" type="curve" smooth="yes"/>
      <point x="373" y="288"/>
      <point x="358" y="292"/>
      <point x="238" y="292" type="curve" smooth="yes"/>
      <point x="160" y="292" type="line"/>
      <point x="160" y="0" type="line"/>
      <point x="72" y="0" type="line"/>
      <point x="72" y="643" type="line"/>
      <point x="274" y="643" type="line" smooth="yes"/>
      <point x="426" y="643"/>
      <point x="507" y="598"/>
      <point x="507" y="466" type="curve" smooth="yes"/>
      <point x="507" y="402"/>
      <point x="450" y="358"/>
      <point x="387" y="328" type="curve"/>
      <point x="424" y="320"/>
      <point x="452" y="302"/>
      <point x="469" y="259" type="curve" smooth="yes"/>
      <point x="488" y="210"/>
      <point x="484" y="108"/>
    </contour>
  </outline>
</glyph>
<glyph name="S" format="2">
  <advance width="1178"/>
  <unicode hex="0053"/>
  <outline>
    <contour>
      <point x="1070" y="356" type="curve" smooth="yes"/>
      <point x="1070" y="56"/>
      <point x="780" y="-28"/>
      <point x="530" y="-28" type="curve" smooth="yes"/>
      <point x="288" y="-28"/>
      <point x="104" y="132"/>
      <point x="104" y="384" type="curve"/>
      <point x="288" y="384" type="line"/>
      <point x="288" y="246"/>
      <point x="386" y="132"/>
      <point x="528" y="132" type="curve" smooth="yes"/>
      <point x="674" y="132"/>
      <point x="894" y="146"/>
      <point x="894" y="342" type="curve" smooth="yes"/>
      <point x="894" y="752"/>
      <point x="122" y="408"/>
      <point x="122" y="960" type="curve" smooth="yes"/>
      <point x="122" y="1184"/>
      <point x="362" y="1310"/>
      <point x="560" y="1310" type="curve" smooth="yes"/>
      <point x="788" y="1310"/>
      <point x="1020" y="1224"/>
      <point x="1020" y="962" type="curve"/>
      <point x="840" y="962" type="line"/>
      <point x="840" y="1136"/>
      <point x="692" y="1154"/>
      <point x="552" y="1154" type="curve" smooth="yes"/>
      <point x="410" y="1154"/>
      <point x="302" y="1106"/>
      <point x="302" y="954" type="curve" smooth="yes"/>
      <point x="302" y="620"/>
      <point x="1070" y="882"/>
    </contour>
  </outline>
</glyph>
<glyph name="T" format="2">
  <advance width="546"/>
  <unicode hex="0054"/>
  <outline>
    <contour>
      <point x="528" y="565" type="line"/>
      <point x="318" y="565" type="line"/>
      <point x="318" y="0" type="line"/>
      <point x="228" y="0" type="line"/>
      <point x="228" y="565" type="line"/>
      <point x="18" y="565" type="line"/>
      <point x="18" y="643" type="line"/>
      <point x="528" y="643" type="line"/>
    </contour>
  </outline>
</glyph>
<glyph name="U" format="2">
  <advance width="655"/>
  <unicode hex="0055"/>
  <outline>
    <contour>
      <point x="585" y="286" type="line" smooth="yes"/>
      <point x="585" y="72"/>
      <point x="507" y="-14"/>
      <point x="328" y="-14" type="curve" smooth="yes"/>
      <point x="148" y="-14"/>
      <point x="72" y="72"/>
      <point x="72" y="286" type="curve" smooth="yes"/>
      <point x="72" y="643" type="line"/>
      <point x="160" y="643" type="line"/>
      <point x="160" y="286" type="line" smooth="yes"/>
      <point x="160" y="93"/>
      <point x="238" y="66"/>
      <point x="328" y="66" type="curve" smooth="yes"/>
      <point x="415" y="66"/>
      <point x="495" y="91"/>
      <point x="495" y="286" type="curve" smooth="yes"/>
      <point x="495" y="643" type="line"/>
      <point x="585" y="643" type="line"/>
    </contour>
  </outline>
</glyph>
<glyph name="V" format="2">
  <advance width="1164"/>
  <unicode hex="0056"/>
  <outline>
    <contour>
      <point x="1136" y="1286" type="line"/>
      <point x="680" y="0" type="line"/>
      <point x="482" y="0" type="line"/>
      <point x="26" y="1286" type="line"/>
      <point x="228" y="1286" type="line"/>
      <point x="582" y="230" type="line"/>
      <point x="936" y="1286" type="line"/>
    </contour>
  </outline>
</glyph>
<glyph name="W" format="2">
  <advance width="1730"/>
  <unicode hex="0057"/>
  <outline>
    <contour>
      <point x="1704" y="1286" type="line"/>
      <point x="1322" y="0" type="line"/>
      <point x="1160" y="0" type="line"/>
      <point x="864" y="1070" type="line"/>
      <point x="566" y="0" type="line"/>
      <point x="408" y="0" type="line"/>
      <point x="26" y="1286" type="line"/>
      <point x="216" y="1286" type="line"/>
      <point x="486" y="266" type="line"/>
      <point x="758" y="1286" type="line"/>
      <point x="972" y="1286" type="line"/>
      <point x="1244" y="266" type="line"/>
      <point x="1514" y="1286" type="line"/>
    </contour>
  </outline>
</glyph>
<glyph name="X" format="2">
  <advance width="1254"/>
  <unicode hex="0058"/>
  <outline>
    <contour>
      <point x="1208" y="0" type="line"/>
      <point x="980" y="0" type="line"/>
      <point x="614" y="558" type="line"/>
      <point x="254" y="0" type="line"/>
      <point x="42" y="0" type="line"/>
      <point x="516" y="686" type="line"/>
      <point x="104" y="1286" type="line"/>
      <point x="332" y="1286" type="line"/>
      <point x="638" y="812" type="line"/>
      <point x="936" y="1286" type="line"/>
      <point x="1146" y="1286" type="line"/>
      <point x="734" y="686" type="line"/>
    </contour>
  </outline>
</glyph>
<glyph name="Y" format="2">
  <advance width="1188"/>
  <unicode hex="0059"/>
  <outline>
    <contour>
      <point x="1158" y="1286" type="line"/>
      <point x="680" y="512" type="line"/>
      <point x="680" y="0" type="line"/>
      <point x="504" y="0" type="line"/>
      <point x="504" y="512" type="line"/>
      <point x="26" y="1286" type="line"/>
      <point x="246" y="1286" type="line"/>
      <point x="602" y="668" type="line"/>
      <point x="956" y="1286" type="line"/>
    </contour>
  </outline>
</glyph>
<glyph name="Z" format="2">
  <advance width="1098"/>
  <unicode hex="005A"/>
  <outline>
    <contour>
      <point x="1016" y="0" type="line"/>
      <point x="80" y="0" type="line"/>
      <point x="80" y="194" type="line"/>
      <point x="804" y="1130" type="line"/>
      <point x="114" y="1130" type="line"/>
      <point x="114" y="1286" type="line"/>
      <point x="998" y="1286" type="line"/>
      <point x="998" y="1088" type="line"/>
      <point x="276" y="156" type="line"/>
      <point x="1016" y="156" type="line"/>
    </contour>
  </outline>
</glyph>
<glyph name="bracketleft" format="2">
  <advance width="704"/>
  <unicode hex="005B"/>
  <outline>
    <contour>
      <point x="518" y="-354" type="line"/>
      <point x="188" y="-354" type="line"/>
      <point x="188" y="1286" type="line"/>
      <point x="518" y="1286" type="line"/>
      <point x="518" y="1194" type="line"/>
      <point x="342" y="1194" type="line"/>
      <point x="342" y="-264" type="line"/>
      <point x="518" y="-264" type="line"/>
    </contour>
  </outline>
</glyph>
<glyph name="backslash" format="2">
  <advance width="990"/>
  <unicode hex="005C"/>
  <outline>
    <contour>
      <point x="878" y="-348" type="line"/>
      <point x="804" y="-424" type="line"/>
      <point x="110" y="1550" type="line"/>
      <point x="186" y="1626" type="line"/>
    </contour>
  </outline>
</glyph>
<glyph name="bracketright" format="2">
  <advance width="704"/>
  <unicode hex="005D"/>
  <outline>
    <contour>
      <point x="518" y="-354" type="line"/>
      <point x="188" y="-354" type="line"/>
      <point x="188" y="-264" type="line"/>
      <point x="366" y="-264" type="line"/>
      <point x="366" y="1194" type="line"/>
      <point x="188" y="1194" type="line"/>
      <point x="188" y="1286" type="line"/>
      <point x="518" y="1286" type="line"/>
    </contour>
  </outline>
</glyph>
<glyph name="asciicircum" format="2">
  <advance width="453"/>
  <unicode hex="005E"/>
  <anchor x="226" y="495" name="_U"/>
  <anchor x="226" y="495" name="UM"/>
  <outline>
    <contour>
      <point x="453" y="640" type="line"/>
      <point x="426" y="613" type="line"/>
      <point x="226" y="811" type="line"/>
      <point x="27" y="613" type="line"/>
      <point x="0" y="640" type="line"/>
      <point x="226" y="867" type="line"/>
    </contour>
  </outline>
</glyph>
<glyph name="underscore" format="2">
  <advance width="1152"/>
  <unicode hex="005F"/>
  <outline>
    <contour>
      <point x="1152" y="-274" type="line"/>
      <point x="0" y="-274" type="line"/>
      <point x="0" y="-172" type="line"/>
      <point x="1152" y="-172" type="line"/>
    </contour>
  </outline>
</glyph>
<glyph name="grave" format="2">
  <advance width="204"/>
  <unicode hex="0060"/>
  <outline>
    <contour>
      <point x="156" y="534" type="line"/>
      <point x="102" y="534" type="line"/>
      <point x="-23" y="687" type="line"/>
      <point x="67" y="687" type="line"/>
    </contour>
  </outline>
</glyph>
<glyph name="a" format="2">
  <advance width="984"/>
  <unicode hex="0061"/>
  <outline>
    <contour>
      <point x="690" y="438" type="curve"/>
      <point x="670" y="440"/>
      <point x="624" y="444"/>
      <point x="600" y="444" type="curve" smooth="yes"/>
      <point x="482" y="444"/>
      <point x="252" y="408"/>
      <point x="252" y="254" type="curve" smooth="yes"/>
      <point x="252" y="156"/>
      <point x="332" y="96"/>
      <point x="428" y="96" type="curve" smooth="yes"/>
      <point x="650" y="96"/>
      <point x="690" y="252"/>
    </contour>
    <contour>
      <point x="878" y="0" type="curve"/>
      <point x="720" y="0" type="line"/>
      <point x="710" y="46"/>
      <point x="704" y="82"/>
      <point x="698" y="128" type="curve"/>
      <point x="616" y="24"/>
      <point x="546" y="-24"/>
      <point x="428" y="-24" type="curve" smooth="yes"/>
      <point x="276" y="-24"/>
      <point x="86" y="60"/>
      <point x="86" y="234" type="curve" smooth="yes"/>
      <point x="86" y="504"/>
      <point x="360" y="560"/>
      <point x="570" y="560" type="curve" smooth="yes"/>
      <point x="692" y="560" type="line"/>
      <point x="692" y="722"/>
      <point x="660" y="792"/>
      <point x="498" y="792" type="curve" smooth="yes"/>
      <point x="408" y="792"/>
      <point x="300" y="756"/>
      <point x="300" y="650" type="curve"/>
      <point x="134" y="650" type="line"/>
      <point x="134" y="860"/>
      <point x="316" y="912"/>
      <point x="492" y="912" type="curve" smooth="yes"/>
      <point x="612" y="912"/>
      <point x="788" y="894"/>
      <point x="836" y="762" type="curve" smooth="yes"/>
      <point x="852" y="722"/>
      <point x="854" y="618"/>
      <point x="854" y="542" type="curve" smooth="yes"/>
      <point x="854" y="250" type="line" smooth="yes"/>
      <point x="854" y="168"/>
      <point x="858" y="50"/>
    </contour>
  </outline>
</glyph>
<glyph name="b" format="2">
  <advance width="1050"/>
  <unicode hex="0062"/>
  <outline>
    <contour>
      <point x="788" y="464" type="curve" smooth="yes"/>
      <point x="788" y="642"/>
      <point x="726" y="810"/>
      <point x="540" y="810" type="curve" smooth="yes"/>
      <point x="362" y="810"/>
      <point x="282" y="636"/>
      <point x="282" y="464" type="curve" smooth="yes"/>
      <point x="282" y="224"/>
      <point x="368" y="96"/>
      <point x="536" y="96" type="curve" smooth="yes"/>
      <point x="678" y="96"/>
      <point x="788" y="234"/>
    </contour>
    <contour>
      <point x="962" y="482" type="curve" smooth="yes"/>
      <point x="962" y="152"/>
      <point x="764" y="-24"/>
      <point x="584" y="-24" type="curve" smooth="yes"/>
      <point x="444" y="-24"/>
      <point x="346" y="38"/>
      <point x="284" y="104" type="curve"/>
      <point x="284" y="0" type="line"/>
      <point x="122" y="0" type="line"/>
      <point x="122" y="1286" type="line"/>
      <point x="278" y="1286" type="line"/>
      <point x="278" y="768" type="line"/>
      <point x="324" y="834"/>
      <point x="410" y="912"/>
      <point x="582" y="912" type="curve" smooth="yes"/>
      <point x="876" y="912"/>
      <point x="962" y="644"/>
    </contour>
  </outline>
</glyph>
<glyph name="c" format="2">
  <advance width="926"/>
  <unicode hex="0063"/>
  <outline>
    <contour>
      <point x="482" y="-24" type="curve" smooth="yes"/>
      <point x="750" y="-24"/>
      <point x="840" y="138"/>
      <point x="840" y="300" type="curve"/>
      <point x="786" y="300"/>
      <point x="734" y="300"/>
      <point x="680" y="300" type="curve"/>
      <point x="680" y="222"/>
      <point x="636" y="96"/>
      <point x="482" y="96" type="curve" smooth="yes"/>
      <point x="332" y="96"/>
      <point x="248" y="188"/>
      <point x="248" y="444" type="curve" smooth="yes"/>
      <point x="248" y="702"/>
      <point x="338" y="782"/>
      <point x="472" y="792" type="curve" smooth="yes"/>
      <point x="616" y="802"/>
      <point x="672" y="728"/>
      <point x="672" y="612" type="curve"/>
      <point x="724" y="612"/>
      <point x="778" y="612"/>
      <point x="830" y="612" type="curve"/>
      <point x="830" y="800"/>
      <point x="714" y="920"/>
      <point x="484" y="912" type="curve" smooth="yes"/>
      <point x="198" y="902"/>
      <point x="90" y="756"/>
      <point x="90" y="444" type="curve" smooth="yes"/>
      <point x="90" y="134"/>
      <point x="216" y="-24"/>
    </contour>
  </outline>
</glyph>
<glyph name="d" format="2">
  <advance width="1052"/>
  <unicode hex="0064"/>
  <outline>
    <contour>
      <point x="762" y="438" type="curve" smooth="yes"/>
      <point x="762" y="632"/>
      <point x="648" y="806"/>
      <point x="486" y="806" type="curve" smooth="yes"/>
      <point x="314" y="806"/>
      <point x="252" y="612"/>
      <point x="252" y="450" type="curve" smooth="yes"/>
      <point x="252" y="264"/>
      <point x="354" y="104"/>
      <point x="510" y="104" type="curve" smooth="yes"/>
      <point x="686" y="104"/>
      <point x="762" y="288"/>
    </contour>
    <contour>
      <point x="926" y="0" type="line"/>
      <point x="768" y="0" type="line"/>
      <point x="768" y="102" type="line"/>
      <point x="718" y="44"/>
      <point x="622" y="-24"/>
      <point x="504" y="-24" type="curve" smooth="yes"/>
      <point x="296" y="-24"/>
      <point x="90" y="168"/>
      <point x="90" y="428" type="curve" smooth="yes"/>
      <point x="90" y="644"/>
      <point x="182" y="912"/>
      <point x="458" y="912" type="curve" smooth="yes"/>
      <point x="586" y="912"/>
      <point x="700" y="868"/>
      <point x="768" y="774" type="curve"/>
      <point x="768" y="1286" type="line"/>
      <point x="926" y="1286" type="line"/>
    </contour>
  </outline>
</glyph>
<glyph name="e" format="2">
  <advance width="992"/>
  <unicode hex="0065"/>
  <outline>
    <contour>
      <point x="726" y="536" type="line"/>
      <point x="728" y="550"/>
      <point x="728" y="562"/>
      <point x="728" y="576" type="curve" smooth="yes"/>
      <point x="728" y="692"/>
      <point x="670" y="800"/>
      <point x="498" y="800" type="curve" smooth="yes"/>
      <point x="324" y="800"/>
      <point x="276" y="638"/>
      <point x="260" y="536" type="curve"/>
    </contour>
    <contour>
      <point x="896" y="284" type="line"/>
      <point x="870" y="138"/>
      <point x="758" y="-24"/>
      <point x="494" y="-24" type="curve" smooth="yes"/>
      <point x="198" y="-24"/>
      <point x="90" y="240"/>
      <point x="90" y="444" type="curve" smooth="yes"/>
      <point x="90" y="666"/>
      <point x="192" y="912"/>
      <point x="506" y="912" type="curve" smooth="yes"/>
      <point x="854" y="912"/>
      <point x="902" y="644"/>
      <point x="902" y="504" type="curve" smooth="yes"/>
      <point x="902" y="478"/>
      <point x="900" y="446"/>
      <point x="896" y="420" type="curve"/>
      <point x="260" y="420" type="line"/>
      <point x="260" y="236"/>
      <point x="326" y="92"/>
      <point x="498" y="92" type="curve" smooth="yes"/>
      <point x="662" y="92"/>
      <point x="714" y="206"/>
      <point x="726" y="284" type="curve"/>
    </contour>
  </outline>
</glyph>
<glyph name="f" format="2">
  <advance width="588"/>
  <unicode hex="0066"/>
  <outline>
    <contour>
      <point x="588" y="1154" type="line"/>
      <point x="560" y="1166"/>
      <point x="530" y="1176"/>
      <point x="492" y="1176" type="curve" smooth="yes"/>
      <point x="396" y="1176"/>
      <point x="356" y="1134"/>
      <point x="356" y="1020" type="curve" smooth="yes"/>
      <point x="356" y="890" type="line"/>
      <point x="570" y="890" type="line"/>
      <point x="570" y="774" type="line"/>
      <point x="356" y="774" type="line"/>
      <point x="356" y="0" type="line"/>
      <point x="194" y="0" type="line"/>
      <point x="194" y="774" type="line"/>
      <point x="18" y="774" type="line"/>
      <point x="18" y="890" type="line"/>
      <point x="194" y="890" type="line"/>
      <point x="194" y="1026" type="line" smooth="yes"/>
      <point x="194" y="1246"/>
      <point x="292" y="1302"/>
      <point x="460" y="1302" type="curve" smooth="yes"/>
      <point x="502" y="1302"/>
      <point x="544" y="1298"/>
      <point x="588" y="1286" type="curve"/>
    </contour>
  </outline>
</glyph>
<glyph name="g" format="2">
  <advance width="1050"/>
  <unicode hex="0067"/>
  <outline>
    <contour>
      <point x="762" y="470" type="curve" smooth="yes"/>
      <point x="762" y="660"/>
      <point x="686" y="800"/>
      <point x="494" y="800" type="curve" smooth="yes"/>
      <point x="308" y="800"/>
      <point x="254" y="654"/>
      <point x="254" y="474" type="curve" smooth="yes"/>
      <point x="254" y="272"/>
      <point x="338" y="138"/>
      <point x="504" y="138" type="curve" smooth="yes"/>
      <point x="692" y="138"/>
      <point x="762" y="300"/>
    </contour>
    <contour>
      <point x="926" y="50" type="line" smooth="yes"/>
      <point x="926" y="-180"/>
      <point x="776" y="-354"/>
      <point x="492" y="-354" type="curve" smooth="yes"/>
      <point x="198" y="-354"/>
      <point x="134" y="-156"/>
      <point x="134" y="-72" type="curve"/>
      <point x="300" y="-72" type="line"/>
      <point x="300" y="-192"/>
      <point x="414" y="-244"/>
      <point x="522" y="-244" type="curve" smooth="yes"/>
      <point x="686" y="-244"/>
      <point x="764" y="-144"/>
      <point x="764" y="164" type="curve"/>
      <point x="716" y="78"/>
      <point x="592" y="24"/>
      <point x="482" y="24" type="curve" smooth="yes"/>
      <point x="242" y="24"/>
      <point x="90" y="166"/>
      <point x="90" y="474" type="curve" smooth="yes"/>
      <point x="90" y="726"/>
      <point x="242" y="912"/>
      <point x="464" y="912" type="curve" smooth="yes"/>
      <point x="620" y="912"/>
      <point x="714" y="880"/>
      <point x="764" y="792" type="curve"/>
      <point x="764" y="890" type="line"/>
      <point x="926" y="890" type="line"/>
    </contour>
  </outline>
</glyph>
<glyph name="h" format="2">
  <advance width="510"/>
  <unicode hex="0068"/>
  <outline>
    <contour>
      <point x="448" y="0" type="line"/>
      <point x="367" y="0" type="line"/>
      <point x="367" y="280" type="line" smooth="yes"/>
      <point x="367" y="364"/>
      <point x="323" y="399"/>
      <point x="274" y="399" type="curve" smooth="yes"/>
      <point x="189" y="399"/>
      <point x="142" y="343"/>
      <point x="142" y="303" type="curve" smooth="yes"/>
      <point x="142" y="0" type="line"/>
      <point x="61" y="0" type="line"/>
      <point x="61" y="643" type="line"/>
      <point x="142" y="643" type="line"/>
      <point x="142" y="388" type="line"/>
      <point x="170" y="427"/>
      <point x="213" y="456"/>
      <point x="282" y="456" type="curve" smooth="yes"/>
      <point x="400" y="456"/>
      <point x="448" y="400"/>
      <point x="448" y="276" type="curve" smooth="yes"/>
    </contour>
  </outline>
</glyph>
<glyph name="i" format="2">
  <advance width="204"/>
  <unicode hex="0069"/>
  <outline>
    <contour>
      <point x="61" y="0" type="line"/>
      <point x="142" y="0" type="line"/>
      <point x="142" y="445" type="line"/>
      <point x="61" y="445" type="line"/>
    </contour>
    <contour>
      <point x="58" y="561" type="line"/>
      <point x="145" y="561" type="line"/>
      <point x="145" y="643" type="line"/>
      <point x="58" y="643" type="line"/>
    </contour>
  </outline>
</glyph>
<glyph name="j" format="2">
  <advance width="512"/>
  <unicode hex="006A"/>
  <outline>
    <contour>
      <point x="386" y="-144" type="line" smooth="yes"/>
      <point x="386" y="-256"/>
      <point x="342" y="-376"/>
      <point x="180" y="-376" type="curve" smooth="yes"/>
      <point x="110" y="-376"/>
      <point x="6" y="-342"/>
      <point x="-54" y="-282" type="curve"/>
      <point x="48" y="-180" type="line"/>
      <point x="74" y="-214"/>
      <point x="116" y="-234"/>
      <point x="156" y="-234" type="curve" smooth="yes"/>
      <point x="212" y="-234"/>
      <point x="224" y="-184"/>
      <point x="224" y="-90" type="curve" smooth="yes"/>
      <point x="224" y="890" type="line"/>
      <point x="386" y="890" type="line"/>
    </contour>
    <contour>
      <point x="390" y="1122" type="line"/>
      <point x="222" y="1122" type="line"/>
      <point x="222" y="1286" type="line"/>
      <point x="390" y="1286" type="line"/>
    </contour>
  </outline>
</glyph>
<glyph name="k" format="2">
  <advance width="444"/>
  <unicode hex="006B"/>
  <outline>
    <contour>
      <point x="61" y="0" type="line"/>
      <point x="142" y="0" type="line"/>
      <point x="142" y="237" type="line"/>
      <point x="319" y="0" type="line"/>
      <point x="426" y="0" type="line"/>
      <point x="234" y="252" type="line"/>
      <point x="412" y="445" type="line"/>
      <point x="312" y="445" type="line"/>
      <point x="142" y="259" type="line"/>
      <point x="142" y="643" type="line"/>
      <point x="61" y="643" type="line"/>
    </contour>
  </outline>
</glyph>
<glyph name="l" format="2">
  <advance width="408"/>
  <unicode hex="006C"/>
  <outline>
    <contour>
      <point x="284" y="0" type="line"/>
      <point x="122" y="0" type="line"/>
      <point x="122" y="1286" type="line"/>
      <point x="284" y="1286" type="line"/>
    </contour>
  </outline>
</glyph>
<glyph name="m" format="2">
  <advance width="1596"/>
  <unicode hex="006D"/>
  <outline>
    <contour>
      <point x="1472" y="0" type="line"/>
      <point x="1310" y="0" type="line"/>
      <point x="1310" y="576" type="line" smooth="yes"/>
      <point x="1310" y="710"/>
      <point x="1248" y="800"/>
      <point x="1110" y="800" type="curve" smooth="yes"/>
      <point x="980" y="800"/>
      <point x="882" y="672"/>
      <point x="882" y="576" type="curve" smooth="yes"/>
      <point x="882" y="0" type="line"/>
      <point x="720" y="0" type="line"/>
      <point x="720" y="576" type="line" smooth="yes"/>
      <point x="720" y="690"/>
      <point x="644" y="800"/>
      <point x="524" y="800" type="curve" smooth="yes"/>
      <point x="384" y="800"/>
      <point x="284" y="668"/>
      <point x="284" y="576" type="curve" smooth="yes"/>
      <point x="284" y="0" type="line"/>
      <point x="122" y="0" type="line"/>
      <point x="122" y="890" type="line"/>
      <point x="284" y="890" type="line"/>
      <point x="284" y="768" type="line"/>
      <point x="348" y="854"/>
      <point x="432" y="912"/>
      <point x="548" y="912" type="curve" smooth="yes"/>
      <point x="720" y="912"/>
      <point x="788" y="860"/>
      <point x="852" y="756" type="curve"/>
      <point x="932" y="866"/>
      <point x="1028" y="912"/>
      <point x="1140" y="912" type="curve" smooth="yes"/>
      <point x="1430" y="912"/>
      <point x="1472" y="720"/>
      <point x="1472" y="576" type="curve" smooth="yes"/>
    </contour>
  </outline>
</glyph>
<glyph name="n" format="2">
  <advance width="1022"/>
  <unicode hex="006E"/>
  <outline>
    <contour>
      <point x="896" y="0" type="line"/>
      <point x="738" y="0" type="line"/>
      <point x="738" y="590" type="line" smooth="yes"/>
      <point x="738" y="710"/>
      <point x="636" y="806"/>
      <point x="518" y="806" type="curve" smooth="yes"/>
      <point x="392" y="806"/>
      <point x="284" y="710"/>
      <point x="284" y="576" type="curve" smooth="yes"/>
      <point x="284" y="0" type="line"/>
      <point x="122" y="0" type="line"/>
      <point x="122" y="890" type="line"/>
      <point x="284" y="890" type="line"/>
      <point x="284" y="776" type="line"/>
      <point x="336" y="850"/>
      <point x="410" y="912"/>
      <point x="554" y="912" type="curve" smooth="yes"/>
      <point x="810" y="912"/>
      <point x="896" y="774"/>
      <point x="896" y="584" type="curve" smooth="yes"/>
    </contour>
  </outline>
</glyph>
<glyph name="o" format="2">
  <advance width="526"/>
  <unicode hex="006F"/>
  <outline>
    <contour>
      <point x="399" y="222" type="curve" smooth="yes"/>
      <point x="399" y="306"/>
      <point x="357" y="400"/>
      <point x="264" y="400" type="curve" smooth="yes"/>
      <point x="168" y="400"/>
      <point x="127" y="306"/>
      <point x="127" y="222" type="curve" smooth="yes"/>
      <point x="127" y="138"/>
      <point x="168" y="46"/>
      <point x="264" y="46" type="curve" smooth="yes"/>
      <point x="357" y="46"/>
      <point x="399" y="138"/>
    </contour>
    <contour>
      <point x="483" y="222" type="curve" smooth="yes"/>
      <point x="483" y="63"/>
      <point x="384" y="-12"/>
      <point x="264" y="-12" type="curve" smooth="yes"/>
      <point x="142" y="-12"/>
      <point x="45" y="63"/>
      <point x="45" y="222" type="curve" smooth="yes"/>
      <point x="45" y="382"/>
      <point x="142" y="456"/>
      <point x="264" y="456" type="curve" smooth="yes"/>
      <point x="384" y="456"/>
      <point x="483" y="382"/>
    </contour>
  </outline>
</glyph>
<glyph name="p" format="2">
  <advance width="1068"/>
  <unicode hex="0070"/>
  <outline>
    <contour>
      <point x="806" y="444" type="curve" smooth="yes"/>
      <point x="806" y="626"/>
      <point x="732" y="800"/>
      <point x="546" y="800" type="curve" smooth="yes"/>
      <point x="356" y="800"/>
      <point x="284" y="626"/>
      <point x="284" y="444" type="curve" smooth="yes"/>
      <point x="284" y="260"/>
      <point x="356" y="90"/>
      <point x="546" y="90" type="curve" smooth="yes"/>
      <point x="732" y="90"/>
      <point x="806" y="260"/>
    </contour>
    <contour>
      <point x="978" y="444" type="curve" smooth="yes"/>
      <point x="978" y="182"/>
      <point x="866" y="-28"/>
      <point x="564" y="-28" type="curve" smooth="yes"/>
      <point x="446" y="-28"/>
      <point x="360" y="32"/>
      <point x="284" y="92" type="curve"/>
      <point x="284" y="-354" type="line"/>
      <point x="122" y="-354" type="line"/>
      <point x="122" y="890" type="line"/>
      <point x="284" y="890" type="line"/>
      <point x="284" y="776" type="line"/>
      <point x="368" y="854"/>
      <point x="446" y="912"/>
      <point x="564" y="912" type="curve" smooth="yes"/>
      <point x="866" y="912"/>
      <point x="978" y="704"/>
    </contour>
  </outline>
</glyph>
<glyph name="q" format="2">
  <advance width="1068"/>
  <unicode hex="0071"/>
  <outline>
    <contour>
      <point x="782" y="444" type="curve" smooth="yes"/>
      <point x="782" y="626"/>
      <point x="708" y="800"/>
      <point x="522" y="800" type="curve" smooth="yes"/>
      <point x="332" y="800"/>
      <point x="258" y="626"/>
      <point x="258" y="444" type="curve" smooth="yes"/>
      <point x="258" y="260"/>
      <point x="332" y="90"/>
      <point x="522" y="90" type="curve" smooth="yes"/>
      <point x="708" y="90"/>
      <point x="782" y="260"/>
    </contour>
    <contour>
      <point x="942" y="-354" type="line"/>
      <point x="780" y="-354" type="line"/>
      <point x="780" y="92" type="line"/>
      <point x="704" y="32"/>
      <point x="618" y="-28"/>
      <point x="498" y="-28" type="curve" smooth="yes"/>
      <point x="198" y="-28"/>
      <point x="90" y="182"/>
      <point x="90" y="444" type="curve" smooth="yes"/>
      <point x="90" y="704"/>
      <point x="198" y="912"/>
      <point x="498" y="912" type="curve" smooth="yes"/>
      <point x="618" y="912"/>
      <point x="698" y="854"/>
      <point x="780" y="776" type="curve"/>
      <point x="780" y="890" type="line"/>
      <point x="942" y="890" type="line"/>
    </contour>
  </outline>
</glyph>
<glyph name="r" format="2">
  <advance width="322"/>
  <unicode hex="0072"/>
  <outline>
    <contour>
      <point x="61" y="0" type="line"/>
      <point x="142" y="0" type="line"/>
      <point x="142" y="249" type="line" smooth="yes"/>
      <point x="142" y="325"/>
      <point x="190" y="373"/>
      <point x="306" y="373" type="curve"/>
      <point x="306" y="445" type="line"/>
      <point x="192" y="445"/>
      <point x="165" y="423"/>
      <point x="142" y="384" type="curve"/>
      <point x="142" y="445" type="line"/>
      <point x="61" y="445" type="line"/>
    </contour>
  </outline>
</glyph>
<glyph name="s" format="2">
  <advance width="896"/>
  <unicode hex="0073"/>
  <outline>
    <contour>
      <point x="806" y="260" type="curve" smooth="yes"/>
      <point x="806" y="42"/>
      <point x="608" y="-24"/>
      <point x="416" y="-24" type="curve" smooth="yes"/>
      <point x="236" y="-24"/>
      <point x="90" y="50"/>
      <point x="90" y="258" type="curve"/>
      <point x="252" y="258" type="line"/>
      <point x="254" y="134"/>
      <point x="332" y="92"/>
      <point x="438" y="92" type="curve" smooth="yes"/>
      <point x="536" y="92"/>
      <point x="642" y="144"/>
      <point x="642" y="248" type="curve" smooth="yes"/>
      <point x="642" y="474"/>
      <point x="110" y="284"/>
      <point x="110" y="668" type="curve" smooth="yes"/>
      <point x="110" y="786"/>
      <point x="188" y="912"/>
      <point x="444" y="912" type="curve" smooth="yes"/>
      <point x="632" y="912"/>
      <point x="780" y="866"/>
      <point x="780" y="650" type="curve"/>
      <point x="618" y="650" type="line"/>
      <point x="618" y="714"/>
      <point x="594" y="800"/>
      <point x="440" y="800" type="curve" smooth="yes"/>
      <point x="350" y="800"/>
      <point x="272" y="746"/>
      <point x="272" y="668" type="curve" smooth="yes"/>
      <point x="272" y="440"/>
      <point x="806" y="614"/>
    </contour>
  </outline>
</glyph>
<glyph name="t" format="2">
  <advance width="624"/>
  <unicode hex="0074"/>
  <outline>
    <contour>
      <point x="570" y="0" type="line"/>
      <point x="524" y="-16"/>
      <point x="482" y="-24"/>
      <point x="438" y="-24" type="curve" smooth="yes"/>
      <point x="278" y="-24"/>
      <point x="212" y="34"/>
      <point x="212" y="234" type="curve" smooth="yes"/>
      <point x="212" y="776" type="line"/>
      <point x="50" y="776" type="line"/>
      <point x="50" y="890" type="line"/>
      <point x="212" y="890" type="line"/>
      <point x="212" y="1068" type="line"/>
      <point x="374" y="1134" type="line"/>
      <point x="374" y="890" type="line"/>
      <point x="570" y="890" type="line"/>
      <point x="570" y="776" type="line"/>
      <point x="374" y="776" type="line"/>
      <point x="374" y="234" type="line" smooth="yes"/>
      <point x="374" y="122"/>
      <point x="410" y="98"/>
      <point x="470" y="98" type="curve" smooth="yes"/>
      <point x="506" y="98"/>
      <point x="540" y="104"/>
      <point x="570" y="114" type="curve"/>
    </contour>
  </outline>
</glyph>
<glyph name="u" format="2">
  <advance width="1020"/>
  <unicode hex="0075"/>
  <outline>
    <contour>
      <point x="896" y="0" type="line"/>
      <point x="734" y="0" type="line"/>
      <point x="734" y="114" type="line"/>
      <point x="686" y="36"/>
      <point x="608" y="-24"/>
      <point x="464" y="-24" type="curve" smooth="yes"/>
      <point x="222" y="-24"/>
      <point x="122" y="96"/>
      <point x="122" y="302" type="curve" smooth="yes"/>
      <point x="122" y="890" type="line"/>
      <point x="284" y="890" type="line"/>
      <point x="284" y="300" type="line" smooth="yes"/>
      <point x="284" y="176"/>
      <point x="386" y="84"/>
      <point x="498" y="84" type="curve" smooth="yes"/>
      <point x="626" y="84"/>
      <point x="734" y="176"/>
      <point x="734" y="318" type="curve" smooth="yes"/>
      <point x="734" y="890" type="line"/>
      <point x="896" y="890" type="line"/>
    </contour>
  </outline>
</glyph>
<glyph name="v" format="2">
  <advance width="954"/>
  <unicode hex="0076"/>
  <outline>
    <contour>
      <point x="926" y="890" type="line"/>
      <point x="558" y="0" type="line"/>
      <point x="396" y="0" type="line"/>
      <point x="26" y="890" type="line"/>
      <point x="212" y="890" type="line"/>
      <point x="486" y="194" type="line"/>
      <point x="756" y="890" type="line"/>
    </contour>
  </outline>
</glyph>
<glyph name="w" format="2">
  <advance width="1448"/>
  <unicode hex="0077"/>
  <outline>
    <contour>
      <point x="1422" y="890" type="line"/>
      <point x="1122" y="0" type="line"/>
      <point x="962" y="0" type="line"/>
      <point x="726" y="738" type="line"/>
      <point x="486" y="0" type="line"/>
      <point x="326" y="0" type="line"/>
      <point x="26" y="890" type="line"/>
      <point x="198" y="890" type="line"/>
      <point x="408" y="194" type="line"/>
      <point x="618" y="890" type="line"/>
      <point x="830" y="890" type="line"/>
      <point x="1040" y="194" type="line"/>
      <point x="1254" y="890" type="line"/>
    </contour>
  </outline>
</glyph>
<glyph name="x" format="2">
  <advance width="974"/>
  <unicode hex="0078"/>
  <outline>
    <contour>
      <point x="938" y="0" type="line"/>
      <point x="734" y="0" type="line"/>
      <point x="474" y="350" type="line"/>
      <point x="222" y="0" type="line"/>
      <point x="36" y="0" type="line"/>
      <point x="390" y="462" type="line"/>
      <point x="62" y="890" type="line"/>
      <point x="264" y="890" type="line"/>
      <point x="498" y="570" type="line"/>
      <point x="728" y="890" type="line"/>
      <point x="914" y="890" type="line"/>
      <point x="584" y="462" type="line"/>
    </contour>
  </outline>
</glyph>
<glyph name="y" format="2">
  <advance width="954"/>
  <unicode hex="0079"/>
  <outline>
    <contour>
      <point x="926" y="890" type="line"/>
      <point x="498" y="-198" type="line" smooth="yes"/>
      <point x="462" y="-292"/>
      <point x="414" y="-364"/>
      <point x="284" y="-364" type="curve" smooth="yes"/>
      <point x="170" y="-364"/>
      <point x="92" y="-300"/>
      <point x="44" y="-202" type="curve"/>
      <point x="170" y="-136" type="line"/>
      <point x="196" y="-188"/>
      <point x="230" y="-222"/>
      <point x="282" y="-222" type="curve" smooth="yes"/>
      <point x="320" y="-222"/>
      <point x="344" y="-180"/>
      <point x="372" y="-102" type="curve" smooth="yes"/>
      <point x="408" y="0" type="line"/>
      <point x="26" y="890" type="line"/>
      <point x="212" y="890" type="line"/>
      <point x="492" y="218" type="line"/>
      <point x="752" y="890" type="line"/>
    </contour>
  </outline>
</glyph>
<glyph name="z" format="2">
  <advance width="417"/>
  <unicode hex="007A"/>
  <outline>
    <contour>
      <point x="45" y="0" type="line"/>
      <point x="372" y="0" type="line"/>
      <point x="372" y="61" type="line"/>
      <point x="133" y="61" type="line"/>
      <point x="372" y="372" type="line"/>
      <point x="372" y="445" type="line"/>
      <point x="61" y="445" type="line"/>
      <point x="61" y="382" type="line"/>
      <point x="280" y="382" type="line"/>
      <point x="45" y="73" type="line"/>
    </contour>
  </outline>
</glyph>
<glyph name="braceleft" format="2">
  <advance width="812"/>
  <unicode hex="007B"/>
  <outline>
    <contour>
      <point x="702" y="-886" type="line"/>
      <point x="380" y="-886"/>
      <point x="360" y="-454"/>
      <point x="360" y="92" type="curve" smooth="yes"/>
      <point x="360" y="298"/>
      <point x="140" y="356"/>
      <point x="140" y="450" type="curve" smooth="yes"/>
      <point x="140" y="540"/>
      <point x="360" y="602"/>
      <point x="360" y="806" type="curve" smooth="yes"/>
      <point x="360" y="1352"/>
      <point x="380" y="1784"/>
      <point x="702" y="1784" type="curve"/>
      <point x="702" y="1686" type="line"/>
      <point x="494" y="1686"/>
      <point x="462" y="1360"/>
      <point x="462" y="776" type="curve" smooth="yes"/>
      <point x="462" y="552"/>
      <point x="242" y="482"/>
      <point x="242" y="450" type="curve" smooth="yes"/>
      <point x="242" y="418"/>
      <point x="462" y="346"/>
      <point x="462" y="122" type="curve" smooth="yes"/>
      <point x="462" y="-460"/>
      <point x="494" y="-786"/>
      <point x="702" y="-786" type="curve"/>
    </contour>
  </outline>
</glyph>
<glyph name="bar" format="2">
  <advance width="614"/>
  <unicode hex="007C"/>
  <outline>
    <contour>
      <point x="354" y="-460" type="line"/>
      <point x="260" y="-460" type="line"/>
      <point x="260" y="1418" type="line"/>
      <point x="354" y="1418" type="line"/>
    </contour>
  </outline>
</glyph>
<glyph name="braceright" format="2">
  <advance width="812"/>
  <unicode hex="007D"/>
  <outline>
    <contour>
      <point x="672" y="450" type="curve" smooth="yes"/>
      <point x="672" y="356"/>
      <point x="452" y="298"/>
      <point x="452" y="92" type="curve" smooth="yes"/>
      <point x="452" y="-454"/>
      <point x="432" y="-886"/>
      <point x="110" y="-886" type="curve"/>
      <point x="110" y="-786" type="line"/>
      <point x="318" y="-786"/>
      <point x="350" y="-460"/>
      <point x="350" y="122" type="curve" smooth="yes"/>
      <point x="350" y="346"/>
      <point x="570" y="418"/>
      <point x="570" y="450" type="curve" smooth="yes"/>
      <point x="570" y="482"/>
      <point x="350" y="552"/>
      <point x="350" y="776" type="curve" smooth="yes"/>
      <point x="350" y="1360"/>
      <point x="318" y="1686"/>
      <point x="110" y="1686" type="curve"/>
      <point x="110" y="1784" type="line"/>
      <point x="432" y="1784"/>
      <point x="452" y="1352"/>
      <point x="452" y="806" type="curve" smooth="yes"/>
      <point x="452" y="602"/>
      <point x="672" y="540"/>
    </contour>
  </outline>
</glyph>
<glyph name="asciitilde" format="2">
  <advance width="562"/>
  <unicode hex="007E"/>
  <outline>
    <contour>
      <point x="481" y="268" type="line"/>
      <point x="432" y="230"/>
      <point x="407" y="219"/>
      <point x="373" y="219" type="curve" smooth="yes"/>
      <point x="297" y="219"/>
      <point x="262" y="282"/>
      <point x="193" y="282" type="curve" smooth="yes"/>
      <point x="142" y="282"/>
      <point x="106" y="264"/>
      <point x="55" y="220" type="curve"/>
      <point x="70" y="183" type="line"/>
      <point x="137" y="234"/>
      <point x="161" y="241"/>
      <point x="193" y="241" type="curve" smooth="yes"/>
      <point x="239" y="241"/>
      <point x="292" y="178"/>
      <point x="373" y="178" type="curve" smooth="yes"/>
      <point x="416" y="178"/>
      <point x="462" y="195"/>
      <point x="507" y="238" type="curve"/>
    </contour>
  </outline>
</glyph>
<glyph name="cent" format="2">
  <advance width="572"/>
  <unicode hex="00A2"/>
  <outline>
    <contour>
      <point x="169" y="-143" type="line"/>
      <point x="209" y="-21" type="line"/>
      <point x="226" y="-28"/>
      <point x="251" y="-30"/>
      <point x="268" y="-30" type="curve"/>
      <point x="379" y="-30"/>
      <point x="445" y="46"/>
      <point x="445" y="132" type="curve"/>
      <point x="366" y="132" type="line"/>
      <point x="366" y="73"/>
      <point x="327" y="31"/>
      <point x="269" y="31" type="curve"/>
      <point x="258" y="31"/>
      <point x="238" y="35"/>
      <point x="229" y="39" type="curve"/>
      <point x="335" y="363" type="line"/>
      <point x="363" y="351"/>
      <point x="366" y="288"/>
      <point x="366" y="288" type="curve"/>
      <point x="441" y="288" type="line"/>
      <point x="441" y="288"/>
      <point x="441" y="396"/>
      <point x="355" y="423" type="curve"/>
      <point x="389" y="526" type="line"/>
      <point x="345" y="538" type="line"/>
      <point x="311" y="435" type="line"/>
      <point x="291" y="439"/>
      <point x="274" y="438"/>
      <point x="261" y="438" type="curve"/>
      <point x="88" y="439"/>
      <point x="73" y="299"/>
      <point x="73" y="199" type="curve"/>
      <point x="73" y="76"/>
      <point x="108" y="15"/>
      <point x="166" y="-10" type="curve"/>
      <point x="126" y="-132" type="line"/>
    </contour>
    <contour>
      <point x="189" y="61" type="line"/>
      <point x="161" y="87"/>
      <point x="150" y="134"/>
      <point x="150" y="206" type="curve"/>
      <point x="150" y="333"/>
      <point x="196" y="377"/>
      <point x="254" y="377" type="curve"/>
      <point x="262" y="377"/>
      <point x="273" y="377"/>
      <point x="291" y="374" type="curve"/>
    </contour>
  </outline>
</glyph>
<glyph name="sterling" format="2">
  <advance width="572"/>
  <unicode hex="00A3"/>
  <outline>
    <contour>
      <point x="410" y="516" type="curve"/>
      <point x="489" y="516" type="line"/>
      <point x="489" y="595"/>
      <point x="404" y="655"/>
      <point x="298" y="655" type="curve"/>
      <point x="192" y="655"/>
      <point x="106" y="595"/>
      <point x="106" y="516" type="curve"/>
      <point x="106" y="406" type="line"/>
      <point x="45" y="406" type="line"/>
      <point x="45" y="349" type="line"/>
      <point x="106" y="349" type="line"/>
      <point x="106" y="57" type="line"/>
      <point x="45" y="57" type="line"/>
      <point x="45" y="0" type="line"/>
      <point x="472" y="0" type="line"/>
      <point x="472" y="57" type="line"/>
      <point x="186" y="57" type="line"/>
      <point x="186" y="349" type="line"/>
      <point x="333" y="349" type="line"/>
      <point x="333" y="406" type="line"/>
      <point x="186" y="406" type="line"/>
      <point x="186" y="516" type="line"/>
      <point x="186" y="569"/>
      <point x="245" y="598"/>
      <point x="298" y="598" type="curve"/>
      <point x="350" y="598"/>
      <point x="410" y="569"/>
    </contour>
  </outline>
</glyph>
<glyph name="currency" format="2">
  <advance width="635"/>
  <unicode hex="00A4"/>
  <outline>
    <contour>
      <point x="73" y="164" type="line"/>
      <point x="165" y="256" type="line"/>
      <point x="198" y="227"/>
      <point x="239" y="214"/>
      <point x="283" y="214" type="curve"/>
      <point x="324" y="214"/>
      <point x="366" y="228"/>
      <point x="398" y="256" type="curve"/>
      <point x="490" y="164" type="line"/>
      <point x="522" y="196" type="line"/>
      <point x="430" y="288" type="line"/>
      <point x="457" y="320"/>
      <point x="469" y="361"/>
      <point x="469" y="402" type="curve"/>
      <point x="469" y="444"/>
      <point x="454" y="489"/>
      <point x="429" y="520" type="curve"/>
      <point x="522" y="613" type="line"/>
      <point x="490" y="645" type="line"/>
      <point x="395" y="550" type="line"/>
      <point x="365" y="576"/>
      <point x="324" y="590"/>
      <point x="283" y="590" type="curve"/>
      <point x="241" y="590"/>
      <point x="199" y="577"/>
      <point x="167" y="551" type="curve"/>
      <point x="73" y="645" type="line"/>
      <point x="41" y="613" type="line"/>
      <point x="134" y="519" type="line"/>
      <point x="106" y="488"/>
      <point x="94" y="443"/>
      <point x="94" y="402" type="curve"/>
      <point x="94" y="360"/>
      <point x="107" y="320"/>
      <point x="133" y="288" type="curve"/>
      <point x="41" y="196" type="line"/>
    </contour>
    <contour>
      <point x="283" y="264" type="curve"/>
      <point x="207" y="264"/>
      <point x="144" y="325"/>
      <point x="144" y="402" type="curve"/>
      <point x="144" y="479"/>
      <point x="206" y="540"/>
      <point x="283" y="540" type="curve"/>
      <point x="358" y="540"/>
      <point x="419" y="476"/>
      <point x="419" y="402" type="curve"/>
      <point x="419" y="328"/>
      <point x="359" y="264"/>
    </contour>
  </outline>
</glyph>
<glyph name="yen" format="2">
  <advance width="572"/>
  <unicode hex="00A5"/>
  <outline>
    <contour>
      <point x="204" y="0" type="line"/>
      <point x="295" y="0" type="line"/>
      <point x="295" y="256" type="line"/>
      <point x="487" y="256" type="line"/>
      <point x="487" y="301" type="line"/>
      <point x="325" y="301" type="line"/>
      <point x="376" y="407" type="line"/>
      <point x="487" y="407" type="line"/>
      <point x="487" y="452" type="line"/>
      <point x="399" y="452" type="line"/>
      <point x="496" y="643" type="line"/>
      <point x="402" y="643" type="line"/>
      <point x="251" y="325" type="line"/>
      <point x="98" y="643" type="line"/>
      <point x="4" y="643" type="line"/>
      <point x="103" y="452" type="line"/>
      <point x="13" y="452" type="line"/>
      <point x="13" y="407" type="line"/>
      <point x="125" y="407" type="line"/>
      <point x="177" y="301" type="line"/>
      <point x="13" y="301" type="line"/>
      <point x="13" y="256" type="line"/>
      <point x="204" y="256" type="line"/>
    </contour>
  </outline>
</glyph>
<glyph name="section" format="2">
  <advance width="479"/>
  <unicode hex="00A7"/>
  <outline>
    <contour>
      <point x="349" y="599" type="line"/>
      <point x="319" y="620"/>
      <point x="306" y="632"/>
      <point x="225" y="632" type="curve" smooth="yes"/>
      <point x="127" y="632"/>
      <point x="64" y="551"/>
      <point x="64" y="493" type="curve" smooth="yes"/>
      <point x="64" y="424"/>
      <point x="122" y="376"/>
      <point x="162" y="359" type="curve"/>
      <point x="99" y="340"/>
      <point x="51" y="297"/>
      <point x="51" y="208" type="curve" smooth="yes"/>
      <point x="51" y="75"/>
      <point x="293" y="77"/>
      <point x="293" y="-29" type="curve" smooth="yes"/>
      <point x="293" y="-78"/>
      <point x="229" y="-117"/>
      <point x="170" y="-116" type="curve" smooth="yes"/>
      <point x="136" y="-115"/>
      <point x="106" y="-105"/>
      <point x="65" y="-80" type="curve"/>
      <point x="65" y="-148" type="line"/>
      <point x="95" y="-169"/>
      <point x="179" y="-178"/>
      <point x="197" y="-178" type="curve" smooth="yes"/>
      <point x="275" y="-178"/>
      <point x="379" y="-117"/>
      <point x="379" y="-11" type="curve" smooth="yes"/>
      <point x="379" y="68"/>
      <point x="269" y="119"/>
      <point x="269" y="119" type="curve"/>
      <point x="269" y="119"/>
      <point x="376" y="165"/>
      <point x="376" y="254" type="curve" smooth="yes"/>
      <point x="376" y="387"/>
      <point x="149" y="396"/>
      <point x="149" y="499" type="curve" smooth="yes"/>
      <point x="149" y="537"/>
      <point x="191" y="573"/>
      <point x="233" y="573" type="curve" smooth="yes"/>
      <point x="267" y="573"/>
      <point x="310" y="563"/>
      <point x="349" y="539" type="curve"/>
    </contour>
    <contour>
      <point x="300" y="240" type="curve" smooth="yes"/>
      <point x="300" y="203"/>
      <point x="249" y="170"/>
      <point x="202" y="158" type="curve"/>
      <point x="202" y="158"/>
      <point x="124" y="175"/>
      <point x="124" y="228" type="curve" smooth="yes"/>
      <point x="124" y="266"/>
      <point x="181" y="319"/>
      <point x="218" y="319" type="curve"/>
      <point x="233" y="319"/>
      <point x="300" y="298"/>
    </contour>
  </outline>
</glyph>
<glyph name="dieresis" format="2">
  <advance width="297"/>
  <unicode hex="00A8"/>
  <outline>
    <contour>
      <point x="178" y="645" type="line"/>
      <point x="258" y="645" type="line"/>
      <point x="258" y="727" type="line"/>
      <point x="178" y="727" type="line"/>
    </contour>
    <contour>
      <point x="0" y="645" type="line"/>
      <point x="80" y="645" type="line"/>
      <point x="80" y="727" type="line"/>
      <point x="0" y="727" type="line"/>
    </contour>
  </outline>
</glyph>
<glyph name="copyright" format="2">
  <advance width="889"/>
  <unicode hex="00A9"/>
  <outline>
    <contour>
      <point x="727" y="320" type="curve"/>
      <point x="727" y="504"/>
      <point x="579" y="654"/>
      <point x="394" y="654" type="curve"/>
      <point x="210" y="654"/>
      <point x="61" y="504"/>
      <point x="61" y="320" type="curve"/>
      <point x="61" y="135"/>
      <point x="210" y="-14"/>
      <point x="394" y="-14" type="curve"/>
      <point x="579" y="-14"/>
      <point x="727" y="135"/>
    </contour>
    <contour>
      <point x="683" y="320" type="curve"/>
      <point x="683" y="159"/>
      <point x="554" y="30"/>
      <point x="394" y="30" type="curve"/>
      <point x="235" y="30"/>
      <point x="106" y="159"/>
      <point x="106" y="320" type="curve"/>
      <point x="106" y="479"/>
      <point x="235" y="609"/>
      <point x="394" y="609" type="curve"/>
      <point x="554" y="609"/>
      <point x="683" y="479"/>
    </contour>
    <contour>
      <point x="568" y="256" type="curve"/>
      <point x="497" y="256" type="line"/>
      <point x="493" y="220"/>
      <point x="469" y="165"/>
      <point x="398" y="165" type="curve"/>
      <point x="329" y="165"/>
      <point x="281" y="203"/>
      <point x="281" y="318" type="curve"/>
      <point x="281" y="433"/>
      <point x="332" y="482"/>
      <point x="385" y="482" type="curve"/>
      <point x="460" y="482"/>
      <point x="493" y="449"/>
      <point x="493" y="394" type="curve"/>
      <point x="564" y="394" type="line"/>
      <point x="564" y="456"/>
      <point x="532" y="530"/>
      <point x="390" y="530" type="curve"/>
      <point x="258" y="530"/>
      <point x="208" y="443"/>
      <point x="208" y="318" type="curve"/>
      <point x="208" y="151"/>
      <point x="304" y="109"/>
      <point x="397" y="109" type="curve"/>
      <point x="513" y="109"/>
      <point x="561" y="175"/>
    </contour>
  </outline>
</glyph>
<glyph name="ordfeminine" format="2">
  <advance width="398"/>
  <unicode hex="00AA"/>
  <outline>
    <contour>
      <point x="153" y="337" type="curve" smooth="yes"/>
      <point x="202" y="337"/>
      <point x="223" y="359"/>
      <point x="249" y="390" type="curve"/>
      <point x="250" y="373"/>
      <point x="253" y="361"/>
      <point x="255" y="345" type="curve"/>
      <point x="312" y="345" type="line"/>
      <point x="303" y="370"/>
      <point x="304" y="431"/>
      <point x="304" y="459" type="curve" smooth="yes"/>
      <point x="304" y="513" type="line" smooth="yes"/>
      <point x="304" y="534"/>
      <point x="304" y="593"/>
      <point x="296" y="612" type="curve" smooth="yes"/>
      <point x="279" y="657"/>
      <point x="219" y="664"/>
      <point x="176" y="664" type="curve" smooth="yes"/>
      <point x="115" y="664"/>
      <point x="52" y="645"/>
      <point x="52" y="572" type="curve"/>
      <point x="109" y="572" type="line"/>
      <point x="109" y="610"/>
      <point x="147" y="623"/>
      <point x="179" y="623" type="curve" smooth="yes"/>
      <point x="236" y="623"/>
      <point x="256" y="587"/>
      <point x="247" y="541" type="curve"/>
      <point x="232" y="541"/>
      <point x="217" y="542"/>
      <point x="203" y="542" type="curve" smooth="yes"/>
      <point x="129" y="542"/>
      <point x="35" y="521"/>
      <point x="35" y="427" type="curve" smooth="yes"/>
      <point x="35" y="366"/>
      <point x="101" y="337"/>
    </contour>
    <contour>
      <point x="20" y="247" type="line"/>
      <point x="331" y="247" type="line"/>
      <point x="331" y="280" type="line"/>
      <point x="20" y="280" type="line"/>
    </contour>
    <contour>
      <point x="154" y="379" type="curve" smooth="yes"/>
      <point x="121" y="379"/>
      <point x="93" y="399"/>
      <point x="93" y="435" type="curve" smooth="yes"/>
      <point x="93" y="489"/>
      <point x="174" y="500"/>
      <point x="214" y="500" type="curve" smooth="yes"/>
      <point x="224" y="500"/>
      <point x="235" y="499"/>
      <point x="246" y="498" type="curve"/>
      <point x="246" y="432"/>
      <point x="232" y="379"/>
    </contour>
  </outline>
</glyph>
<glyph name="logicalnot" format="2">
  <advance width="622"/>
  <unicode hex="00AC"/>
  <outline>
    <contour>
      <point x="468" y="194" type="line"/>
      <point x="522" y="194" type="line"/>
      <point x="522" y="399" type="line"/>
      <point x="41" y="399" type="line"/>
      <point x="41" y="346" type="line"/>
      <point x="468" y="346" type="line"/>
    </contour>
  </outline>
</glyph>
<glyph name="registered" format="2">
  <advance width="889"/>
  <unicode hex="00AE"/>
  <outline>
    <contour>
      <point x="727" y="320" type="curve"/>
      <point x="727" y="504"/>
      <point x="579" y="654"/>
      <point x="394" y="654" type="curve"/>
      <point x="210" y="654"/>
      <point x="61" y="504"/>
      <point x="61" y="320" type="curve"/>
      <point x="61" y="135"/>
      <point x="210" y="-14"/>
      <point x="394" y="-14" type="curve"/>
      <point x="579" y="-14"/>
      <point x="727" y="135"/>
    </contour>
    <contour>
      <point x="683" y="320" type="curve"/>
      <point x="683" y="159"/>
      <point x="554" y="30"/>
      <point x="394" y="30" type="curve"/>
      <point x="235" y="30"/>
      <point x="106" y="159"/>
      <point x="106" y="320" type="curve"/>
      <point x="106" y="479"/>
      <point x="235" y="609"/>
      <point x="394" y="609" type="curve"/>
      <point x="554" y="609"/>
      <point x="683" y="479"/>
    </contour>
    <contour>
      <point x="508" y="119" type="curve"/>
      <point x="572" y="119" type="line"/>
      <point x="547" y="190"/>
      <point x="550" y="256"/>
      <point x="537" y="288" type="curve"/>
      <point x="521" y="329"/>
      <point x="521" y="318"/>
      <point x="487" y="333" type="curve"/>
      <point x="528" y="353"/>
      <point x="562" y="380"/>
      <point x="562" y="423" type="curve"/>
      <point x="562" y="508"/>
      <point x="509" y="537"/>
      <point x="410" y="537" type="curve"/>
      <point x="255" y="537" type="line"/>
      <point x="255" y="119" type="line"/>
      <point x="318" y="119" type="line"/>
      <point x="318" y="307" type="line"/>
      <point x="388" y="307" type="line"/>
      <point x="479" y="307"/>
      <point x="474" y="295"/>
      <point x="490" y="220" type="curve"/>
      <point x="499" y="181"/>
      <point x="496" y="177"/>
    </contour>
    <contour>
      <point x="499" y="423" type="curve"/>
      <point x="499" y="374"/>
      <point x="466" y="361"/>
      <point x="410" y="361" type="curve"/>
      <point x="318" y="361" type="line"/>
      <point x="318" y="483" type="line"/>
      <point x="410" y="483" type="line"/>
      <point x="466" y="483"/>
      <point x="499" y="473"/>
    </contour>
  </outline>
</glyph>
<glyph name="macron" format="2">
  <advance width="297"/>
  <unicode hex="00AF"/>
  <outline>
    <contour>
      <point x="0" y="645" type="line"/>
      <point x="258" y="645" type="line"/>
      <point x="258" y="707" type="line"/>
      <point x="0" y="707" type="line"/>
    </contour>
  </outline>
</glyph>
<glyph name="plusminus" format="2">
  <advance width="734"/>
  <unicode hex="00B1"/>
  <outline>
    <contour>
      <point x="339" y="158" type="line"/>
      <point x="395" y="158" type="line"/>
      <point x="395" y="319" type="line"/>
      <point x="634" y="319" type="line"/>
      <point x="634" y="374" type="line"/>
      <point x="395" y="374" type="line"/>
      <point x="395" y="534" type="line"/>
      <point x="339" y="534" type="line"/>
      <point x="339" y="374" type="line"/>
      <point x="100" y="374" type="line"/>
      <point x="100" y="319" type="line"/>
      <point x="339" y="319" type="line"/>
    </contour>
    <contour>
      <point x="100" y="0" type="line"/>
      <point x="634" y="0" type="line"/>
      <point x="634" y="55" type="line"/>
      <point x="100" y="55" type="line"/>
    </contour>
  </outline>
</glyph>
<glyph name="twosuperior" format="2">
  <advance width="372"/>
  <unicode hex="00B2"/>
  <outline>
    <contour>
      <point x="311" y="603" type="curve" smooth="yes"/>
      <point x="311" y="647"/>
      <point x="288" y="708"/>
      <point x="184" y="708" type="curve" smooth="yes"/>
      <point x="113" y="708"/>
      <point x="67" y="659"/>
      <point x="64" y="602" type="curve"/>
      <point x="129" y="602" type="line"/>
      <point x="134" y="644"/>
      <point x="159" y="656"/>
      <point x="182" y="656" type="curve" smooth="yes"/>
      <point x="229" y="656"/>
      <point x="246" y="636"/>
      <point x="246" y="596" type="curve" smooth="yes"/>
      <point x="246" y="563"/>
      <point x="215" y="538"/>
      <point x="55" y="416" type="curve"/>
      <point x="55" y="359" type="line"/>
      <point x="316" y="359" type="line"/>
      <point x="316" y="411" type="line"/>
      <point x="136" y="411" type="line"/>
      <point x="286" y="529"/>
      <point x="311" y="552"/>
    </contour>
  </outline>
</glyph>
<glyph name="threesuperior" format="2">
  <advance width="352"/>
  <unicode hex="00B3"/>
  <outline>
    <contour>
      <point x="173" y="348" type="curve" smooth="yes"/>
      <point x="240" y="348"/>
      <point x="310" y="388"/>
      <point x="310" y="445" type="curve" smooth="yes"/>
      <point x="310" y="501"/>
      <point x="278" y="521"/>
      <point x="234" y="532" type="curve" smooth="yes"/>
      <point x="283" y="551"/>
      <point x="302" y="574"/>
      <point x="302" y="614" type="curve" smooth="yes"/>
      <point x="302" y="663"/>
      <point x="262" y="701"/>
      <point x="177" y="701" type="curve" smooth="yes"/>
      <point x="115" y="701"/>
      <point x="52" y="674"/>
      <point x="52" y="603" type="curve"/>
      <point x="109" y="603" type="line"/>
      <point x="115" y="642"/>
      <point x="147" y="649"/>
      <point x="173" y="651" type="curve" smooth="yes"/>
      <point x="190" y="652"/>
      <point x="237" y="644"/>
      <point x="237" y="611" type="curve" smooth="yes"/>
      <point x="237" y="561"/>
      <point x="198" y="552"/>
      <point x="149" y="552" type="curve"/>
      <point x="149" y="505" type="line"/>
      <point x="210" y="505"/>
      <point x="249" y="492"/>
      <point x="249" y="442" type="curve" smooth="yes"/>
      <point x="249" y="420"/>
      <point x="201" y="401"/>
      <point x="175" y="401" type="curve" smooth="yes"/>
      <point x="129" y="401"/>
      <point x="102" y="426"/>
      <point x="99" y="456" type="curve"/>
      <point x="40" y="456" type="line"/>
      <point x="43" y="389"/>
      <point x="98" y="348"/>
    </contour>
  </outline>
</glyph>
<glyph name="acute" format="2">
  <advance width="236"/>
  <unicode hex="00B4"/>
  <outline>
    <contour>
      <point x="110" y="614" type="line"/>
      <point x="234" y="767" type="line"/>
      <point x="144" y="767" type="line"/>
      <point x="55" y="614" type="line"/>
    </contour>
  </outline>
</glyph>
<glyph name="micro" format="2">
  <advance width="600"/>
  <unicode hex="00B5"/>
  <outline>
    <contour>
      <point x="555" y="0" type="curve"/>
      <point x="555" y="57" type="line"/>
      <point x="539" y="52"/>
      <point x="529" y="50"/>
      <point x="506" y="49" type="curve"/>
      <point x="476" y="48"/>
      <point x="457" y="62"/>
      <point x="457" y="116" type="curve"/>
      <point x="457" y="445" type="line"/>
      <point x="377" y="445" type="line"/>
      <point x="377" y="158" type="line"/>
      <point x="377" y="89"/>
      <point x="323" y="42"/>
      <point x="260" y="42" type="curve"/>
      <point x="203" y="42"/>
      <point x="152" y="89"/>
      <point x="152" y="150" type="curve"/>
      <point x="152" y="445" type="line"/>
      <point x="72" y="445" type="line"/>
      <point x="72" y="-177" type="line"/>
      <point x="152" y="-177" type="line"/>
      <point x="152" y="11" type="line"/>
      <point x="181" y="-10"/>
      <point x="220" y="-12"/>
      <point x="242" y="-12" type="curve"/>
      <point x="337" y="-12"/>
      <point x="369" y="43"/>
      <point x="382" y="63" type="curve"/>
      <point x="394" y="7"/>
      <point x="421" y="-13"/>
      <point x="488" y="-12" type="curve"/>
      <point x="512" y="-12"/>
      <point x="533" y="-8"/>
    </contour>
  </outline>
</glyph>
<glyph name="paragraph" format="2">
  <advance width="573"/>
  <unicode hex="00B6"/>
  <outline>
    <contour>
      <point x="398" y="587" type="line"/>
      <point x="452" y="587" type="line"/>
      <point x="452" y="622" type="line"/>
      <point x="229" y="622" type="line"/>
      <point x="161" y="622"/>
      <point x="51" y="561"/>
      <point x="51" y="444" type="curve"/>
      <point x="51" y="328"/>
      <point x="161" y="292"/>
      <point x="229" y="292" type="curve"/>
      <point x="229" y="-164" type="line"/>
      <point x="274" y="-164" type="line"/>
      <point x="274" y="587" type="line"/>
      <point x="354" y="587" type="line"/>
      <point x="354" y="-164" type="line"/>
      <point x="398" y="-164" type="line"/>
    </contour>
  </outline>
</glyph>
<glyph name="cedilla" format="2">
  <advance width="256"/>
  <unicode hex="00B8"/>
  <outline>
    <contour>
      <point x="269" y="-173" type="curve"/>
      <point x="269" y="-113"/>
      <point x="225" y="-77"/>
      <point x="135" y="-77" type="curve"/>
      <point x="135" y="-32" type="line"/>
      <point x="100" y="-32" type="line"/>
      <point x="100" y="-122" type="line"/>
      <point x="100" y="-122"/>
      <point x="206" y="-114"/>
      <point x="206" y="-174" type="curve"/>
      <point x="206" y="-198"/>
      <point x="179" y="-207"/>
      <point x="141" y="-207" type="curve"/>
      <point x="113" y="-207"/>
      <point x="78" y="-203"/>
      <point x="47" y="-196" type="curve"/>
      <point x="47" y="-241" type="line"/>
      <point x="88" y="-247"/>
      <point x="117" y="-249"/>
      <point x="133" y="-249" type="curve"/>
      <point x="199" y="-249"/>
      <point x="269" y="-221"/>
    </contour>
  </outline>
</glyph>
<glyph name="onesuperior" format="2">
  <advance width="420"/>
  <unicode hex="00B9"/>
  <outline>
    <contour>
      <point x="202" y="359" type="line"/>
      <point x="259" y="359" type="line"/>
      <point x="259" y="698" type="line"/>
      <point x="203" y="698" type="line"/>
      <point x="203" y="698"/>
      <point x="163" y="661"/>
      <point x="115" y="646" type="curve"/>
      <point x="115" y="597" type="line"/>
      <point x="154" y="604"/>
      <point x="202" y="640"/>
      <point x="202" y="640" type="curve"/>
    </contour>
  </outline>
</glyph>
<glyph name="ordmasculine" format="2">
  <advance width="429"/>
  <unicode hex="00BA"/>
  <outline>
    <contour>
      <point x="189" y="336" type="curve"/>
      <point x="273" y="336"/>
      <point x="342" y="388"/>
      <point x="342" y="500" type="curve"/>
      <point x="342" y="611"/>
      <point x="273" y="664"/>
      <point x="189" y="664" type="curve"/>
      <point x="104" y="664"/>
      <point x="36" y="611"/>
      <point x="36" y="500" type="curve"/>
      <point x="36" y="388"/>
      <point x="104" y="336"/>
    </contour>
    <contour>
      <point x="34" y="247" type="line"/>
      <point x="348" y="247" type="line"/>
      <point x="348" y="280" type="line"/>
      <point x="34" y="280" type="line"/>
    </contour>
    <contour>
      <point x="189" y="376" type="curve"/>
      <point x="122" y="376"/>
      <point x="94" y="441"/>
      <point x="94" y="500" type="curve"/>
      <point x="94" y="558"/>
      <point x="122" y="623"/>
      <point x="189" y="623" type="curve"/>
      <point x="255" y="623"/>
      <point x="284" y="558"/>
      <point x="284" y="500" type="curve"/>
      <point x="284" y="441"/>
      <point x="255" y="376"/>
    </contour>
  </outline>
</glyph>
<glyph name="onequarter" format="2">
  <advance width="727"/>
  <unicode hex="00BC"/>
  <outline>
    <contour>
      <point x="113" y="-14" type="line"/>
      <point x="174" y="-14" type="line"/>
      <point x="553" y="654" type="line"/>
      <point x="492" y="654" type="line"/>
    </contour>
    <contour>
      <point x="144" y="311" type="line"/>
      <point x="201" y="311" type="line"/>
      <point x="201" y="649" type="line"/>
      <point x="145" y="649" type="line"/>
      <point x="145" y="649"/>
      <point x="105" y="613"/>
      <point x="57" y="597" type="curve"/>
      <point x="57" y="548" type="line"/>
      <point x="96" y="556"/>
      <point x="144" y="591"/>
      <point x="144" y="591" type="curve"/>
    </contour>
    <contour>
      <point x="433" y="130" type="line"/>
      <point x="541" y="277" type="line"/>
      <point x="541" y="130" type="line"/>
    </contour>
    <contour>
      <point x="541" y="-2" type="line"/>
      <point x="598" y="-2" type="line"/>
      <point x="598" y="83" type="line"/>
      <point x="670" y="83" type="line"/>
      <point x="670" y="130" type="line"/>
      <point x="598" y="130" type="line"/>
      <point x="598" y="345" type="line"/>
      <point x="535" y="345" type="line"/>
      <point x="381" y="129" type="line"/>
      <point x="381" y="83" type="line"/>
      <point x="541" y="83" type="line"/>
    </contour>
  </outline>
</glyph>
<glyph name="onehalf" format="2">
  <advance width="726"/>
  <unicode hex="00BD"/>
  <outline>
    <contour>
      <point x="667" y="241" type="curve" smooth="yes"/>
      <point x="667" y="286"/>
      <point x="644" y="346"/>
      <point x="540" y="346" type="curve" smooth="yes"/>
      <point x="468" y="346"/>
      <point x="423" y="298"/>
      <point x="419" y="240" type="curve"/>
      <point x="484" y="240" type="line"/>
      <point x="490" y="282"/>
      <point x="515" y="294"/>
      <point x="538" y="294" type="curve" smooth="yes"/>
      <point x="585" y="294"/>
      <point x="602" y="275"/>
      <point x="602" y="235" type="curve" smooth="yes"/>
      <point x="602" y="201"/>
      <point x="571" y="177"/>
      <point x="411" y="54" type="curve"/>
      <point x="411" y="-2" type="line"/>
      <point x="671" y="-2" type="line"/>
      <point x="671" y="50" type="line"/>
      <point x="492" y="50" type="line"/>
      <point x="642" y="167"/>
      <point x="667" y="190"/>
    </contour>
    <contour>
      <point x="552" y="654" type="line"/>
      <point x="491" y="654" type="line"/>
      <point x="111" y="-14" type="line"/>
      <point x="173" y="-14" type="line"/>
    </contour>
    <contour>
      <point x="199" y="649" type="line"/>
      <point x="144" y="649" type="line"/>
      <point x="144" y="649"/>
      <point x="104" y="613"/>
      <point x="55" y="597" type="curve"/>
      <point x="55" y="548" type="line"/>
      <point x="94" y="556"/>
      <point x="142" y="591"/>
      <point x="142" y="591" type="curve"/>
      <point x="142" y="311" type="line"/>
      <point x="199" y="311" type="line"/>
    </contour>
  </outline>
</glyph>
<glyph name="threequarters" format="2">
  <advance width="721"/>
  <unicode hex="00BE"/>
  <outline>
    <contour>
      <point x="152" y="-14" type="line"/>
      <point x="214" y="-14" type="line"/>
      <point x="593" y="654" type="line"/>
      <point x="531" y="654" type="line"/>
    </contour>
    <contour>
      <point x="166" y="301" type="curve" smooth="yes"/>
      <point x="233" y="301"/>
      <point x="303" y="341"/>
      <point x="303" y="398" type="curve" smooth="yes"/>
      <point x="303" y="454"/>
      <point x="271" y="474"/>
      <point x="227" y="485" type="curve" smooth="yes"/>
      <point x="276" y="504"/>
      <point x="295" y="527"/>
      <point x="295" y="567" type="curve" smooth="yes"/>
      <point x="295" y="616"/>
      <point x="255" y="654"/>
      <point x="170" y="654" type="curve" smooth="yes"/>
      <point x="108" y="654"/>
      <point x="45" y="627"/>
      <point x="45" y="556" type="curve"/>
      <point x="102" y="556" type="line"/>
      <point x="108" y="595"/>
      <point x="140" y="602"/>
      <point x="166" y="604" type="curve" smooth="yes"/>
      <point x="183" y="605"/>
      <point x="230" y="597"/>
      <point x="230" y="564" type="curve" smooth="yes"/>
      <point x="230" y="514"/>
      <point x="191" y="505"/>
      <point x="142" y="505" type="curve"/>
      <point x="142" y="458" type="line"/>
      <point x="203" y="458"/>
      <point x="242" y="445"/>
      <point x="242" y="394" type="curve" smooth="yes"/>
      <point x="242" y="373"/>
      <point x="194" y="353"/>
      <point x="168" y="353" type="curve" smooth="yes"/>
      <point x="122" y="353"/>
      <point x="95" y="379"/>
      <point x="92" y="409" type="curve"/>
      <point x="33" y="409" type="line"/>
      <point x="36" y="342"/>
      <point x="91" y="301"/>
    </contour>
    <contour>
      <point x="451" y="130" type="line"/>
      <point x="559" y="277" type="line"/>
      <point x="559" y="130" type="line"/>
    </contour>
    <contour>
      <point x="559" y="-2" type="line"/>
      <point x="616" y="-2" type="line"/>
      <point x="616" y="83" type="line"/>
      <point x="688" y="83" type="line"/>
      <point x="688" y="130" type="line"/>
      <point x="616" y="130" type="line"/>
      <point x="616" y="345" type="line"/>
      <point x="554" y="345" type="line"/>
      <point x="399" y="129" type="line"/>
      <point x="399" y="83" type="line"/>
      <point x="559" y="83" type="line"/>
    </contour>
  </outline>
</glyph>
<glyph name="AE" format="2">
  <advance width="880"/>
  <unicode hex="00C6"/>
  <outline>
    <contour>
      <point x="15" y="0" type="line"/>
      <point x="110" y="0" type="line"/>
      <point x="205" y="172" type="line"/>
      <point x="412" y="172" type="line"/>
      <point x="412" y="0" type="line"/>
      <point x="818" y="0" type="line"/>
      <point x="818" y="77" type="line"/>
      <point x="501" y="77" type="line"/>
      <point x="501" y="290" type="line"/>
      <point x="801" y="290" type="line"/>
      <point x="801" y="368" type="line"/>
      <point x="501" y="368" type="line"/>
      <point x="501" y="565" type="line"/>
      <point x="810" y="565" type="line"/>
      <point x="810" y="643" type="line"/>
      <point x="357" y="643" type="line"/>
    </contour>
    <contour>
      <point x="250" y="248" type="line"/>
      <point x="412" y="570" type="line"/>
      <point x="412" y="248" type="line"/>
    </contour>
  </outline>
</glyph>
<glyph name="Ccedilla" format="2">
  <advance width="605"/>
  <unicode hex="00C7"/>
  <outline>
    <contour>
      <point x="339" y="-217" type="curve"/>
      <point x="406" y="-217"/>
      <point x="457" y="-189"/>
      <point x="457" y="-141" type="curve"/>
      <point x="457" y="-80"/>
      <point x="414" y="-45"/>
      <point x="324" y="-45" type="curve"/>
      <point x="324" y="-13" type="line"/>
      <point x="469" y="-10"/>
      <point x="551" y="71"/>
      <point x="551" y="172" type="curve"/>
      <point x="461" y="172" type="line"/>
      <point x="461" y="88"/>
      <point x="398" y="60"/>
      <point x="316" y="60" type="curve"/>
      <point x="208" y="60"/>
      <point x="143" y="123"/>
      <point x="143" y="317" type="curve"/>
      <point x="143" y="500"/>
      <point x="202" y="585"/>
      <point x="320" y="585" type="curve"/>
      <point x="419" y="585"/>
      <point x="457" y="546"/>
      <point x="457" y="471" type="curve"/>
      <point x="548" y="471" type="line"/>
      <point x="548" y="571"/>
      <point x="481" y="655"/>
      <point x="319" y="655" type="curve"/>
      <point x="116" y="655"/>
      <point x="52" y="489"/>
      <point x="52" y="317" type="curve"/>
      <point x="52" y="151"/>
      <point x="111" y="2"/>
      <point x="289" y="-12" type="curve"/>
      <point x="289" y="-89" type="line"/>
      <point x="289" y="-89"/>
      <point x="395" y="-81"/>
      <point x="395" y="-142" type="curve"/>
      <point x="395" y="-166"/>
      <point x="368" y="-175"/>
      <point x="330" y="-175" type="curve"/>
      <point x="302" y="-175"/>
      <point x="267" y="-171"/>
      <point x="235" y="-164" type="curve"/>
      <point x="235" y="-209" type="line"/>
      <point x="276" y="-215"/>
      <point x="323" y="-217"/>
    </contour>
  </outline>
</glyph>
<glyph name="Eth" format="2">
  <advance width="640"/>
  <unicode hex="00D0"/>
  <outline>
    <contour>
      <point x="588" y="323" type="curve"/>
      <point x="588" y="485"/>
      <point x="515" y="643"/>
      <point x="271" y="643" type="curve"/>
      <point x="71" y="643" type="line"/>
      <point x="71" y="358" type="line"/>
      <point x="0" y="358" type="line"/>
      <point x="0" y="284" type="line"/>
      <point x="71" y="284" type="line"/>
      <point x="71" y="0" type="line"/>
      <point x="271" y="0" type="line"/>
      <point x="515" y="0"/>
      <point x="588" y="168"/>
    </contour>
    <contour>
      <point x="499" y="323" type="curve"/>
      <point x="499" y="168"/>
      <point x="413" y="77"/>
      <point x="273" y="77" type="curve"/>
      <point x="161" y="77" type="line"/>
      <point x="161" y="284" type="line"/>
      <point x="311" y="284" type="line"/>
      <point x="311" y="358" type="line"/>
      <point x="161" y="358" type="line"/>
      <point x="161" y="565" type="line"/>
      <point x="273" y="565" type="line"/>
      <point x="413" y="565"/>
      <point x="499" y="480"/>
    </contour>
  </outline>
</glyph>
<glyph name="multiply" format="2">
  <advance width="990"/>
  <unicode hex="00D7"/>
  <outline>
    <contour>
      <point x="800" y="210" type="line"/>
      <point x="728" y="138" type="line"/>
      <point x="494" y="372" type="line"/>
      <point x="260" y="138" type="line"/>
      <point x="186" y="212" type="line"/>
      <point x="420" y="446" type="line"/>
      <point x="186" y="680" type="line"/>
      <point x="258" y="752" type="line"/>
      <point x="492" y="518" type="line"/>
      <point x="728" y="756" type="line"/>
      <point x="804" y="680" type="line"/>
      <point x="566" y="444" type="line"/>
    </contour>
  </outline>
</glyph>
<glyph name="Oslash" format="2">
  <advance width="689"/>
  <unicode hex="00D8"/>
  <outline>
    <contour>
      <point x="119" y="-101" type="line"/>
      <point x="197" y="15" type="line"/>
      <point x="237" y="-10"/>
      <point x="287" y="-23"/>
      <point x="345" y="-23" type="curve" smooth="yes"/>
      <point x="543" y="-23"/>
      <point x="636" y="141"/>
      <point x="636" y="324" type="curve" smooth="yes"/>
      <point x="636" y="419"/>
      <point x="611" y="502"/>
      <point x="560" y="560" type="curve"/>
      <point x="637" y="675" type="line"/>
      <point x="570" y="719" type="line"/>
      <point x="498" y="611" type="line"/>
      <point x="456" y="634"/>
      <point x="406" y="646"/>
      <point x="345" y="646" type="curve" smooth="yes"/>
      <point x="146" y="646"/>
      <point x="52" y="508"/>
      <point x="52" y="324" type="curve" smooth="yes"/>
      <point x="52" y="226"/>
      <point x="79" y="133"/>
      <point x="135" y="68" type="curve"/>
      <point x="52" y="-57" type="line"/>
    </contour>
    <contour>
      <point x="184" y="141" type="line"/>
      <point x="155" y="191"/>
      <point x="144" y="258"/>
      <point x="144" y="324" type="curve" smooth="yes"/>
      <point x="144" y="460"/>
      <point x="189" y="569"/>
      <point x="345" y="569" type="curve" smooth="yes"/>
      <point x="390" y="569"/>
      <point x="425" y="560"/>
      <point x="453" y="544" type="curve"/>
    </contour>
    <contour>
      <point x="345" y="55" type="curve" smooth="yes"/>
      <point x="303" y="55"/>
      <point x="269" y="65"/>
      <point x="241" y="82" type="curve"/>
      <point x="510" y="486" type="line"/>
      <point x="535" y="443"/>
      <point x="544" y="386"/>
      <point x="544" y="324" type="curve" smooth="yes"/>
      <point x="544" y="189"/>
      <point x="501" y="55"/>
    </contour>
  </outline>
</glyph>
<glyph name="Thorn" format="2">
  <advance width="566"/>
  <unicode hex="00DE"/>
  <outline>
    <contour>
      <point x="512" y="337" type="curve"/>
      <point x="512" y="499"/>
      <point x="387" y="523"/>
      <point x="264" y="523" type="curve"/>
      <point x="172" y="523" type="line"/>
      <point x="172" y="643" type="line"/>
      <point x="82" y="643" type="line"/>
      <point x="82" y="0" type="line"/>
      <point x="172" y="0" type="line"/>
      <point x="172" y="152" type="line"/>
      <point x="264" y="152" type="line"/>
      <point x="387" y="152"/>
      <point x="512" y="176"/>
    </contour>
    <contour>
      <point x="425" y="337" type="curve"/>
      <point x="425" y="257"/>
      <point x="374" y="230"/>
      <point x="266" y="230" type="curve"/>
      <point x="172" y="230" type="line"/>
      <point x="172" y="445" type="line"/>
      <point x="266" y="445" type="line"/>
      <point x="374" y="445"/>
      <point x="425" y="417"/>
    </contour>
  </outline>
</glyph>
<glyph name="germandbls" format="2">
  <advance width="556"/>
  <unicode hex="00DF"/>
  <outline>
    <contour>
      <point x="348" y="-13" type="curve" smooth="yes"/>
      <point x="440" y="-14"/>
      <point x="511" y="31"/>
      <point x="511" y="124" type="curve" smooth="yes"/>
      <point x="511" y="274"/>
      <point x="325" y="288"/>
      <point x="325" y="344" type="curve" smooth="yes"/>
      <point x="325" y="390"/>
      <point x="438" y="427"/>
      <point x="438" y="525" type="curve" smooth="yes"/>
      <point x="438" y="626"/>
      <point x="350" y="653"/>
      <point x="262" y="653" type="curve" smooth="yes"/>
      <point x="155" y="653"/>
      <point x="61" y="587"/>
      <point x="61" y="477" type="curve"/>
      <point x="61" y="-2" type="line"/>
      <point x="141" y="-2" type="line"/>
      <point x="141" y="457" type="line" smooth="yes"/>
      <point x="141" y="552"/>
      <point x="207" y="581"/>
      <point x="256" y="581" type="curve" smooth="yes"/>
      <point x="332" y="581"/>
      <point x="355" y="545"/>
      <point x="355" y="512" type="curve" smooth="yes"/>
      <point x="355" y="468"/>
      <point x="242" y="410"/>
      <point x="242" y="338" type="curve" smooth="yes"/>
      <point x="242" y="222"/>
      <point x="432" y="233"/>
      <point x="432" y="122" type="curve" smooth="yes"/>
      <point x="432" y="83"/>
      <point x="408" y="54"/>
      <point x="364" y="54" type="curve" smooth="yes"/>
      <point x="286" y="54"/>
      <point x="280" y="124"/>
      <point x="280" y="124" type="curve"/>
      <point x="198" y="124" type="line"/>
      <point x="198" y="57"/>
      <point x="258" y="-12"/>
    </contour>
  </outline>
</glyph>
<glyph name="ae" format="2">
  <advance width="796"/>
  <unicode hex="00E6"/>
  <outline>
    <contour>
      <point x="345" y="210" type="curve"/>
      <point x="335" y="211"/>
      <point x="312" y="213"/>
      <point x="300" y="213" type="curve" smooth="yes"/>
      <point x="241" y="213"/>
      <point x="126" y="204"/>
      <point x="126" y="127" type="curve" smooth="yes"/>
      <point x="126" y="78"/>
      <point x="166" y="48"/>
      <point x="214" y="48" type="curve" smooth="yes"/>
      <point x="315" y="48"/>
      <point x="348" y="106"/>
    </contour>
    <contour>
      <point x="663" y="268" type="line"/>
      <point x="664" y="275"/>
      <point x="664" y="281"/>
      <point x="664" y="288" type="curve" smooth="yes"/>
      <point x="664" y="346"/>
      <point x="635" y="400"/>
      <point x="549" y="400" type="curve" smooth="yes"/>
      <point x="462" y="400"/>
      <point x="438" y="319"/>
      <point x="430" y="268" type="curve"/>
    </contour>
    <contour>
      <point x="751" y="252" type="curve" smooth="yes"/>
      <point x="751" y="239"/>
      <point x="750" y="223"/>
      <point x="748" y="210" type="curve"/>
      <point x="430" y="210" type="line"/>
      <point x="430" y="118"/>
      <point x="463" y="46"/>
      <point x="549" y="46" type="curve" smooth="yes"/>
      <point x="631" y="46"/>
      <point x="657" y="103"/>
      <point x="663" y="142" type="curve"/>
      <point x="748" y="142" type="line"/>
      <point x="735" y="69"/>
      <point x="679" y="-12"/>
      <point x="547" y="-12" type="curve" smooth="yes"/>
      <point x="485" y="-12"/>
      <point x="436" y="7"/>
      <point x="389" y="64" type="curve"/>
      <point x="348" y="20"/>
      <point x="293" y="-12"/>
      <point x="214" y="-12" type="curve" smooth="yes"/>
      <point x="138" y="-12"/>
      <point x="43" y="30"/>
      <point x="43" y="117" type="curve" smooth="yes"/>
      <point x="43" y="252"/>
      <point x="180" y="271"/>
      <point x="285" y="271" type="curve" smooth="yes"/>
      <point x="346" y="271" type="line"/>
      <point x="346" y="352"/>
      <point x="330" y="396"/>
      <point x="249" y="396" type="curve" smooth="yes"/>
      <point x="204" y="396"/>
      <point x="150" y="378"/>
      <point x="150" y="325" type="curve"/>
      <point x="67" y="325" type="line"/>
      <point x="67" y="430"/>
      <point x="158" y="456"/>
      <point x="246" y="456" type="curve" smooth="yes"/>
      <point x="299" y="456"/>
      <point x="374" y="449"/>
      <point x="408" y="401" type="curve"/>
      <point x="440" y="434"/>
      <point x="487" y="456"/>
      <point x="553" y="456" type="curve" smooth="yes"/>
      <point x="727" y="456"/>
      <point x="751" y="322"/>
    </contour>
  </outline>
</glyph>
<glyph name="ccedilla" format="2">
  <advance width="463"/>
  <unicode hex="00E7"/>
  <outline>
    <contour>
      <point x="420" y="150" type="curve"/>
      <point x="341" y="150" type="line"/>
      <point x="341" y="110"/>
      <point x="319" y="48"/>
      <point x="243" y="48" type="curve" smooth="yes"/>
      <point x="167" y="48"/>
      <point x="125" y="95"/>
      <point x="125" y="222" type="curve" smooth="yes"/>
      <point x="125" y="350"/>
      <point x="170" y="396"/>
      <point x="228" y="396" type="curve" smooth="yes"/>
      <point x="286" y="396"/>
      <point x="335" y="375"/>
      <point x="336" y="305" type="curve"/>
      <point x="415" y="305" type="line"/>
      <point x="412" y="393"/>
      <point x="368" y="456"/>
      <point x="234" y="456" type="curve" smooth="yes"/>
      <point x="101" y="456"/>
      <point x="45" y="378"/>
      <point x="45" y="222" type="curve" smooth="yes"/>
      <point x="45" y="80"/>
      <point x="99" y="1"/>
      <point x="210" y="-10" type="curve"/>
      <point x="210" y="-89" type="line"/>
      <point x="210" y="-89"/>
      <point x="317" y="-81"/>
      <point x="317" y="-142" type="curve" smooth="yes"/>
      <point x="317" y="-166"/>
      <point x="289" y="-175"/>
      <point x="252" y="-175" type="curve" smooth="yes"/>
      <point x="223" y="-175"/>
      <point x="188" y="-171"/>
      <point x="157" y="-164" type="curve"/>
      <point x="157" y="-209" type="line"/>
      <point x="198" y="-215"/>
      <point x="227" y="-217"/>
      <point x="243" y="-217" type="curve" smooth="yes"/>
      <point x="309" y="-217"/>
      <point x="379" y="-189"/>
      <point x="379" y="-141" type="curve" smooth="yes"/>
      <point x="379" y="-80"/>
      <point x="335" y="-45"/>
      <point x="246" y="-45" type="curve"/>
      <point x="246" y="-12" type="line"/>
      <point x="376" y="-10"/>
      <point x="420" y="69"/>
    </contour>
  </outline>
</glyph>
<glyph name="igrave" format="2">
  <advance width="230"/>
  <unicode hex="00EC"/>
  <outline>
    <contour>
      <point x="60" y="0" type="line"/>
      <point x="140" y="0" type="line"/>
      <point x="140" y="446" type="line"/>
      <point x="60" y="446" type="line"/>
    </contour>
    <contour>
      <point x="100" y="536" type="line"/>
      <point x="154" y="536" type="line"/>
      <point x="65" y="688" type="line"/>
      <point x="-25" y="688" type="line"/>
    </contour>
  </outline>
</glyph>
<glyph name="iacute" format="2">
  <advance width="230"/>
  <unicode hex="00ED"/>
  <outline>
    <contour>
      <point x="68" y="0" type="line"/>
      <point x="149" y="0" type="line"/>
      <point x="149" y="446" type="line"/>
      <point x="68" y="446" type="line"/>
    </contour>
    <contour>
      <point x="54" y="536" type="line"/>
      <point x="108" y="536" type="line"/>
      <point x="233" y="688" type="line"/>
      <point x="143" y="688" type="line"/>
    </contour>
  </outline>
</glyph>
<glyph name="icircumflex" format="2">
  <advance width="230"/>
  <unicode hex="00EE"/>
  <outline>
    <contour>
      <point x="-30" y="536" type="line"/>
      <point x="24" y="536" type="line"/>
      <point x="99" y="634" type="line"/>
      <point x="175" y="536" type="line"/>
      <point x="229" y="536" type="line"/>
      <point x="149" y="688" type="line"/>
      <point x="50" y="688" type="line"/>
    </contour>
    <contour>
      <point x="59" y="0" type="line"/>
      <point x="140" y="0" type="line"/>
      <point x="140" y="446" type="line"/>
      <point x="59" y="446" type="line"/>
    </contour>
  </outline>
</glyph>
<glyph name="idieresis" format="2">
  <advance width="230"/>
  <unicode hex="00EF"/>
  <outline>
    <contour>
      <point x="59" y="0" type="line"/>
      <point x="140" y="0" type="line"/>
      <point x="140" y="446" type="line"/>
      <point x="59" y="446" type="line"/>
    </contour>
    <contour>
      <point x="-30" y="563" type="line"/>
      <point x="50" y="563" type="line"/>
      <point x="50" y="645" type="line"/>
      <point x="-30" y="645" type="line"/>
    </contour>
    <contour>
      <point x="149" y="563" type="line"/>
      <point x="229" y="563" type="line"/>
      <point x="229" y="645" type="line"/>
      <point x="149" y="645" type="line"/>
    </contour>
  </outline>
</glyph>
<glyph name="eth" format="2">
  <advance width="523"/>
  <unicode hex="00F0"/>
  <outline>
    <contour>
      <point x="262" y="-13" type="curve" smooth="yes"/>
      <point x="415" y="-13"/>
      <point x="480" y="97"/>
      <point x="480" y="221" type="curve" smooth="yes"/>
      <point x="480" y="456"/>
      <point x="287" y="557"/>
      <point x="287" y="557" type="curve"/>
      <point x="408" y="613" type="line"/>
      <point x="388" y="650" type="line"/>
      <point x="247" y="587" type="line"/>
      <point x="207" y="615"/>
      <point x="165" y="636"/>
      <point x="125" y="652" type="curve"/>
      <point x="81" y="626" type="line"/>
      <point x="116" y="609"/>
      <point x="152" y="590"/>
      <point x="187" y="561" type="curve"/>
      <point x="62" y="503" type="line"/>
      <point x="78" y="464" type="line"/>
      <point x="233" y="531" type="line"/>
      <point x="258" y="513"/>
      <point x="282" y="488"/>
      <point x="298" y="454" type="curve"/>
      <point x="291" y="454"/>
      <point x="274" y="455"/>
      <point x="262" y="455" type="curve" smooth="yes"/>
      <point x="101" y="455"/>
      <point x="45" y="349"/>
      <point x="45" y="221" type="curve" smooth="yes"/>
      <point x="45" y="81"/>
      <point x="117" y="-13"/>
    </contour>
    <contour>
      <point x="262" y="47" type="curve" smooth="yes"/>
      <point x="168" y="47"/>
      <point x="127" y="124"/>
      <point x="127" y="221" type="curve" smooth="yes"/>
      <point x="127" y="318"/>
      <point x="180" y="395"/>
      <point x="262" y="395" type="curve" smooth="yes"/>
      <point x="346" y="395"/>
      <point x="399" y="330"/>
      <point x="398" y="221" type="curve" smooth="yes"/>
      <point x="398" y="139"/>
      <point x="362" y="47"/>
    </contour>
  </outline>
</glyph>
<glyph name="divide" format="2">
  <advance width="734"/>
  <unicode hex="00F7"/>
  <outline>
    <contour>
      <point x="100" y="250" type="line"/>
      <point x="634" y="250" type="line"/>
      <point x="634" y="305" type="line"/>
      <point x="100" y="305" type="line"/>
    </contour>
    <contour>
      <point x="367" y="82" type="curve"/>
      <point x="396" y="82"/>
      <point x="420" y="105"/>
      <point x="420" y="134" type="curve"/>
      <point x="420" y="165"/>
      <point x="396" y="188"/>
      <point x="367" y="188" type="curve"/>
      <point x="338" y="188"/>
      <point x="314" y="165"/>
      <point x="314" y="134" type="curve"/>
      <point x="314" y="105"/>
      <point x="338" y="82"/>
    </contour>
    <contour>
      <point x="367" y="368" type="curve"/>
      <point x="396" y="368"/>
      <point x="420" y="391"/>
      <point x="420" y="421" type="curve"/>
      <point x="420" y="451"/>
      <point x="396" y="475"/>
      <point x="367" y="475" type="curve"/>
      <point x="338" y="475"/>
      <point x="314" y="451"/>
      <point x="314" y="421" type="curve"/>
      <point x="314" y="391"/>
      <point x="338" y="368"/>
    </contour>
  </outline>
</glyph>
<glyph name="oslash" format="2">
  <advance width="526"/>
  <unicode hex="00F8"/>
  <outline>
    <contour>
      <point x="73" y="-83" type="line"/>
      <point x="143" y="9" type="line"/>
      <point x="178" y="-13"/>
      <point x="219" y="-22"/>
      <point x="264" y="-22" type="curve" smooth="yes"/>
      <point x="384" y="-22"/>
      <point x="483" y="54"/>
      <point x="483" y="212" type="curve" smooth="yes"/>
      <point x="483" y="293"/>
      <point x="458" y="353"/>
      <point x="418" y="387" type="curve"/>
      <point x="490" y="482" type="line"/>
      <point x="445" y="515" type="line"/>
      <point x="374" y="420" type="line"/>
      <point x="341" y="438"/>
      <point x="304" y="446"/>
      <point x="264" y="446" type="curve" smooth="yes"/>
      <point x="143" y="446"/>
      <point x="45" y="371"/>
      <point x="45" y="212" type="curve" smooth="yes"/>
      <point x="45" y="135"/>
      <point x="68" y="76"/>
      <point x="101" y="44" type="curve"/>
      <point x="28" y="-50" type="line"/>
    </contour>
    <contour>
      <point x="264" y="35" type="curve" smooth="yes"/>
      <point x="231" y="35"/>
      <point x="206" y="46"/>
      <point x="185" y="63" type="curve"/>
      <point x="373" y="322" type="line"/>
      <point x="391" y="286"/>
      <point x="399" y="248"/>
      <point x="399" y="212" type="curve" smooth="yes"/>
      <point x="399" y="128"/>
      <point x="358" y="35"/>
    </contour>
    <contour>
      <point x="150" y="111" type="line"/>
      <point x="136" y="140"/>
      <point x="128" y="177"/>
      <point x="128" y="212" type="curve" smooth="yes"/>
      <point x="128" y="295"/>
      <point x="169" y="389"/>
      <point x="264" y="389" type="curve" smooth="yes"/>
      <point x="292" y="389"/>
      <point x="317" y="380"/>
      <point x="335" y="366" type="curve"/>
    </contour>
  </outline>
</glyph>
<glyph name="thorn" format="2">
  <advance width="532"/>
  <unicode hex="00FE"/>
  <outline>
    <contour>
      <point x="61" y="-203" type="line"/>
      <point x="141" y="-203" type="line"/>
      <point x="141" y="20" type="line"/>
      <point x="178" y="-10"/>
      <point x="222" y="-39"/>
      <point x="282" y="-39" type="curve"/>
      <point x="433" y="-39"/>
      <point x="487" y="66"/>
      <point x="487" y="196" type="curve"/>
      <point x="487" y="327"/>
      <point x="433" y="430"/>
      <point x="282" y="430" type="curve"/>
      <point x="222" y="430"/>
      <point x="183" y="401"/>
      <point x="141" y="362" type="curve"/>
      <point x="141" y="616" type="line"/>
      <point x="61" y="616" type="line"/>
    </contour>
    <contour>
      <point x="271" y="19" type="curve"/>
      <point x="178" y="19"/>
      <point x="140" y="105"/>
      <point x="140" y="196" type="curve"/>
      <point x="140" y="287"/>
      <point x="178" y="374"/>
      <point x="271" y="374" type="curve"/>
      <point x="364" y="374"/>
      <point x="402" y="287"/>
      <point x="402" y="196" type="curve"/>
      <point x="402" y="105"/>
      <point x="364" y="19"/>
    </contour>
  </outline>
</glyph>
<glyph name="idotless" format="2">
  <advance width="204"/>
  <unicode hex="0131"/>
  <outline>
    <contour>
      <point x="61" y="0" type="line"/>
      <point x="142" y="0" type="line"/>
      <point x="142" y="445" type="line"/>
      <point x="61" y="445" type="line"/>
    </contour>
  </outline>
</glyph>
<glyph name="OE" format="2">
  <advance width="903"/>
  <unicode hex="0152"/>
  <outline>
    <contour>
      <point x="342" y="-14" type="curve"/>
      <point x="369" y="-14"/>
      <point x="394" y="-11"/>
      <point x="428" y="-2" type="curve"/>
      <point x="841" y="-2" type="line"/>
      <point x="841" y="76" type="line"/>
      <point x="564" y="76" type="line"/>
      <point x="564" y="289" type="line"/>
      <point x="822" y="289" type="line"/>
      <point x="822" y="366" type="line"/>
      <point x="564" y="366" type="line"/>
      <point x="564" y="563" type="line"/>
      <point x="841" y="563" type="line"/>
      <point x="841" y="641" type="line"/>
      <point x="439" y="641" type="line"/>
      <point x="405" y="649"/>
      <point x="375" y="654"/>
      <point x="342" y="654" type="curve"/>
      <point x="161" y="654"/>
      <point x="52" y="503"/>
      <point x="52" y="320" type="curve"/>
      <point x="52" y="136"/>
      <point x="161" y="-14"/>
    </contour>
    <contour>
      <point x="342" y="64" type="curve"/>
      <point x="204" y="64"/>
      <point x="144" y="184"/>
      <point x="144" y="320" type="curve"/>
      <point x="144" y="455"/>
      <point x="204" y="576"/>
      <point x="342" y="576" type="curve"/>
      <point x="415" y="576"/>
      <point x="475" y="534"/>
      <point x="475" y="534" type="curve"/>
      <point x="475" y="114" type="line"/>
      <point x="475" y="114"/>
      <point x="431" y="64"/>
    </contour>
  </outline>
</glyph>
<glyph name="oe" format="2">
  <advance width="834"/>
  <unicode hex="0153"/>
  <outline>
    <contour>
      <point x="255" y="-13" type="curve" smooth="yes"/>
      <point x="324" y="-13"/>
      <point x="388" y="10"/>
      <point x="422" y="95" type="curve"/>
      <point x="448" y="9"/>
      <point x="519" y="-13"/>
      <point x="588" y="-13" type="curve" smooth="yes"/>
      <point x="694" y="-13"/>
      <point x="775" y="47"/>
      <point x="788" y="140" type="curve"/>
      <point x="702" y="140" type="line"/>
      <point x="698" y="89"/>
      <point x="660" y="44"/>
      <point x="589" y="44" type="curve" smooth="yes"/>
      <point x="476" y="44"/>
      <point x="459" y="171"/>
      <point x="459" y="209" type="curve"/>
      <point x="788" y="209" type="line"/>
      <point x="788" y="209"/>
      <point x="789" y="228"/>
      <point x="789" y="249" type="curve" smooth="yes"/>
      <point x="789" y="330"/>
      <point x="752" y="455"/>
      <point x="594" y="455" type="curve" smooth="yes"/>
      <point x="517" y="455"/>
      <point x="465" y="431"/>
      <point x="425" y="360" type="curve"/>
      <point x="393" y="433"/>
      <point x="328" y="455"/>
      <point x="255" y="455" type="curve" smooth="yes"/>
      <point x="135" y="455"/>
      <point x="45" y="380"/>
      <point x="45" y="221" type="curve" smooth="yes"/>
      <point x="45" y="63"/>
      <point x="135" y="-13"/>
    </contour>
    <contour>
      <point x="255" y="44" type="curve" smooth="yes"/>
      <point x="161" y="44"/>
      <point x="128" y="137"/>
      <point x="128" y="221" type="curve" smooth="yes"/>
      <point x="128" y="304"/>
      <point x="161" y="398"/>
      <point x="255" y="398" type="curve" smooth="yes"/>
      <point x="350" y="398"/>
      <point x="383" y="304"/>
      <point x="383" y="221" type="curve" smooth="yes"/>
      <point x="383" y="137"/>
      <point x="350" y="44"/>
    </contour>
    <contour>
      <point x="459" y="266" type="line"/>
      <point x="459" y="300"/>
      <point x="489" y="398"/>
      <point x="590" y="398" type="curve" smooth="yes"/>
      <point x="702" y="398"/>
      <point x="702" y="298"/>
      <point x="702" y="266" type="curve"/>
    </contour>
  </outline>
</glyph>
<glyph name="Scaron" format="2">
  <advance width="590"/>
  <unicode hex="0160"/>
  <outline>
    <contour>
      <point x="265" y="-14" type="curve" smooth="yes"/>
      <point x="390" y="-14"/>
      <point x="536" y="27"/>
      <point x="536" y="178" type="curve" smooth="yes"/>
      <point x="536" y="440"/>
      <point x="151" y="310"/>
      <point x="151" y="476" type="curve" smooth="yes"/>
      <point x="151" y="553"/>
      <point x="205" y="578"/>
      <point x="275" y="578" type="curve" smooth="yes"/>
      <point x="346" y="578"/>
      <point x="421" y="568"/>
      <point x="420" y="481" type="curve"/>
      <point x="510" y="481" type="line"/>
      <point x="510" y="613"/>
      <point x="395" y="656"/>
      <point x="281" y="656" type="curve" smooth="yes"/>
      <point x="180" y="656"/>
      <point x="61" y="592"/>
      <point x="61" y="479" type="curve" smooth="yes"/>
      <point x="61" y="204"/>
      <point x="446" y="375"/>
      <point x="446" y="171" type="curve" smooth="yes"/>
      <point x="446" y="73"/>
      <point x="337" y="65"/>
      <point x="263" y="65" type="curve" smooth="yes"/>
      <point x="192" y="65"/>
      <point x="143" y="122"/>
      <point x="143" y="190" type="curve"/>
      <point x="52" y="190" type="line"/>
      <point x="52" y="65"/>
      <point x="142" y="-14"/>
    </contour>
    <contour>
      <point x="245" y="732" type="line"/>
      <point x="343" y="732" type="line"/>
      <point x="423" y="884" type="line"/>
      <point x="370" y="884" type="line"/>
      <point x="294" y="786" type="line"/>
      <point x="218" y="884" type="line"/>
      <point x="165" y="884" type="line"/>
    </contour>
  </outline>
</glyph>
<glyph name="scaron" format="2">
  <advance width="450"/>
  <unicode hex="0161"/>
  <outline>
    <contour>
      <point x="392" y="325" type="line"/>
      <point x="392" y="433"/>
      <point x="317" y="457"/>
      <point x="224" y="457" type="curve" smooth="yes"/>
      <point x="96" y="457"/>
      <point x="56" y="392"/>
      <point x="56" y="333" type="curve" smooth="yes"/>
      <point x="56" y="141"/>
      <point x="323" y="237"/>
      <point x="323" y="124" type="curve" smooth="yes"/>
      <point x="323" y="70"/>
      <point x="269" y="45"/>
      <point x="220" y="45" type="curve" smooth="yes"/>
      <point x="167" y="45"/>
      <point x="128" y="66"/>
      <point x="127" y="128" type="curve"/>
      <point x="45" y="128" type="line"/>
      <point x="45" y="25"/>
      <point x="119" y="-13"/>
      <point x="210" y="-13" type="curve" smooth="yes"/>
      <point x="306" y="-13"/>
      <point x="405" y="21"/>
      <point x="405" y="130" type="curve" smooth="yes"/>
      <point x="405" y="307"/>
      <point x="138" y="219"/>
      <point x="138" y="333" type="curve" smooth="yes"/>
      <point x="138" y="374"/>
      <point x="176" y="399"/>
      <point x="222" y="399" type="curve" smooth="yes"/>
      <point x="298" y="399"/>
      <point x="310" y="358"/>
      <point x="310" y="325" type="curve"/>
    </contour>
    <contour>
      <point x="274" y="534" type="line"/>
      <point x="354" y="686" type="line"/>
      <point x="300" y="686" type="line"/>
      <point x="224" y="588" type="line"/>
      <point x="149" y="686" type="line"/>
      <point x="95" y="686" type="line"/>
      <point x="175" y="534" type="line"/>
    </contour>
  </outline>
</glyph>
<glyph name="Ydieresis" format="2">
  <advance width="598"/>
  <unicode hex="0178"/>
  <outline>
    <contour>
      <point x="344" y="256" type="line"/>
      <point x="583" y="645" type="line"/>
      <point x="481" y="645" type="line"/>
      <point x="304" y="335" type="line"/>
      <point x="125" y="645" type="line"/>
      <point x="15" y="645" type="line"/>
      <point x="253" y="256" type="line"/>
      <point x="253" y="0" type="line"/>
      <point x="344" y="0" type="line"/>
    </contour>
    <contour>
      <point x="169" y="760" type="line"/>
      <point x="250" y="760" type="line"/>
      <point x="250" y="842" type="line"/>
      <point x="169" y="842" type="line"/>
    </contour>
    <contour>
      <point x="348" y="760" type="line"/>
      <point x="428" y="760" type="line"/>
      <point x="428" y="842" type="line"/>
      <point x="348" y="842" type="line"/>
    </contour>
  </outline>
</glyph>
<glyph name="Zcaron" format="2">
  <advance width="551"/>
  <unicode hex="017D"/>
  <outline>
    <contour>
      <point x="40" y="0" type="line"/>
      <point x="510" y="0" type="line"/>
      <point x="510" y="78" type="line"/>
      <point x="138" y="78" type="line"/>
      <point x="501" y="546" type="line"/>
      <point x="501" y="645" type="line"/>
      <point x="58" y="645" type="line"/>
      <point x="58" y="567" type="line"/>
      <point x="402" y="567" type="line"/>
      <point x="40" y="98" type="line"/>
    </contour>
    <contour>
      <point x="217" y="734" type="line"/>
      <point x="315" y="734" type="line"/>
      <point x="395" y="886" type="line"/>
      <point x="342" y="886" type="line"/>
      <point x="266" y="788" type="line"/>
      <point x="190" y="886" type="line"/>
      <point x="136" y="886" type="line"/>
    </contour>
  </outline>
</glyph>
<glyph name="zcaron" format="2">
  <advance width="419"/>
  <unicode hex="017E"/>
  <outline>
    <contour>
      <point x="45" y="0" type="line"/>
      <point x="374" y="0" type="line"/>
      <point x="374" y="62" type="line"/>
      <point x="134" y="62" type="line"/>
      <point x="374" y="372" type="line"/>
      <point x="374" y="446" type="line"/>
      <point x="63" y="446" type="line"/>
      <point x="63" y="384" type="line"/>
      <point x="283" y="384" type="line"/>
      <point x="45" y="74" type="line"/>
    </contour>
    <contour>
      <point x="167" y="536" type="line"/>
      <point x="265" y="536" type="line"/>
      <point x="345" y="688" type="line"/>
      <point x="292" y="688" type="line"/>
      <point x="216" y="589" type="line"/>
      <point x="140" y="688" type="line"/>
      <point x="86" y="688" type="line"/>
    </contour>
  </outline>
</glyph>
<glyph name="florin" format="2">
  <advance width="504"/>
  <unicode hex="0192"/>
  <outline>
    <contour>
      <point x="-26" y="-211" type="curve"/>
      <point x="84" y="-211"/>
      <point x="131" y="-167"/>
      <point x="170" y="-25" type="curve"/>
      <point x="275" y="366" type="line"/>
      <point x="382" y="366" type="line"/>
      <point x="398" y="424" type="line"/>
      <point x="290" y="424" type="line"/>
      <point x="317" y="532"/>
      <point x="338" y="567"/>
      <point x="393" y="567" type="curve"/>
      <point x="411" y="567"/>
      <point x="429" y="564"/>
      <point x="442" y="556" type="curve"/>
      <point x="459" y="622" type="line"/>
      <point x="444" y="627"/>
      <point x="422" y="631"/>
      <point x="398" y="631" type="curve"/>
      <point x="277" y="631"/>
      <point x="249" y="570"/>
      <point x="210" y="424" type="curve"/>
      <point x="121" y="424" type="line"/>
      <point x="106" y="366" type="line"/>
      <point x="195" y="366" type="line"/>
      <point x="90" y="-25" type="line"/>
      <point x="65" y="-115"/>
      <point x="39" y="-145"/>
      <point x="-19" y="-145" type="curve"/>
      <point x="-34" y="-145"/>
      <point x="-46" y="-142"/>
      <point x="-55" y="-132" type="curve"/>
      <point x="-73" y="-199" type="line"/>
      <point x="-59" y="-207"/>
      <point x="-43" y="-211"/>
    </contour>
  </outline>
</glyph>
<glyph name="circumflex" format="2">
  <advance width="297"/>
  <unicode hex="02C6"/>
  <outline>
    <contour>
      <point x="0" y="614" type="line"/>
      <point x="53" y="614" type="line"/>
      <point x="129" y="712" type="line"/>
      <point x="205" y="614" type="line"/>
      <point x="258" y="614" type="line"/>
      <point x="178" y="766" type="line"/>
      <point x="80" y="766" type="line"/>
    </contour>
  </outline>
</glyph>
<glyph name="caron" format="2">
  <advance width="290"/>
  <unicode hex="02C7"/>
  <outline>
    <contour>
      <point x="80" y="600" type="line"/>
      <point x="179" y="600" type="line"/>
      <point x="259" y="752" type="line"/>
      <point x="205" y="752" type="line"/>
      <point x="129" y="654" type="line"/>
      <point x="54" y="752" type="line"/>
      <point x="0" y="752" type="line"/>
    </contour>
  </outline>
</glyph>
<glyph name="breve" format="2">
  <advance width="282"/>
  <unicode hex="02D8"/>
  <outline>
    <contour>
      <point x="252" y="704" type="curve"/>
      <point x="205" y="704" type="line"/>
      <point x="199" y="675"/>
      <point x="157" y="656"/>
      <point x="126" y="656" type="curve"/>
      <point x="95" y="656"/>
      <point x="53" y="675"/>
      <point x="46" y="704" type="curve"/>
      <point x="0" y="704" type="line"/>
      <point x="7" y="653"/>
      <point x="54" y="600"/>
      <point x="126" y="600" type="curve"/>
      <point x="196" y="600"/>
      <point x="244" y="653"/>
    </contour>
  </outline>
</glyph>
<glyph name="dotaccent" format="2">
  <advance width="90"/>
  <unicode hex="02D9"/>
  <outline>
    <contour>
      <point x="0" y="600" type="line"/>
      <point x="80" y="600" type="line"/>
      <point x="80" y="689" type="line"/>
      <point x="0" y="689" type="line"/>
    </contour>
  </outline>
</glyph>
<glyph name="ring" format="2">
  <advance width="225"/>
  <unicode hex="02DA"/>
  <outline>
    <contour>
      <point x="196" y="712" type="curve"/>
      <point x="196" y="767"/>
      <point x="152" y="810"/>
      <point x="98" y="810" type="curve"/>
      <point x="44" y="810"/>
      <point x="0" y="767"/>
      <point x="0" y="712" type="curve"/>
      <point x="0" y="658"/>
      <point x="44" y="614"/>
      <point x="98" y="614" type="curve"/>
      <point x="152" y="614"/>
      <point x="196" y="658"/>
    </contour>
    <contour>
      <point x="160" y="712" type="curve"/>
      <point x="160" y="678"/>
      <point x="133" y="650"/>
      <point x="98" y="650" type="curve"/>
      <point x="63" y="650"/>
      <point x="36" y="678"/>
      <point x="36" y="712" type="curve"/>
      <point x="36" y="747"/>
      <point x="63" y="775"/>
      <point x="98" y="775" type="curve"/>
      <point x="133" y="775"/>
      <point x="160" y="747"/>
    </contour>
  </outline>
</glyph>
<glyph name="ogonek" format="2">
  <advance width="200"/>
  <unicode hex="02DB"/>
  <outline>
    <contour>
      <point x="142" y="-216" type="curve"/>
      <point x="142" y="-154" type="line"/>
      <point x="142" y="-154"/>
      <point x="125" y="-158"/>
      <point x="106" y="-158" type="curve"/>
      <point x="85" y="-158"/>
      <point x="62" y="-151"/>
      <point x="62" y="-127" type="curve"/>
      <point x="62" y="-66"/>
      <point x="107" y="-24"/>
      <point x="107" y="-24" type="curve"/>
      <point x="71" y="-24" type="line"/>
      <point x="71" y="-24"/>
      <point x="0" y="-83"/>
      <point x="0" y="-144" type="curve"/>
      <point x="0" y="-192"/>
      <point x="28" y="-220"/>
      <point x="79" y="-220" type="curve"/>
      <point x="95" y="-220"/>
      <point x="142" y="-216"/>
    </contour>
  </outline>
</glyph>
<glyph name="tilde" format="2">
  <advance width="297"/>
  <unicode hex="02DC"/>
  <outline>
    <contour>
      <point x="0" y="635" type="curve"/>
      <point x="49" y="635" type="line"/>
      <point x="56" y="662"/>
      <point x="66" y="671"/>
      <point x="77" y="671" type="curve"/>
      <point x="100" y="671"/>
      <point x="132" y="638"/>
      <point x="183" y="638" type="curve"/>
      <point x="215" y="638"/>
      <point x="254" y="667"/>
      <point x="258" y="726" type="curve"/>
      <point x="209" y="726" type="line"/>
      <point x="202" y="698"/>
      <point x="193" y="689"/>
      <point x="182" y="689" type="curve"/>
      <point x="159" y="689"/>
      <point x="126" y="722"/>
      <point x="75" y="722" type="curve"/>
      <point x="43" y="722"/>
      <point x="4" y="693"/>
    </contour>
  </outline>
</glyph>
<glyph name="hungarumlaut" format="2">
  <advance width="300"/>
  <unicode hex="02DD"/>
  <outline>
    <contour>
      <point x="125" y="600" type="line"/>
      <point x="170" y="600" type="line"/>
      <point x="268" y="753" type="line"/>
      <point x="188" y="753" type="line"/>
    </contour>
    <contour>
      <point x="0" y="600" type="line"/>
      <point x="45" y="600" type="line"/>
      <point x="143" y="753" type="line"/>
      <point x="62" y="753" type="line"/>
    </contour>
  </outline>
</glyph>
<glyph name="u1000" format="2">
  <advance width="1002"/>
  <unicode hex="1000"/>
  <anchor x="508" y="-53" name="BD"/>
  <anchor x="714" y="-53" name="BS"/>
  <anchor x="714" y="-53" name="L"/>
  <anchor x="714" y="495" name="U"/>
  <anchor x="0" y="0" name="_R"/>
  <outline>
    <contour>
      <point x="295" y="456" type="curve" smooth="yes"/>
      <point x="160" y="456"/>
      <point x="57" y="350"/>
      <point x="57" y="208" type="curve" smooth="yes"/>
      <point x="57" y="118"/>
      <point x="95" y="36"/>
      <point x="155" y="-15" type="curve"/>
      <point x="183" y="28" type="line"/>
      <point x="137" y="69"/>
      <point x="108" y="135"/>
      <point x="108" y="208" type="curve" smooth="yes"/>
      <point x="108" y="322"/>
      <point x="189" y="405"/>
      <point x="295" y="405" type="curve" smooth="yes"/>
      <point x="401" y="405"/>
      <point x="482" y="322"/>
      <point x="482" y="208" type="curve" smooth="yes"/>
      <point x="482" y="135"/>
      <point x="453" y="69"/>
      <point x="407" y="28" type="curve"/>
      <point x="435" y="-15" type="line"/>
      <point x="495" y="36"/>
      <point x="533" y="118"/>
      <point x="533" y="208" type="curve" smooth="yes"/>
      <point x="533" y="350"/>
      <point x="430" y="456"/>
    </contour>
    <contour>
      <point x="956" y="222" type="curve" smooth="yes"/>
      <point x="956" y="381"/>
      <point x="824" y="459"/>
      <point x="719" y="459" type="curve" smooth="yes"/>
      <point x="633" y="459"/>
      <point x="537" y="408"/>
      <point x="498" y="301" type="curve"/>
      <point x="533" y="215" type="line"/>
      <point x="533" y="334"/>
      <point x="626" y="408"/>
      <point x="719" y="408" type="curve" smooth="yes"/>
      <point x="799" y="408"/>
      <point x="905" y="342"/>
      <point x="905" y="222" type="curve" smooth="yes"/>
      <point x="905" y="119"/>
      <point x="822" y="36"/>
      <point x="722" y="36" type="curve" smooth="yes"/>
      <point x="703" y="36"/>
      <point x="684" y="39"/>
      <point x="664" y="45" type="curve"/>
      <point x="643" y="-3" type="line"/>
      <point x="669" y="-11"/>
      <point x="694" y="-15"/>
      <point x="719" y="-15" type="curve" smooth="yes"/>
      <point x="848" y="-15"/>
      <point x="956" y="90"/>
    </contour>
  </outline>
</glyph>
<glyph name="u1001" format="2">
  <advance width="1152"/>
  <unicode hex="1001"/>
  <anchor x="566" y="-106" name="BD"/>
  <anchor x="566" y="-106" name="BS"/>
  <anchor x="566" y="-106" name="L"/>
  <anchor x="566" y="990" name="U"/>
  <anchor x="0" y="0" name="_R"/>
  <outline>
    <contour>
      <point x="748" y="118" type="curve"/>
      <point x="690" y="228"/>
      <point x="556" y="306"/>
      <point x="426" y="306" type="curve" smooth="yes"/>
      <point x="370" y="306"/>
      <point x="296" y="290"/>
      <point x="230" y="254" type="curve"/>
      <point x="302" y="132"/>
      <point x="430" y="72"/>
      <point x="566" y="72" type="curve" smooth="yes"/>
      <point x="636" y="72"/>
      <point x="692" y="88"/>
    </contour>
    <contour>
      <point x="1040" y="444" type="curve" smooth="yes"/>
      <point x="1040" y="182"/>
      <point x="828" y="-30"/>
      <point x="566" y="-30" type="curve" smooth="yes"/>
      <point x="338" y="-30"/>
      <point x="144" y="108"/>
      <point x="110" y="306" type="curve"/>
      <point x="222" y="374"/>
      <point x="334" y="408"/>
      <point x="420" y="408" type="curve" smooth="yes"/>
      <point x="606" y="408"/>
      <point x="766" y="294"/>
      <point x="834" y="182" type="curve"/>
      <point x="898" y="252"/>
      <point x="938" y="340"/>
      <point x="938" y="444" type="curve" smooth="yes"/>
      <point x="938" y="646"/>
      <point x="772" y="816"/>
      <point x="566" y="816" type="curve" smooth="yes"/>
      <point x="428" y="816"/>
      <point x="280" y="732"/>
      <point x="212" y="594" type="curve"/>
      <point x="126" y="644" type="line"/>
      <point x="196" y="812"/>
      <point x="382" y="918"/>
      <point x="566" y="918" type="curve" smooth="yes"/>
      <point x="828" y="918"/>
      <point x="1040" y="702"/>
    </contour>
  </outline>
</glyph>
<glyph name="u1002" format="2">
  <advance width="585"/>
  <unicode hex="1002"/>
  <anchor x="0" y="0" name="_R"/>
  <anchor x="292" y="-53" name="BS"/>
  <anchor x="292" y="-53" name="L"/>
  <anchor x="292" y="495" name="U"/>
  <anchor x="292" y="-53" name="BD"/>
  <outline>
    <contour>
      <point x="529" y="202" type="curve" smooth="yes"/>
      <point x="529" y="90"/>
      <point x="490" y="31"/>
      <point x="432" y="-15" type="curve"/>
      <point x="402" y="28" type="line"/>
      <point x="448" y="70"/>
      <point x="478" y="126"/>
      <point x="478" y="202" type="curve" smooth="yes"/>
      <point x="478" y="322"/>
      <point x="394" y="406"/>
      <point x="292" y="406" type="curve" smooth="yes"/>
      <point x="190" y="406"/>
      <point x="106" y="322"/>
      <point x="106" y="202" type="curve" smooth="yes"/>
      <point x="106" y="126"/>
      <point x="136" y="70"/>
      <point x="183" y="28" type="curve"/>
      <point x="153" y="-15" type="line"/>
      <point x="97" y="31"/>
      <point x="55" y="90"/>
      <point x="55" y="202" type="curve" smooth="yes"/>
      <point x="55" y="355"/>
      <point x="162" y="457"/>
      <point x="292" y="457" type="curve" smooth="yes"/>
      <point x="423" y="457"/>
      <point x="529" y="355"/>
    </contour>
  </outline>
</glyph>
<glyph name="u1003" format="2">
  <advance width="1998"/>
  <unicode hex="1003"/>
  <anchor x="990" y="-106" name="BD"/>
  <anchor x="1424" y="-106" name="BS"/>
  <anchor x="1424" y="-106" name="L"/>
  <anchor x="1424" y="990" name="U"/>
  <anchor x="0" y="0" name="_R"/>
  <outline>
    <contour>
      <point x="1886" y="444" type="curve" smooth="yes"/>
      <point x="1886" y="182"/>
      <point x="1674" y="-30"/>
      <point x="1422" y="-30" type="curve" smooth="yes"/>
      <point x="1244" y="-30"/>
      <point x="1086" y="92"/>
      <point x="1002" y="260" type="curve"/>
      <point x="926" y="80"/>
      <point x="762" y="-30"/>
      <point x="570" y="-30" type="curve" smooth="yes"/>
      <point x="288" y="-30"/>
      <point x="110" y="176"/>
      <point x="110" y="336" type="curve" smooth="yes"/>
      <point x="110" y="588"/>
      <point x="390" y="570"/>
      <point x="390" y="678" type="curve" smooth="yes"/>
      <point x="390" y="776"/>
      <point x="332" y="810"/>
      <point x="284" y="810" type="curve" smooth="yes"/>
      <point x="236" y="810"/>
      <point x="200" y="764"/>
      <point x="198" y="750" type="curve"/>
      <point x="110" y="804" type="line"/>
      <point x="122" y="844"/>
      <point x="212" y="912"/>
      <point x="284" y="912" type="curve" smooth="yes"/>
      <point x="392" y="912"/>
      <point x="492" y="830"/>
      <point x="492" y="678" type="curve" smooth="yes"/>
      <point x="492" y="486"/>
      <point x="212" y="510"/>
      <point x="212" y="336" type="curve" smooth="yes"/>
      <point x="212" y="288"/>
      <point x="312" y="72"/>
      <point x="570" y="72" type="curve" smooth="yes"/>
      <point x="806" y="72"/>
      <point x="942" y="270"/>
      <point x="942" y="504" type="curve" smooth="yes"/>
      <point x="942" y="642"/>
      <point x="868" y="760"/>
      <point x="788" y="828" type="curve"/>
      <point x="848" y="914" type="line"/>
      <point x="960" y="824"/>
      <point x="1044" y="694"/>
      <point x="1044" y="480" type="curve" smooth="yes"/>
      <point x="1044" y="296"/>
      <point x="1232" y="72"/>
      <point x="1422" y="72" type="curve" smooth="yes"/>
      <point x="1622" y="72"/>
      <point x="1784" y="240"/>
      <point x="1784" y="444" type="curve" smooth="yes"/>
      <point x="1784" y="648"/>
      <point x="1622" y="816"/>
      <point x="1422" y="816" type="curve" smooth="yes"/>
      <point x="1388" y="816"/>
      <point x="1352" y="810"/>
      <point x="1320" y="794" type="curve"/>
      <point x="1280" y="888" type="line"/>
      <point x="1326" y="908"/>
      <point x="1374" y="918"/>
      <point x="1422" y="918" type="curve" smooth="yes"/>
      <point x="1674" y="918"/>
      <point x="1886" y="702"/>
    </contour>
  </outline>
</glyph>
<glyph name="u1004" format="2">
  <advance width="568"/>
  <unicode hex="1004"/>
  <anchor x="0" y="0" name="_R"/>
  <anchor x="292" y="-53" name="BS"/>
  <anchor x="292" y="-53" name="L"/>
  <anchor x="292" y="495" name="U"/>
  <anchor x="292" y="-53" name="BD"/>
  <outline>
    <contour>
      <point x="513" y="121" type="line"/>
      <point x="475" y="31"/>
      <point x="381" y="-15"/>
      <point x="292" y="-15" type="curve" smooth="yes"/>
      <point x="162" y="-15"/>
      <point x="55" y="91"/>
      <point x="55" y="222" type="curve" smooth="yes"/>
      <point x="55" y="351"/>
      <point x="162" y="459"/>
      <point x="292" y="459" type="curve" smooth="yes"/>
      <point x="381" y="459"/>
      <point x="475" y="412"/>
      <point x="513" y="322" type="curve"/>
      <point x="469" y="297" type="line"/>
      <point x="432" y="367"/>
      <point x="363" y="408"/>
      <point x="292" y="408" type="curve" smooth="yes"/>
      <point x="190" y="408"/>
      <point x="106" y="324"/>
      <point x="106" y="222" type="curve" smooth="yes"/>
      <point x="106" y="120"/>
      <point x="190" y="36"/>
      <point x="292" y="36" type="curve" smooth="yes"/>
      <point x="363" y="36"/>
      <point x="432" y="76"/>
      <point x="469" y="147" type="curve"/>
    </contour>
  </outline>
</glyph>
<glyph name="u1005" format="2">
  <advance width="576"/>
  <unicode hex="1005"/>
  <anchor x="288" y="-53" name="BD"/>
  <anchor x="288" y="-53" name="BS"/>
  <anchor x="288" y="-53" name="L"/>
  <anchor x="288" y="495" name="U"/>
  <anchor x="0" y="0" name="_R"/>
  <outline>
    <contour>
      <point x="160" y="374" type="line"/>
      <point x="208" y="340"/>
      <point x="239" y="284"/>
      <point x="239" y="222" type="curve" smooth="yes"/>
      <point x="239" y="159"/>
      <point x="208" y="104"/>
      <point x="161" y="70" type="curve"/>
      <point x="208" y="43" type="line"/>
      <point x="258" y="86"/>
      <point x="290" y="150"/>
      <point x="290" y="221" type="curve" smooth="yes"/>
      <point x="290" y="294"/>
      <point x="258" y="359"/>
      <point x="207" y="403" type="curve"/>
    </contour>
    <contour>
      <point x="51" y="224" type="curve" smooth="yes"/>
      <point x="51" y="94"/>
      <point x="157" y="-15"/>
      <point x="289" y="-15" type="curve" smooth="yes"/>
      <point x="419" y="-15"/>
      <point x="525" y="91"/>
      <point x="525" y="221" type="curve" smooth="yes"/>
      <point x="525" y="353"/>
      <point x="419" y="459"/>
      <point x="289" y="459" type="curve" smooth="yes"/>
      <point x="157" y="459"/>
      <point x="51" y="356"/>
    </contour>
    <contour>
      <point x="102" y="221" type="curve" smooth="yes"/>
      <point x="102" y="323"/>
      <point x="185" y="408"/>
      <point x="288" y="408" type="curve" smooth="yes"/>
      <point x="390" y="408"/>
      <point x="474" y="324"/>
      <point x="474" y="222" type="curve" smooth="yes"/>
      <point x="474" y="119"/>
      <point x="390" y="36"/>
      <point x="288" y="36" type="curve" smooth="yes"/>
      <point x="185" y="36"/>
      <point x="102" y="118"/>
    </contour>
  </outline>
</glyph>
<glyph name="u1006" format="2">
  <advance width="1980"/>
  <unicode hex="1006"/>
  <anchor x="990" y="-106" name="BD"/>
  <anchor x="1404" y="-106" name="BS"/>
  <anchor x="1404" y="-106" name="L"/>
  <anchor x="1404" y="990" name="U"/>
  <anchor x="0" y="0" name="_R"/>
  <outline>
    <contour>
      <point x="746" y="116" type="curve"/>
      <point x="682" y="226"/>
      <point x="564" y="306"/>
      <point x="428" y="306" type="curve" smooth="yes"/>
      <point x="362" y="306"/>
      <point x="300" y="284"/>
      <point x="230" y="252" type="curve"/>
      <point x="302" y="126"/>
      <point x="430" y="72"/>
      <point x="566" y="72" type="curve" smooth="yes"/>
      <point x="636" y="72"/>
      <point x="690" y="90"/>
    </contour>
    <contour>
      <point x="1766" y="444" type="curve" smooth="yes"/>
      <point x="1766" y="646"/>
      <point x="1604" y="816"/>
      <point x="1404" y="816" type="curve" smooth="yes"/>
      <point x="1204" y="816"/>
      <point x="1040" y="646"/>
      <point x="1040" y="444" type="curve" smooth="yes"/>
      <point x="1040" y="238"/>
      <point x="1204" y="72"/>
      <point x="1404" y="72" type="curve" smooth="yes"/>
      <point x="1604" y="72"/>
      <point x="1766" y="238"/>
    </contour>
    <contour>
      <point x="1868" y="444" type="curve" smooth="yes"/>
      <point x="1868" y="182"/>
      <point x="1656" y="-30"/>
      <point x="1404" y="-30" type="curve" smooth="yes"/>
      <point x="1222" y="-30"/>
      <point x="1064" y="76"/>
      <point x="990" y="228" type="curve"/>
      <point x="910" y="76"/>
      <point x="750" y="-30"/>
      <point x="566" y="-30" type="curve" smooth="yes"/>
      <point x="356" y="-30"/>
      <point x="136" y="106"/>
      <point x="110" y="306" type="curve"/>
      <point x="222" y="364"/>
      <point x="310" y="408"/>
      <point x="420" y="408" type="curve" smooth="yes"/>
      <point x="582" y="408"/>
      <point x="736" y="318"/>
      <point x="834" y="182" type="curve"/>
      <point x="898" y="252"/>
      <point x="938" y="340"/>
      <point x="938" y="444" type="curve" smooth="yes"/>
      <point x="938" y="646"/>
      <point x="772" y="816"/>
      <point x="566" y="816" type="curve" smooth="yes"/>
      <point x="428" y="816"/>
      <point x="290" y="732"/>
      <point x="212" y="594" type="curve"/>
      <point x="126" y="644" type="line"/>
      <point x="196" y="814"/>
      <point x="378" y="918"/>
      <point x="566" y="918" type="curve" smooth="yes"/>
      <point x="750" y="918"/>
      <point x="910" y="812"/>
      <point x="990" y="660" type="curve"/>
      <point x="1064" y="812"/>
      <point x="1222" y="918"/>
      <point x="1404" y="918" type="curve" smooth="yes"/>
      <point x="1656" y="918"/>
      <point x="1868" y="702"/>
    </contour>
  </outline>
</glyph>
<glyph name="u1007" format="2">
  <advance width="1218"/>
  <unicode hex="1007"/>
  <anchor x="572" y="-106" name="BD"/>
  <anchor x="572" y="-106" name="BS"/>
  <anchor x="572" y="-106" name="L"/>
  <anchor x="576" y="990" name="U"/>
  <anchor x="0" y="0" name="_R"/>
  <outline>
    <contour>
      <point x="1136" y="312" type="line"/>
      <point x="1098" y="384"/>
      <point x="1022" y="510"/>
      <point x="974" y="566" type="curve"/>
      <point x="966" y="752"/>
      <point x="816" y="918"/>
      <point x="572" y="918" type="curve" smooth="yes"/>
      <point x="318" y="918"/>
      <point x="110" y="698"/>
      <point x="110" y="444" type="curve" smooth="yes"/>
      <point x="110" y="182"/>
      <point x="302" y="-30"/>
      <point x="572" y="-30" type="curve" smooth="yes"/>
      <point x="726" y="-30"/>
      <point x="816" y="20"/>
      <point x="924" y="114" type="curve"/>
      <point x="858" y="194" type="line"/>
      <point x="764" y="110"/>
      <point x="690" y="72"/>
      <point x="572" y="72" type="curve" smooth="yes"/>
      <point x="368" y="72"/>
      <point x="212" y="230"/>
      <point x="212" y="444" type="curve" smooth="yes"/>
      <point x="212" y="638"/>
      <point x="368" y="816"/>
      <point x="578" y="816" type="curve" smooth="yes"/>
      <point x="734" y="816"/>
      <point x="816" y="734"/>
      <point x="848" y="650" type="curve"/>
      <point x="804" y="672"/>
      <point x="762" y="680"/>
      <point x="722" y="680" type="curve" smooth="yes"/>
      <point x="594" y="680"/>
      <point x="518" y="596"/>
      <point x="518" y="480" type="curve" smooth="yes"/>
      <point x="518" y="362"/>
      <point x="614" y="306"/>
      <point x="722" y="306" type="curve" smooth="yes"/>
      <point x="810" y="306"/>
      <point x="902" y="348"/>
      <point x="948" y="428" type="curve"/>
      <point x="990" y="372"/>
      <point x="1026" y="306"/>
      <point x="1056" y="254" type="curve"/>
    </contour>
    <contour>
      <point x="722" y="408" type="curve" smooth="yes"/>
      <point x="666" y="408"/>
      <point x="620" y="434"/>
      <point x="620" y="480" type="curve" smooth="yes"/>
      <point x="620" y="548"/>
      <point x="662" y="578"/>
      <point x="722" y="578" type="curve" smooth="yes"/>
      <point x="782" y="578"/>
      <point x="828" y="558"/>
      <point x="872" y="522" type="curve"/>
      <point x="864" y="434"/>
      <point x="786" y="408"/>
    </contour>
  </outline>
</glyph>
<glyph name="u1008" format="2">
  <advance width="721"/>
  <unicode hex="1008"/>
  <anchor x="810" y="-53" name="BD"/>
  <anchor x="810" y="-53" name="BS"/>
  <anchor x="810" y="-53" name="L"/>
  <anchor x="208" y="-53" name="LL"/>
  <anchor x="549" y="486" name="U"/>
  <anchor x="0" y="0" name="_R"/>
  <outline>
    <contour>
      <point x="403" y="29" type="line"/>
      <point x="351" y="8" type="line"/>
      <point x="351" y="-369" type="line"/>
      <point x="666" y="-450" type="line"/>
      <point x="666" y="444" type="line"/>
      <point x="615" y="444" type="line"/>
      <point x="615" y="-384" type="line"/>
      <point x="403" y="-329" type="line"/>
    </contour>
    <contour>
      <point x="164" y="374" type="line"/>
      <point x="212" y="340"/>
      <point x="243" y="284"/>
      <point x="243" y="222" type="curve" smooth="yes"/>
      <point x="243" y="159"/>
      <point x="212" y="104"/>
      <point x="165" y="70" type="curve"/>
      <point x="212" y="43" type="line"/>
      <point x="262" y="86"/>
      <point x="294" y="150"/>
      <point x="294" y="221" type="curve" smooth="yes"/>
      <point x="294" y="294"/>
      <point x="262" y="359"/>
      <point x="211" y="403" type="curve"/>
    </contour>
    <contour>
      <point x="55" y="224" type="curve" smooth="yes"/>
      <point x="55" y="94"/>
      <point x="161" y="-15"/>
      <point x="293" y="-15" type="curve" smooth="yes"/>
      <point x="423" y="-15"/>
      <point x="529" y="91"/>
      <point x="529" y="221" type="curve" smooth="yes"/>
      <point x="529" y="353"/>
      <point x="423" y="459"/>
      <point x="293" y="459" type="curve" smooth="yes"/>
      <point x="161" y="459"/>
      <point x="55" y="356"/>
    </contour>
    <contour>
      <point x="106" y="221" type="curve" smooth="yes"/>
      <point x="106" y="323"/>
      <point x="189" y="408"/>
      <point x="292" y="408" type="curve" smooth="yes"/>
      <point x="394" y="408"/>
      <point x="478" y="324"/>
      <point x="478" y="222" type="curve" smooth="yes"/>
      <point x="478" y="119"/>
      <point x="394" y="36"/>
      <point x="292" y="36" type="curve" smooth="yes"/>
      <point x="189" y="36"/>
      <point x="106" y="118"/>
    </contour>
  </outline>
</glyph>
<glyph name="u1009" format="2">
  <advance width="568"/>
  <unicode hex="1009"/>
  <anchor x="0" y="0" name="_R"/>
  <anchor x="450" y="-53" name="BS"/>
  <anchor x="724" y="-53" name="LL"/>
  <anchor x="276" y="-53" name="L"/>
  <anchor x="276" y="495" name="U"/>
  <anchor x="450" y="-53" name="BD"/>
  <outline>
    <contour>
      <point x="919" y="-302" type="line"/>
      <point x="919" y="-347" type="line" smooth="yes"/>
      <point x="919" y="-392"/>
      <point x="914" y="-410"/>
      <point x="903" y="-423" type="curve" smooth="yes"/>
      <point x="889" y="-440"/>
      <point x="874" y="-450"/>
      <point x="835" y="-450" type="curve" smooth="yes"/>
      <point x="321" y="-450" type="line" smooth="yes"/>
      <point x="227" y="-450"/>
      <point x="169" y="-430"/>
      <point x="121" y="-381" type="curve" smooth="yes"/>
      <point x="72" y="-331"/>
      <point x="55" y="-271"/>
      <point x="55" y="-185" type="curve" smooth="yes"/>
      <point x="55" y="121" type="line"/>
      <point x="100" y="147" type="line"/>
      <point x="136" y="76"/>
      <point x="205" y="36"/>
      <point x="276" y="36" type="curve" smooth="yes"/>
      <point x="378" y="36"/>
      <point x="462" y="120"/>
      <point x="462" y="222" type="curve" smooth="yes"/>
      <point x="462" y="324"/>
      <point x="378" y="408"/>
      <point x="276" y="408" type="curve" smooth="yes"/>
      <point x="205" y="408"/>
      <point x="136" y="367"/>
      <point x="100" y="297" type="curve"/>
      <point x="55" y="322" type="line"/>
      <point x="93" y="412"/>
      <point x="187" y="459"/>
      <point x="276" y="459" type="curve" smooth="yes"/>
      <point x="406" y="459"/>
      <point x="513" y="351"/>
      <point x="513" y="222" type="curve" smooth="yes"/>
      <point x="513" y="91"/>
      <point x="406" y="-15"/>
      <point x="276" y="-15" type="curve" smooth="yes"/>
      <point x="216" y="-15"/>
      <point x="153" y="7"/>
      <point x="106" y="49" type="curve"/>
      <point x="106" y="-167" type="line" smooth="yes"/>
      <point x="106" y="-244"/>
      <point x="116" y="-304"/>
      <point x="159" y="-347" type="curve" smooth="yes"/>
      <point x="202" y="-391"/>
      <point x="264" y="-399"/>
      <point x="337" y="-399" type="curve" smooth="yes"/>
      <point x="810" y="-399" type="line" smooth="yes"/>
      <point x="864" y="-399"/>
      <point x="868" y="-393"/>
      <point x="868" y="-338" type="curve" smooth="yes"/>
      <point x="868" y="-302" type="line"/>
    </contour>
  </outline>
</glyph>
<glyph name="u100A" format="2">
  <advance width="1980"/>
  <unicode hex="100A"/>
  <anchor x="2126" y="-106" name="BD"/>
  <anchor x="2126" y="-106" name="BS"/>
  <anchor x="1404" y="-106" name="L"/>
  <anchor x="1404" y="990" name="U"/>
  <anchor x="0" y="0" name="_R"/>
  <outline>
    <contour>
      <point x="1868" y="444" type="curve" smooth="yes"/>
      <point x="1868" y="182"/>
      <point x="1656" y="-30"/>
      <point x="1404" y="-30" type="curve" smooth="yes"/>
      <point x="1226" y="-30"/>
      <point x="1070" y="90"/>
      <point x="986" y="254" type="curve"/>
      <point x="912" y="86"/>
      <point x="744" y="-30"/>
      <point x="552" y="-30" type="curve" smooth="yes"/>
      <point x="432" y="-30"/>
      <point x="306" y="14"/>
      <point x="212" y="98" type="curve"/>
      <point x="212" y="-334" type="line" smooth="yes"/>
      <point x="212" y="-488"/>
      <point x="232" y="-608"/>
      <point x="318" y="-694" type="curve" smooth="yes"/>
      <point x="404" y="-782"/>
      <point x="528" y="-798"/>
      <point x="674" y="-798" type="curve" smooth="yes"/>
      <point x="1620" y="-798" type="line" smooth="yes"/>
      <point x="1728" y="-798"/>
      <point x="1736" y="-786"/>
      <point x="1736" y="-676" type="curve" smooth="yes"/>
      <point x="1736" y="-604" type="line"/>
      <point x="1838" y="-604" type="line"/>
      <point x="1838" y="-694" type="line" smooth="yes"/>
      <point x="1838" y="-784"/>
      <point x="1828" y="-820"/>
      <point x="1806" y="-846" type="curve" smooth="yes"/>
      <point x="1778" y="-880"/>
      <point x="1748" y="-900"/>
      <point x="1670" y="-900" type="curve" smooth="yes"/>
      <point x="642" y="-900" type="line" smooth="yes"/>
      <point x="454" y="-900"/>
      <point x="338" y="-860"/>
      <point x="242" y="-762" type="curve" smooth="yes"/>
      <point x="144" y="-662"/>
      <point x="110" y="-542"/>
      <point x="110" y="-370" type="curve" smooth="yes"/>
      <point x="110" y="242" type="line"/>
      <point x="200" y="294" type="line"/>
      <point x="272" y="152"/>
      <point x="410" y="72"/>
      <point x="552" y="72" type="curve" smooth="yes"/>
      <point x="756" y="72"/>
      <point x="924" y="238"/>
      <point x="924" y="438" type="curve" smooth="yes"/>
      <point x="924" y="618"/>
      <point x="770" y="816"/>
      <point x="552" y="816" type="curve" smooth="yes"/>
      <point x="406" y="816"/>
      <point x="276" y="742"/>
      <point x="200" y="594" type="curve"/>
      <point x="110" y="644" type="line"/>
      <point x="186" y="824"/>
      <point x="374" y="918"/>
      <point x="552" y="918" type="curve" smooth="yes"/>
      <point x="804" y="918"/>
      <point x="1016" y="704"/>
      <point x="1026" y="456" type="curve"/>
      <point x="1050" y="264"/>
      <point x="1220" y="72"/>
      <point x="1404" y="72" type="curve" smooth="yes"/>
      <point x="1604" y="72"/>
      <point x="1766" y="240"/>
      <point x="1766" y="444" type="curve" smooth="yes"/>
      <point x="1766" y="648"/>
      <point x="1604" y="816"/>
      <point x="1404" y="816" type="curve" smooth="yes"/>
      <point x="1374" y="816"/>
      <point x="1332" y="806"/>
      <point x="1302" y="794" type="curve"/>
      <point x="1262" y="888" type="line"/>
      <point x="1308" y="904"/>
      <point x="1362" y="918"/>
      <point x="1404" y="918" type="curve" smooth="yes"/>
      <point x="1656" y="918"/>
      <point x="1868" y="702"/>
    </contour>
  </outline>
</glyph>
<glyph name="u100B" format="2">
  <advance width="568"/>
  <unicode hex="100B"/>
  <anchor x="657" y="-53" name="BD"/>
  <anchor x="657" y="-53" name="BS"/>
  <anchor x="657" y="-53" name="L"/>
  <anchor x="292" y="495" name="U"/>
  <anchor x="0" y="0" name="_R"/>
  <outline>
    <contour>
      <point x="597" y="-423" type="line"/>
      <point x="571" y="-435"/>
      <point x="538" y="-450"/>
      <point x="520" y="-450" type="curve" smooth="yes"/>
      <point x="478" y="-450"/>
      <point x="462" y="-419"/>
      <point x="462" y="-378" type="curve" smooth="yes"/>
      <point x="462" y="-263" type="line"/>
      <point x="409" y="-285"/>
      <point x="351" y="-293"/>
      <point x="292" y="-293" type="curve" smooth="yes"/>
      <point x="219" y="-293"/>
      <point x="144" y="-275"/>
      <point x="85" y="-233" type="curve"/>
      <point x="85" y="-41" type="line"/>
      <point x="148" y="-80"/>
      <point x="213" y="-107"/>
      <point x="292" y="-107" type="curve" smooth="yes"/>
      <point x="351" y="-107"/>
      <point x="408" y="-89"/>
      <point x="462" y="-60" type="curve"/>
      <point x="462" y="49" type="line"/>
      <point x="415" y="7"/>
      <point x="351" y="-15"/>
      <point x="292" y="-15" type="curve" smooth="yes"/>
      <point x="162" y="-15"/>
      <point x="55" y="91"/>
      <point x="55" y="222" type="curve" smooth="yes"/>
      <point x="55" y="351"/>
      <point x="162" y="459"/>
      <point x="292" y="459" type="curve" smooth="yes"/>
      <point x="381" y="459"/>
      <point x="475" y="412"/>
      <point x="513" y="322" type="curve"/>
      <point x="469" y="297" type="line"/>
      <point x="432" y="367"/>
      <point x="363" y="408"/>
      <point x="292" y="408" type="curve" smooth="yes"/>
      <point x="190" y="408"/>
      <point x="106" y="324"/>
      <point x="106" y="222" type="curve" smooth="yes"/>
      <point x="106" y="120"/>
      <point x="190" y="36"/>
      <point x="292" y="36" type="curve" smooth="yes"/>
      <point x="363" y="36"/>
      <point x="432" y="76"/>
      <point x="469" y="147" type="curve"/>
      <point x="513" y="121" type="line"/>
      <point x="513" y="-89" type="line"/>
      <point x="445" y="-132"/>
      <point x="372" y="-158"/>
      <point x="292" y="-158" type="curve" smooth="yes"/>
      <point x="238" y="-158"/>
      <point x="184" y="-147"/>
      <point x="136" y="-125" type="curve"/>
      <point x="136" y="-204" type="line"/>
      <point x="186" y="-230"/>
      <point x="238" y="-242"/>
      <point x="292" y="-242" type="curve" smooth="yes"/>
      <point x="369" y="-242"/>
      <point x="437" y="-223"/>
      <point x="513" y="-186" type="curve"/>
      <point x="513" y="-369" type="line" smooth="yes"/>
      <point x="513" y="-388"/>
      <point x="515" y="-395"/>
      <point x="525" y="-395" type="curve" smooth="yes"/>
      <point x="538" y="-395"/>
      <point x="573" y="-380"/>
      <point x="583" y="-374" type="curve"/>
    </contour>
  </outline>
</glyph>
<glyph name="u100C" format="2">
  <advance width="1136"/>
  <unicode hex="100C"/>
  <anchor x="1314" y="-106" name="BD"/>
  <anchor x="1314" y="-106" name="BS"/>
  <anchor x="1314" y="-106" name="L"/>
  <anchor x="584" y="990" name="U"/>
  <anchor x="0" y="0" name="_R"/>
  <outline>
    <contour>
      <point x="1026" y="242" type="line"/>
      <point x="1026" y="-550" type="line" smooth="yes"/>
      <point x="1026" y="-654"/>
      <point x="976" y="-738"/>
      <point x="924" y="-790" type="curve" smooth="yes"/>
      <point x="864" y="-850"/>
      <point x="780" y="-900"/>
      <point x="674" y="-900" type="curve" smooth="yes"/>
      <point x="342" y="-900" type="line" smooth="yes"/>
      <point x="212" y="-900"/>
      <point x="140" y="-798"/>
      <point x="140" y="-694" type="curve" smooth="yes"/>
      <point x="140" y="-594"/>
      <point x="222" y="-490"/>
      <point x="362" y="-490" type="curve" smooth="yes"/>
      <point x="416" y="-490"/>
      <point x="458" y="-504"/>
      <point x="488" y="-534" type="curve"/>
      <point x="420" y="-612" type="line"/>
      <point x="398" y="-598"/>
      <point x="380" y="-592"/>
      <point x="362" y="-592" type="curve" smooth="yes"/>
      <point x="282" y="-592"/>
      <point x="242" y="-636"/>
      <point x="242" y="-694" type="curve" smooth="yes"/>
      <point x="242" y="-742"/>
      <point x="282" y="-798"/>
      <point x="342" y="-798" type="curve" smooth="yes"/>
      <point x="614" y="-798" type="line" smooth="yes"/>
      <point x="738" y="-798"/>
      <point x="778" y="-788"/>
      <point x="846" y="-724" type="curve" smooth="yes"/>
      <point x="896" y="-678"/>
      <point x="924" y="-600"/>
      <point x="924" y="-528" type="curve" smooth="yes"/>
      <point x="924" y="98" type="line"/>
      <point x="830" y="14"/>
      <point x="702" y="-30"/>
      <point x="584" y="-30" type="curve" smooth="yes"/>
      <point x="324" y="-30"/>
      <point x="110" y="182"/>
      <point x="110" y="444" type="curve" smooth="yes"/>
      <point x="110" y="702"/>
      <point x="324" y="918"/>
      <point x="584" y="918" type="curve" smooth="yes"/>
      <point x="762" y="918"/>
      <point x="950" y="824"/>
      <point x="1026" y="644" type="curve"/>
      <point x="938" y="594" type="line"/>
      <point x="864" y="734"/>
      <point x="726" y="816"/>
      <point x="584" y="816" type="curve" smooth="yes"/>
      <point x="380" y="816"/>
      <point x="212" y="648"/>
      <point x="212" y="444" type="curve" smooth="yes"/>
      <point x="212" y="240"/>
      <point x="380" y="72"/>
      <point x="584" y="72" type="curve" smooth="yes"/>
      <point x="726" y="72"/>
      <point x="864" y="152"/>
      <point x="938" y="294" type="curve"/>
    </contour>
  </outline>
</glyph>
<glyph name="u100D" format="2">
  <advance width="1136"/>
  <unicode hex="100D"/>
  <anchor x="60" y="-346" name="BD"/>
  <anchor x="336" y="-346" name="BS"/>
  <anchor x="1224" y="-106" name="L"/>
  <anchor x="560" y="-102" name="LL"/>
  <anchor x="552" y="990" name="U"/>
  <anchor x="0" y="0" name="_R"/>
  <outline>
    <contour>
      <point x="1094" y="-900" type="line"/>
      <point x="834" y="-900" type="line"/>
      <point x="834" y="-262" type="line"/>
      <point x="740" y="-298"/>
      <point x="656" y="-316"/>
      <point x="552" y="-316" type="curve" smooth="yes"/>
      <point x="392" y="-316"/>
      <point x="246" y="-264"/>
      <point x="110" y="-178" type="curve"/>
      <point x="110" y="242" type="line"/>
      <point x="200" y="294" type="line"/>
      <point x="272" y="152"/>
      <point x="410" y="72"/>
      <point x="552" y="72" type="curve" smooth="yes"/>
      <point x="756" y="72"/>
      <point x="924" y="240"/>
      <point x="924" y="444" type="curve" smooth="yes"/>
      <point x="924" y="648"/>
      <point x="756" y="816"/>
      <point x="552" y="816" type="curve" smooth="yes"/>
      <point x="410" y="816"/>
      <point x="272" y="734"/>
      <point x="200" y="594" type="curve"/>
      <point x="110" y="644" type="line"/>
      <point x="186" y="824"/>
      <point x="374" y="918"/>
      <point x="552" y="918" type="curve" smooth="yes"/>
      <point x="812" y="918"/>
      <point x="1026" y="702"/>
      <point x="1026" y="444" type="curve" smooth="yes"/>
      <point x="1026" y="182"/>
      <point x="812" y="-30"/>
      <point x="552" y="-30" type="curve" smooth="yes"/>
      <point x="432" y="-30"/>
      <point x="306" y="14"/>
      <point x="212" y="98" type="curve"/>
      <point x="212" y="-120" type="line"/>
      <point x="320" y="-178"/>
      <point x="432" y="-214"/>
      <point x="552" y="-214" type="curve" smooth="yes"/>
      <point x="704" y="-214"/>
      <point x="830" y="-160"/>
      <point x="936" y="-102" type="curve"/>
      <point x="936" y="-798" type="line"/>
      <point x="1094" y="-798" type="line"/>
    </contour>
  </outline>
</glyph>
<glyph name="u100E" format="2">
  <advance width="1154"/>
  <unicode hex="100E"/>
  <anchor x="570" y="-106" name="BD"/>
  <anchor x="570" y="-106" name="BS"/>
  <anchor x="570" y="-106" name="L"/>
  <anchor x="570" y="990" name="U"/>
  <anchor x="0" y="0" name="_R"/>
  <outline>
    <contour>
      <point x="1044" y="480" type="curve" smooth="yes"/>
      <point x="1044" y="174"/>
      <point x="834" y="-30"/>
      <point x="570" y="-30" type="curve" smooth="yes"/>
      <point x="288" y="-30"/>
      <point x="110" y="176"/>
      <point x="110" y="336" type="curve" smooth="yes"/>
      <point x="110" y="588"/>
      <point x="390" y="570"/>
      <point x="390" y="678" type="curve" smooth="yes"/>
      <point x="390" y="776"/>
      <point x="332" y="810"/>
      <point x="284" y="810" type="curve" smooth="yes"/>
      <point x="236" y="810"/>
      <point x="200" y="764"/>
      <point x="198" y="750" type="curve"/>
      <point x="110" y="804" type="line"/>
      <point x="114" y="836"/>
      <point x="194" y="912"/>
      <point x="284" y="912" type="curve" smooth="yes"/>
      <point x="392" y="912"/>
      <point x="492" y="830"/>
      <point x="492" y="678" type="curve" smooth="yes"/>
      <point x="492" y="486"/>
      <point x="212" y="510"/>
      <point x="212" y="336" type="curve" smooth="yes"/>
      <point x="212" y="288"/>
      <point x="312" y="72"/>
      <point x="570" y="72" type="curve" smooth="yes"/>
      <point x="774" y="72"/>
      <point x="942" y="240"/>
      <point x="942" y="480" type="curve" smooth="yes"/>
      <point x="942" y="632"/>
      <point x="882" y="744"/>
      <point x="788" y="828" type="curve"/>
      <point x="848" y="914" type="line"/>
      <point x="966" y="822"/>
      <point x="1044" y="698"/>
    </contour>
  </outline>
</glyph>
